<?xml version="1.0" encoding="UTF-8"?>
<svg version="1.1" xmlns="http://www.w3.org/2000/svg" width="144" height="144">
<path d="M0 0 C12.39163942 -0.5176664 23.03625831 3.06747583 32.4296875 11.1875 C41.44785406 19.84147138 46.04068951 30.56038895 46.60546875 43.0859375 C46.12833417 69.19821176 26.39512554 92.44245944 8.7421875 109.9375 C7.80826172 110.82695312 7.80826172 110.82695312 6.85546875 111.734375 C5.32041759 113.15003702 5.32041759 113.15003702 4.4296875 115.1875 C8.90143948 114.18135581 11.02624676 112.64419544 14.0546875 109.375 C16.72572147 106.88924007 17.73375125 106.16306531 21.43359375 106.29296875 C26.55304287 107.53043068 31.10142214 109.12773159 35.4296875 112.1875 C35.7596875 113.1775 36.0896875 114.1675 36.4296875 115.1875 C31.51737313 121.45493557 25.14703063 122.53878659 17.50390625 123.58984375 C-16.65106963 126.89224539 -16.65106963 126.89224539 -28.5703125 118.1875 C-29.80078125 116.0546875 -29.80078125 116.0546875 -30.5703125 114.1875 C-26.31985469 108.82822711 -20.45963639 107.69439893 -14.0078125 106.5625 C-9.5905221 107.36564371 -7.66848757 109.3291741 -4.5625 112.4609375 C-2.3508559 114.37769572 -0.32278614 115.24461111 2.4296875 116.1875 C-1.95320241 110.61890074 -6.31137339 105.32461511 -11.4453125 100.4375 C-26.61591944 85.52601834 -39.78097465 64.76732445 -40.0703125 43.0625 C-39.92499172 31.33303736 -36.28156674 22.12033907 -28.5703125 13.1875 C-20.68168827 5.5374731 -10.93151021 0.7974354 0 0 Z M-14.5078125 24.125 C-18.79038742 29.52778549 -20.05310283 33.67661172 -19.87890625 40.5625 C-19.04059599 47.693443 -15.89186506 52.5764433 -10.3515625 56.99609375 C-4.7566932 60.73827606 1.11818374 61.84807636 7.80078125 60.82421875 C15.11240166 58.75871766 20.47173386 54.36917467 24.4296875 47.9375 C26.06635498 41.79999695 26.5504473 35.35354564 24.2421875 29.3125 C20.64606121 23.11228225 15.27462976 18.46914742 8.4296875 16.1875 C-0.87972164 15.16245676 -8.10733012 17.12943144 -14.5078125 24.125 Z " fill="#232323" transform="translate(69.5703125,6.8125)"/>
<path d="M0 0 C5.09210206 1.25266963 9.61487798 2.93430213 13.92578125 5.96875 C14.42078125 7.45375 14.42078125 7.45375 14.92578125 8.96875 C10.01346688 15.23618557 3.64312438 16.32003659 -4 17.37109375 C-38.15497588 20.67349539 -38.15497588 20.67349539 -50.07421875 11.96875 C-51.3046875 9.8359375 -51.3046875 9.8359375 -52.07421875 7.96875 C-47.82376094 2.60947711 -41.96354264 1.47564893 -35.51171875 0.34375 C-31.07123292 1.15111106 -29.15906022 3.16377795 -26.06640625 6.33984375 C-23.70975183 8.2667553 -22.08330383 8.69743905 -19.07421875 8.96875 C-18.41421875 8.63875 -17.75421875 8.30875 -17.07421875 7.96875 C-16.29175781 8.03449219 -15.50929687 8.10023437 -14.703125 8.16796875 C-11.11398297 7.89598325 -10.33185623 6.45007866 -8.01171875 3.78125 C-5.1586779 1.06679907 -3.99234417 -0.04058291 0 0 Z " fill="#82A48B" transform="translate(91.07421875,113.03125)"/>
</svg>
