<svg width="1725" height="956" viewBox="0 0 1725 956" fill="none" xmlns="http://www.w3.org/2000/svg">
<path d="M529.856 8.575H3.40882C1.9404 8.575 0.75 11.1068 0.75 14.23V964.27C0.75 967.393 1.9404 969.925 3.40882 969.925H529.856C531.324 969.925 532.515 967.393 532.515 964.27V14.23C532.515 11.1068 531.324 8.575 529.856 8.575Z" stroke="#8A8078" stroke-width="1.5" stroke-linecap="round" stroke-linejoin="round"/>
<path d="M0.75 206.5H532.515" stroke="#8A8078" stroke-width="1.2" stroke-linecap="round" stroke-linejoin="round"/>
<path d="M0.75 404.425H532.515" stroke="#8A8078" stroke-width="1.2" stroke-linecap="round" stroke-linejoin="round"/>
<path d="M0.75 602.35H532.515" stroke="#8A8078" stroke-width="1.2" stroke-linecap="round" stroke-linejoin="round"/>
<path d="M0.75 800.275H532.515" stroke="#8A8078" stroke-width="1.2" stroke-linecap="round" stroke-linejoin="round"/>
<path d="M28.6676 19.885H22.0206C21.2864 19.885 20.6912 21.1509 20.6912 22.7125V198.018C20.6912 199.579 21.2864 200.845 22.0206 200.845H28.6676C29.4019 200.845 29.9971 199.579 29.9971 198.018V22.7125C29.9971 21.1509 29.4019 19.885 28.6676 19.885Z" stroke="#8A8078" stroke-linecap="round" stroke-linejoin="round"/>
<path d="M55.2559 65.125H33.9853C33.2511 65.125 32.6559 66.3909 32.6559 67.9525V198.018C32.6559 199.579 33.2511 200.845 33.9853 200.845H55.2559C55.9901 200.845 56.5853 199.579 56.5853 198.018V67.9525C56.5853 66.3909 55.9901 65.125 55.2559 65.125Z" stroke="#8A8078" stroke-linecap="round" stroke-linejoin="round"/>
<path d="M71.2088 36.85H60.5735C59.8393 36.85 59.2441 38.1159 59.2441 39.6775V198.018C59.2441 199.579 59.8393 200.845 60.5735 200.845H71.2088C71.943 200.845 72.5382 199.579 72.5382 198.018V39.6775C72.5382 38.1159 71.943 36.85 71.2088 36.85Z" fill="#4E7060" stroke="#3A5448" stroke-width="0.5" stroke-linecap="round" stroke-linejoin="round"/>
<path d="M84.5029 87.745H76.5265C75.7923 87.745 75.1971 89.0109 75.1971 90.5725V198.017C75.1971 199.579 75.7923 200.845 76.5265 200.845H84.5029C85.2372 200.845 85.8324 199.579 85.8324 198.017V90.5725C85.8324 89.0109 85.2372 87.745 84.5029 87.745Z" stroke="#8A8078" stroke-width="0.8" stroke-linecap="round" stroke-linejoin="round"/>
<path d="M89.8206 206.5L93.8088 53.815H104.444L100.456 206.5H89.8206Z" stroke="#8A8078" stroke-linecap="round" stroke-linejoin="round"/>
<path d="M112.421 99.055H108.432C107.698 99.055 107.103 100.321 107.103 101.882V198.017C107.103 199.579 107.698 200.845 108.432 200.845H112.421C113.155 200.845 113.75 199.579 113.75 198.017V101.882C113.75 100.321 113.155 99.055 112.421 99.055Z" stroke="#8A8078" stroke-width="0.8" stroke-linecap="round" stroke-linejoin="round"/>
<path d="M200.162 206.5L204.15 42.505H217.444L213.456 206.5H200.162Z" stroke="#8A8078" stroke-linecap="round" stroke-linejoin="round"/>
<path d="M244.032 25.54H220.103C219.369 25.54 218.774 26.8059 218.774 28.3675V198.018C218.774 199.579 219.369 200.845 220.103 200.845H244.032C244.767 200.845 245.362 199.579 245.362 198.018V28.3675C245.362 26.8059 244.767 25.54 244.032 25.54Z" stroke="#8A8078" stroke-linecap="round" stroke-linejoin="round"/>
<path d="M261.315 48.16H249.35C248.616 48.16 248.021 49.4259 248.021 50.9875V198.018C248.021 199.579 248.616 200.845 249.35 200.845H261.315C262.049 200.845 262.644 199.579 262.644 198.018V50.9875C262.644 49.4259 262.049 48.16 261.315 48.16Z" fill="#4E7060" stroke="#3A5448" stroke-width="0.5" stroke-linecap="round" stroke-linejoin="round"/>
<path d="M273.279 93.4H266.632C265.898 93.4 265.303 94.6659 265.303 96.2275V198.017C265.303 199.579 265.898 200.845 266.632 200.845H273.279C274.014 200.845 274.609 199.579 274.609 198.017V96.2275C274.609 94.6659 274.014 93.4 273.279 93.4Z" stroke="#8A8078" stroke-width="0.8" stroke-linecap="round" stroke-linejoin="round"/>
<path d="M277.268 206.5L283.915 65.125H293.221L286.574 206.5H277.268Z" stroke="#8A8078" stroke-linecap="round" stroke-linejoin="round"/>
<path d="M386.279 206.5L380.962 70.78H391.597L396.915 206.5H386.279Z" stroke="#8A8078" stroke-linecap="round" stroke-linejoin="round"/>
<path d="M396.915 206.5L394.256 87.745H404.891L407.55 206.5H396.915Z" stroke="#8A8078" stroke-width="0.8" stroke-linecap="round" stroke-linejoin="round"/>
<path d="M488.644 155.605H470.032C469.298 155.605 468.703 156.871 468.703 158.432V198.017C468.703 199.579 469.298 200.845 470.032 200.845H488.644C489.378 200.845 489.974 199.579 489.974 198.017V158.432C489.974 156.871 489.378 155.605 488.644 155.605Z" stroke="#8A8078" stroke-linecap="round" stroke-linejoin="round"/>
<path d="M479.338 155.605L470.032 93.4" stroke="#4E7060" stroke-width="1.3" stroke-linecap="round" stroke-linejoin="round"/>
<path d="M479.338 155.605L488.644 84.9175" stroke="#4E7060" stroke-width="1.3" stroke-linecap="round" stroke-linejoin="round"/>
<path d="M479.338 155.605V73.6075" stroke="#4E7060" stroke-width="1.3" stroke-linecap="round" stroke-linejoin="round"/>
<path d="M479.338 121.675L470.032 101.883" stroke="#4E7060" stroke-linecap="round" stroke-linejoin="round"/>
<path d="M479.338 116.02L488.644 99.055" stroke="#4E7060" stroke-linecap="round" stroke-linejoin="round"/>
<path d="M27.3382 223.465H22.0206C21.2864 223.465 20.6912 224.731 20.6912 226.292V395.942C20.6912 397.504 21.2864 398.77 22.0206 398.77H27.3382C28.0725 398.77 28.6676 397.504 28.6676 395.942V226.292C28.6676 224.731 28.0725 223.465 27.3382 223.465Z" stroke="#8A8078" stroke-width="0.8" stroke-linecap="round" stroke-linejoin="round"/>
<path d="M52.5971 246.085H32.6559C31.9217 246.085 31.3265 247.351 31.3265 248.913V395.943C31.3265 397.504 31.9217 398.77 32.6559 398.77H52.5971C53.3313 398.77 53.9265 397.504 53.9265 395.943V248.913C53.9265 247.351 53.3313 246.085 52.5971 246.085Z" stroke="#8A8078" stroke-linecap="round" stroke-linejoin="round"/>
<path d="M56.5853 404.425L60.5735 234.775H71.2088L67.2206 404.425H56.5853Z" fill="#4E7060" stroke="#3A5448" stroke-width="0.5" stroke-linecap="round" stroke-linejoin="round"/>
<path d="M83.1735 342.22H73.8677C73.1334 342.22 72.5382 343.486 72.5382 345.047V395.942C72.5382 397.504 73.1334 398.77 73.8677 398.77H83.1735C83.9077 398.77 84.5029 397.504 84.5029 395.942V345.047C84.5029 343.486 83.9077 342.22 83.1735 342.22Z" stroke="#8A8078" stroke-width="0.8" stroke-linecap="round" stroke-linejoin="round"/>
<path d="M100.456 229.12H88.4912C87.757 229.12 87.1618 230.386 87.1618 231.947V395.942C87.1618 397.504 87.757 398.77 88.4912 398.77H100.456C101.19 398.77 101.785 397.504 101.785 395.942V231.947C101.785 230.386 101.19 229.12 100.456 229.12Z" stroke="#8A8078" stroke-linecap="round" stroke-linejoin="round"/>
<path d="M109.762 362.013H105.774C105.039 362.013 104.444 363.278 104.444 364.84V395.943C104.444 397.504 105.039 398.77 105.774 398.77H109.762C110.496 398.77 111.091 397.504 111.091 395.943V364.84C111.091 363.278 110.496 362.013 109.762 362.013Z" stroke="#8A8078" stroke-width="0.7" stroke-linecap="round" stroke-linejoin="round"/>
<path d="M234.726 353.53H208.138C207.404 353.53 206.809 354.796 206.809 356.358V395.943C206.809 397.504 207.404 398.77 208.138 398.77H234.726C235.461 398.77 236.056 397.504 236.056 395.943V356.358C236.056 354.796 235.461 353.53 234.726 353.53Z" stroke="#8A8078" stroke-linecap="round" stroke-linejoin="round"/>
<path d="M291.891 234.775H265.303C264.569 234.775 263.974 236.041 263.974 237.602V395.942C263.974 397.504 264.569 398.77 265.303 398.77H291.891C292.625 398.77 293.221 397.504 293.221 395.942V237.602C293.221 236.041 292.625 234.775 291.891 234.775Z" stroke="#8A8078" stroke-linecap="round" stroke-linejoin="round"/>
<path d="M295.879 404.425L299.868 240.43H307.844L303.856 404.425H295.879Z" stroke="#8A8078" stroke-linecap="round" stroke-linejoin="round"/>
<path d="M322.468 251.74H311.832C311.098 251.74 310.503 253.006 310.503 254.567V395.942C310.503 397.504 311.098 398.77 311.832 398.77H322.468C323.202 398.77 323.797 397.504 323.797 395.942V254.567C323.797 253.006 323.202 251.74 322.468 251.74Z" stroke="#8A8078" stroke-width="0.9" stroke-linecap="round" stroke-linejoin="round"/>
<path d="M403.562 353.53H387.609C386.875 353.53 386.279 354.796 386.279 356.358V395.943C386.279 397.504 386.875 398.77 387.609 398.77H403.562C404.296 398.77 404.891 397.504 404.891 395.943V356.358C404.891 354.796 404.296 353.53 403.562 353.53Z" stroke="#8A8078" stroke-linecap="round" stroke-linejoin="round"/>
<path d="M395.585 353.53L387.609 285.67" stroke="#4E7060" stroke-width="1.3" stroke-linecap="round" stroke-linejoin="round"/>
<path d="M395.585 353.53L403.562 280.015" stroke="#4E7060" stroke-width="1.3" stroke-linecap="round" stroke-linejoin="round"/>
<path d="M395.585 353.53V268.705" stroke="#4E7060" stroke-width="1.3" stroke-linecap="round" stroke-linejoin="round"/>
<path d="M395.585 319.6L386.279 299.807" stroke="#4E7060" stroke-linecap="round" stroke-linejoin="round"/>
<path d="M395.585 313.945L404.891 294.153" stroke="#4E7060" stroke-linecap="round" stroke-linejoin="round"/>
<path d="M475.35 229.12H467.374C466.639 229.12 466.044 230.386 466.044 231.947V395.942C466.044 397.504 466.639 398.77 467.374 398.77H475.35C476.084 398.77 476.679 397.504 476.679 395.942V231.947C476.679 230.386 476.084 229.12 475.35 229.12Z" stroke="#8A8078" stroke-linecap="round" stroke-linejoin="round"/>
<path d="M496.621 257.395H480.668C479.933 257.395 479.338 258.661 479.338 260.223V395.943C479.338 397.504 479.933 398.77 480.668 398.77H496.621C497.355 398.77 497.95 397.504 497.95 395.943V260.223C497.95 258.661 497.355 257.395 496.621 257.395Z" stroke="#8A8078" stroke-linecap="round" stroke-linejoin="round"/>
<path d="M500.609 404.425L503.268 263.05H509.915L507.256 404.425H500.609Z" stroke="#8A8078" stroke-width="0.8" stroke-linecap="round" stroke-linejoin="round"/>
<path d="M37.9735 421.39H22.0206C21.2864 421.39 20.6912 422.656 20.6912 424.218V593.868C20.6912 595.429 21.2864 596.695 22.0206 596.695H37.9735C38.7077 596.695 39.3029 595.429 39.3029 593.868V424.218C39.3029 422.656 38.7077 421.39 37.9735 421.39Z" stroke="#8A8078" stroke-linecap="round" stroke-linejoin="round"/>
<path d="M41.9618 602.35L44.6206 438.355H53.9265L51.2677 602.35H41.9618Z" stroke="#8A8078" stroke-linecap="round" stroke-linejoin="round"/>
<path d="M63.2324 477.94H56.5853C55.8511 477.94 55.2559 479.206 55.2559 480.768V593.868C55.2559 595.429 55.8511 596.695 56.5853 596.695H63.2324C63.9666 596.695 64.5618 595.429 64.5618 593.868V480.768C64.5618 479.206 63.9666 477.94 63.2324 477.94Z" stroke="#8A8078" stroke-width="0.8" stroke-linecap="round" stroke-linejoin="round"/>
<path d="M87.1618 511.87H68.55C67.8158 511.87 67.2206 513.136 67.2206 514.697V593.867C67.2206 595.429 67.8158 596.695 68.55 596.695H87.1618C87.896 596.695 88.4912 595.429 88.4912 593.867V514.697C88.4912 513.136 87.896 511.87 87.1618 511.87Z" stroke="#8A8078" stroke-linecap="round" stroke-linejoin="round"/>
<path d="M91.15 602.35L99.1265 444.01H107.103L99.1265 602.35H91.15Z" stroke="#8A8078" stroke-linecap="round" stroke-linejoin="round"/>
<path d="M190.856 551.455H172.244C171.51 551.455 170.915 552.721 170.915 554.283V593.868C170.915 595.429 171.51 596.695 172.244 596.695H190.856C191.59 596.695 192.185 595.429 192.185 593.868V554.283C192.185 552.721 191.59 551.455 190.856 551.455Z" stroke="#8A8078" stroke-linecap="round" stroke-linejoin="round"/>
<path d="M181.55 551.455L172.244 483.595" stroke="#4E7060" stroke-width="1.3" stroke-linecap="round" stroke-linejoin="round"/>
<path d="M181.55 551.455L190.856 477.94" stroke="#4E7060" stroke-width="1.3" stroke-linecap="round" stroke-linejoin="round"/>
<path d="M181.55 551.455V466.63" stroke="#4E7060" stroke-width="1.3" stroke-linecap="round" stroke-linejoin="round"/>
<path d="M181.55 517.525L170.915 497.732" stroke="#4E7060" stroke-linecap="round" stroke-linejoin="round"/>
<path d="M181.55 511.87L192.185 494.905" stroke="#4E7060" stroke-linecap="round" stroke-linejoin="round"/>
<path d="M343.738 427.045H331.774C331.039 427.045 330.444 428.311 330.444 429.872V593.867C330.444 595.429 331.039 596.695 331.774 596.695H343.738C344.472 596.695 345.068 595.429 345.068 593.867V429.872C345.068 428.311 344.472 427.045 343.738 427.045Z" stroke="#8A8078" stroke-linecap="round" stroke-linejoin="round"/>
<path d="M355.703 446.838H349.056C348.322 446.838 347.726 448.103 347.726 449.665V593.868C347.726 595.429 348.322 596.695 349.056 596.695H355.703C356.437 596.695 357.032 595.429 357.032 593.868V449.665C357.032 448.103 356.437 446.838 355.703 446.838Z" stroke="#8A8078" stroke-width="0.8" stroke-linecap="round" stroke-linejoin="round"/>
<path d="M383.621 421.39H361.021C360.286 421.39 359.691 422.656 359.691 424.218V593.868C359.691 595.429 360.286 596.695 361.021 596.695H383.621C384.355 596.695 384.95 595.429 384.95 593.868V424.218C384.95 422.656 384.355 421.39 383.621 421.39Z" fill="#4E7060" stroke="#3A5448" stroke-width="0.5" stroke-linecap="round" stroke-linejoin="round"/>
<path d="M387.609 602.35L391.597 444.01H399.574L395.585 602.35H387.609Z" stroke="#8A8078" stroke-linecap="round" stroke-linejoin="round"/>
<path d="M411.538 557.11H403.562C402.828 557.11 402.232 558.376 402.232 559.937V593.867C402.232 595.429 402.828 596.695 403.562 596.695H411.538C412.272 596.695 412.868 595.429 412.868 593.867V559.937C412.868 558.376 412.272 557.11 411.538 557.11Z" stroke="#8A8078" stroke-width="0.7" stroke-linecap="round" stroke-linejoin="round"/>
<path d="M476.679 427.045H467.374C466.639 427.045 466.044 428.311 466.044 429.872V593.867C466.044 595.429 466.639 596.695 467.374 596.695H476.679C477.414 596.695 478.009 595.429 478.009 593.867V429.872C478.009 428.311 477.414 427.045 476.679 427.045Z" stroke="#8A8078" stroke-linecap="round" stroke-linejoin="round"/>
<path d="M497.95 444.01H481.997C481.263 444.01 480.668 445.276 480.668 446.838V593.868C480.668 595.429 481.263 596.695 481.997 596.695H497.95C498.684 596.695 499.279 595.429 499.279 593.868V446.838C499.279 445.276 498.684 444.01 497.95 444.01Z" stroke="#8A8078" stroke-linecap="round" stroke-linejoin="round"/>
<path d="M501.938 602.35L504.597 455.32H512.574L509.915 602.35H501.938Z" stroke="#8A8078" stroke-width="0.9" stroke-linecap="round" stroke-linejoin="round"/>
<path d="M27.3382 624.97H22.0206C21.2864 624.97 20.6912 626.236 20.6912 627.798V791.793C20.6912 793.354 21.2864 794.62 22.0206 794.62H27.3382C28.0725 794.62 28.6676 793.354 28.6676 791.793V627.798C28.6676 626.236 28.0725 624.97 27.3382 624.97Z" stroke="#8A8078" stroke-width="0.8" stroke-linecap="round" stroke-linejoin="round"/>
<path d="M51.2676 636.28H32.6559C31.9217 636.28 31.3265 637.546 31.3265 639.108V791.793C31.3265 793.354 31.9217 794.62 32.6559 794.62H51.2676C52.0019 794.62 52.5971 793.354 52.5971 791.793V639.108C52.5971 637.546 52.0019 636.28 51.2676 636.28Z" stroke="#8A8078" stroke-linecap="round" stroke-linejoin="round"/>
<path d="M55.2559 800.275L59.2441 630.625H67.2206L63.2324 800.275H55.2559Z" stroke="#8A8078" stroke-linecap="round" stroke-linejoin="round"/>
<path d="M79.1853 658.9H71.2088C70.4746 658.9 69.8794 660.166 69.8794 661.728V791.793C69.8794 793.354 70.4746 794.62 71.2088 794.62H79.1853C79.9195 794.62 80.5147 793.354 80.5147 791.793V661.728C80.5147 660.166 79.9195 658.9 79.1853 658.9Z" stroke="#8A8078" stroke-width="0.8" stroke-linecap="round" stroke-linejoin="round"/>
<path d="M99.1265 624.97H84.5029C83.7687 624.97 83.1735 626.236 83.1735 627.798V791.793C83.1735 793.354 83.7687 794.62 84.5029 794.62H99.1265C99.8607 794.62 100.456 793.354 100.456 791.793V627.798C100.456 626.236 99.8607 624.97 99.1265 624.97Z" stroke="#8A8078" stroke-linecap="round" stroke-linejoin="round"/>
<path d="M103.115 800.275L107.103 681.52H113.75L109.762 800.275H103.115Z" stroke="#8A8078" stroke-width="0.8" stroke-linecap="round" stroke-linejoin="round"/>
<path d="M249.35 749.38H228.079C227.345 749.38 226.75 750.646 226.75 752.208V791.793C226.75 793.354 227.345 794.62 228.079 794.62H249.35C250.084 794.62 250.679 793.354 250.679 791.793V752.208C250.679 750.646 250.084 749.38 249.35 749.38Z" stroke="#8A8078" stroke-linecap="round" stroke-linejoin="round"/>
<path d="M238.715 749.38L229.409 675.865" stroke="#4E7060" stroke-width="1.3" stroke-linecap="round" stroke-linejoin="round"/>
<path d="M238.715 749.38L248.021 670.21" stroke="#4E7060" stroke-width="1.3" stroke-linecap="round" stroke-linejoin="round"/>
<path d="M238.715 749.38V658.9" stroke="#4E7060" stroke-width="1.3" stroke-linecap="round" stroke-linejoin="round"/>
<path d="M238.715 712.623L228.079 692.83" stroke="#4E7060" stroke-linecap="round" stroke-linejoin="round"/>
<path d="M238.715 706.967L249.35 687.175" stroke="#4E7060" stroke-linecap="round" stroke-linejoin="round"/>
<path d="M443.444 749.38H427.491C426.757 749.38 426.162 750.646 426.162 752.208V791.793C426.162 793.354 426.757 794.62 427.491 794.62H443.444C444.178 794.62 444.774 793.354 444.774 791.793V752.208C444.774 750.646 444.178 749.38 443.444 749.38Z" stroke="#8A8078" stroke-linecap="round" stroke-linejoin="round"/>
<path d="M435.468 749.38L427.491 687.175" stroke="#4E7060" stroke-width="1.3" stroke-linecap="round" stroke-linejoin="round"/>
<path d="M435.468 749.38L443.444 681.52" stroke="#4E7060" stroke-width="1.3" stroke-linecap="round" stroke-linejoin="round"/>
<path d="M435.468 749.38V673.038" stroke="#4E7060" stroke-width="1.3" stroke-linecap="round" stroke-linejoin="round"/>
<path d="M435.468 715.45L426.162 698.485" stroke="#4E7060" stroke-linecap="round" stroke-linejoin="round"/>
<path d="M435.468 709.795L444.774 695.658" stroke="#4E7060" stroke-linecap="round" stroke-linejoin="round"/>
<path d="M370.326 630.625H361.021C360.286 630.625 359.691 631.891 359.691 633.452V791.792C359.691 793.354 360.286 794.62 361.021 794.62H370.326C371.061 794.62 371.656 793.354 371.656 791.792V633.452C371.656 631.891 371.061 630.625 370.326 630.625Z" stroke="#8A8078" stroke-linecap="round" stroke-linejoin="round"/>
<path d="M394.256 647.59H375.644C374.91 647.59 374.315 648.856 374.315 650.418V791.793C374.315 793.354 374.91 794.62 375.644 794.62H394.256C394.99 794.62 395.585 793.354 395.585 791.793V650.418C395.585 648.856 394.99 647.59 394.256 647.59Z" stroke="#8A8078" stroke-linecap="round" stroke-linejoin="round"/>
<path d="M398.244 800.275L402.232 641.935H408.879L404.891 800.275H398.244Z" stroke="#8A8078" stroke-width="0.9" stroke-linecap="round" stroke-linejoin="round"/>
<path d="M474.021 624.97H467.374C466.639 624.97 466.044 626.236 466.044 627.798V791.793C466.044 793.354 466.639 794.62 467.374 794.62H474.021C474.755 794.62 475.35 793.354 475.35 791.793V627.798C475.35 626.236 474.755 624.97 474.021 624.97Z" stroke="#8A8078" stroke-width="0.8" stroke-linecap="round" stroke-linejoin="round"/>
<path d="M493.962 636.28H479.338C478.604 636.28 478.009 637.546 478.009 639.108V791.793C478.009 793.354 478.604 794.62 479.338 794.62H493.962C494.696 794.62 495.291 793.354 495.291 791.793V639.108C495.291 637.546 494.696 636.28 493.962 636.28Z" stroke="#8A8078" stroke-linecap="round" stroke-linejoin="round"/>
<path d="M508.585 619.315H499.279C498.545 619.315 497.95 620.581 497.95 622.143V791.792C497.95 793.354 498.545 794.62 499.279 794.62H508.585C509.319 794.62 509.915 793.354 509.915 791.792V622.143C509.915 620.581 509.319 619.315 508.585 619.315Z" stroke="#8A8078" stroke-linecap="round" stroke-linejoin="round"/>
<path d="M31.3265 817.24H22.0206C21.2864 817.24 20.6912 818.506 20.6912 820.067V961.442C20.6912 963.004 21.2864 964.27 22.0206 964.27H31.3265C32.0607 964.27 32.6559 963.004 32.6559 961.442V820.067C32.6559 818.506 32.0607 817.24 31.3265 817.24Z" stroke="#8A8078" stroke-linecap="round" stroke-linejoin="round"/>
<path d="M60.5735 828.55H36.6441C35.9099 828.55 35.3147 829.816 35.3147 831.377V961.442C35.3147 963.004 35.9099 964.27 36.6441 964.27H60.5735C61.3077 964.27 61.9029 963.004 61.9029 961.442V831.377C61.9029 829.816 61.3077 828.55 60.5735 828.55Z" stroke="#8A8078" stroke-linecap="round" stroke-linejoin="round"/>
<path d="M79.1853 811.585H65.8912C65.157 811.585 64.5618 812.851 64.5618 814.413V961.443C64.5618 963.004 65.157 964.27 65.8912 964.27H79.1853C79.9195 964.27 80.5147 963.004 80.5147 961.443V814.413C80.5147 812.851 79.9195 811.585 79.1853 811.585Z" fill="#4E7060" stroke="#3A5448" stroke-width="0.5" stroke-linecap="round" stroke-linejoin="round"/>
<path d="M83.1735 964.27L88.4912 822.895H96.4676L91.15 964.27H83.1735Z" stroke="#8A8078" stroke-linecap="round" stroke-linejoin="round"/>
<path d="M105.774 885.1H100.456C99.7217 885.1 99.1265 886.366 99.1265 887.928V961.443C99.1265 963.004 99.7217 964.27 100.456 964.27H105.774C106.508 964.27 107.103 963.004 107.103 961.443V887.928C107.103 886.366 106.508 885.1 105.774 885.1Z" stroke="#8A8078" stroke-width="0.7" stroke-linecap="round" stroke-linejoin="round"/>
<path d="M153.632 749.38H135.021C134.286 749.38 133.691 750.646 133.691 752.208V791.793C133.691 793.354 134.286 794.62 135.021 794.62H153.632C154.367 794.62 154.962 793.354 154.962 791.793V752.208C154.962 750.646 154.367 749.38 153.632 749.38Z" stroke="#8A8078" stroke-linecap="round" stroke-linejoin="round"/>
<path d="M144.326 749.38L135.021 687.175" stroke="#4E7060" stroke-width="1.3" stroke-linecap="round" stroke-linejoin="round"/>
<path d="M144.326 749.38L153.632 681.52" stroke="#4E7060" stroke-width="1.3" stroke-linecap="round" stroke-linejoin="round"/>
<path d="M144.326 749.38V673.038" stroke="#4E7060" stroke-width="1.3" stroke-linecap="round" stroke-linejoin="round"/>
<path d="M144.326 715.45L135.021 698.485" stroke="#4E7060" stroke-linecap="round" stroke-linejoin="round"/>
<path d="M144.326 709.795L153.632 695.658" stroke="#4E7060" stroke-linecap="round" stroke-linejoin="round"/>
<path d="M311.832 822.895H305.185C304.451 822.895 303.856 824.161 303.856 825.723V961.443C303.856 963.004 304.451 964.27 305.185 964.27H311.832C312.567 964.27 313.162 963.004 313.162 961.443V825.723C313.162 824.161 312.567 822.895 311.832 822.895Z" stroke="#8A8078" stroke-width="0.8" stroke-linecap="round" stroke-linejoin="round"/>
<path d="M338.421 811.585H317.15C316.416 811.585 315.821 812.851 315.821 814.413V961.443C315.821 963.004 316.416 964.27 317.15 964.27H338.421C339.155 964.27 339.75 963.004 339.75 961.443V814.413C339.75 812.851 339.155 811.585 338.421 811.585Z" stroke="#8A8078" stroke-linecap="round" stroke-linejoin="round"/>
<path d="M342.409 964.27L346.397 828.55H354.374L350.385 964.27H342.409Z" stroke="#8A8078" stroke-linecap="round" stroke-linejoin="round"/>
<path d="M366.338 845.515H358.362C357.628 845.515 357.032 846.781 357.032 848.343V961.443C357.032 963.004 357.628 964.27 358.362 964.27H366.338C367.072 964.27 367.668 963.004 367.668 961.443V848.343C367.668 846.781 367.072 845.515 366.338 845.515Z" stroke="#8A8078" stroke-width="0.8" stroke-linecap="round" stroke-linejoin="round"/>
<path d="M483.326 817.24H467.374C466.639 817.24 466.044 818.506 466.044 820.067V961.442C466.044 963.004 466.639 964.27 467.374 964.27H483.326C484.061 964.27 484.656 963.004 484.656 961.442V820.067C484.656 818.506 484.061 817.24 483.326 817.24Z" stroke="#8A8078" stroke-linecap="round" stroke-linejoin="round"/>
<path d="M487.315 964.27L491.303 834.205H497.95L493.962 964.27H487.315Z" stroke="#8A8078" stroke-width="0.9" stroke-linecap="round" stroke-linejoin="round"/>
<path d="M511.244 828.55H501.938C501.204 828.55 500.609 829.816 500.609 831.377V961.442C500.609 963.004 501.204 964.27 501.938 964.27H511.244C511.978 964.27 512.574 963.004 512.574 961.442V831.377C512.574 829.816 511.978 828.55 511.244 828.55Z" stroke="#8A8078" stroke-linecap="round" stroke-linejoin="round"/>
<path d="M1722.91 0.75H1183.36C1181.85 0.75 1180.63 3.28183 1180.63 6.405V956.445C1180.63 959.568 1181.85 962.1 1183.36 962.1H1722.91C1724.41 962.1 1725.63 959.568 1725.63 956.445V6.405C1725.63 3.28183 1724.41 0.75 1722.91 0.75Z" stroke="#8A8078" stroke-width="1.5" stroke-linecap="round" stroke-linejoin="round"/>
<path d="M1180.63 198.675H1725.63" stroke="#8A8078" stroke-width="1.2" stroke-linecap="round" stroke-linejoin="round"/>
<path d="M1180.63 396.6H1725.63" stroke="#8A8078" stroke-width="1.2" stroke-linecap="round" stroke-linejoin="round"/>
<path d="M1180.63 594.525H1725.63" stroke="#8A8078" stroke-width="1.2" stroke-linecap="round" stroke-linejoin="round"/>
<path d="M1180.63 792.45H1725.63" stroke="#8A8078" stroke-width="1.2" stroke-linecap="round" stroke-linejoin="round"/>
<path d="M1209.24 12.06H1202.43C1201.68 12.06 1201.07 13.3259 1201.07 14.8875V190.193C1201.07 191.754 1201.68 193.02 1202.43 193.02H1209.24C1210 193.02 1210.61 191.754 1210.61 190.193V14.8875C1210.61 13.3259 1210 12.06 1209.24 12.06Z" stroke="#8A8078" stroke-linecap="round" stroke-linejoin="round"/>
<path d="M1236.49 57.3H1214.69C1213.94 57.3 1213.33 58.5659 1213.33 60.1275V190.193C1213.33 191.754 1213.94 193.02 1214.69 193.02H1236.49C1237.25 193.02 1237.86 191.754 1237.86 190.193V60.1275C1237.86 58.5659 1237.25 57.3 1236.49 57.3Z" stroke="#8A8078" stroke-linecap="round" stroke-linejoin="round"/>
<path d="M1252.84 29.025H1241.94C1241.19 29.025 1240.58 30.2909 1240.58 31.8525V190.193C1240.58 191.754 1241.19 193.02 1241.94 193.02H1252.84C1253.6 193.02 1254.21 191.754 1254.21 190.193V31.8525C1254.21 30.2909 1253.6 29.025 1252.84 29.025Z" fill="#4E7060" stroke="#3A5448" stroke-width="0.5" stroke-linecap="round" stroke-linejoin="round"/>
<path d="M1266.47 79.92H1258.29C1257.54 79.92 1256.93 81.1859 1256.93 82.7475V190.193C1256.93 191.754 1257.54 193.02 1258.29 193.02H1266.47C1267.22 193.02 1267.83 191.754 1267.83 190.193V82.7475C1267.83 81.1859 1267.22 79.92 1266.47 79.92Z" stroke="#8A8078" stroke-width="0.8" stroke-linecap="round" stroke-linejoin="round"/>
<path d="M1271.92 198.675L1276.01 45.99H1286.91L1282.82 198.675H1271.92Z" stroke="#8A8078" stroke-linecap="round" stroke-linejoin="round"/>
<path d="M1295.08 91.23H1290.99C1290.24 91.23 1289.63 92.4959 1289.63 94.0575V190.193C1289.63 191.754 1290.24 193.02 1290.99 193.02H1295.08C1295.83 193.02 1296.44 191.754 1296.44 190.193V94.0575C1296.44 92.4959 1295.83 91.23 1295.08 91.23Z" stroke="#8A8078" stroke-width="0.8" stroke-linecap="round" stroke-linejoin="round"/>
<path d="M1385.01 198.675L1389.09 34.68H1402.72L1398.63 198.675H1385.01Z" stroke="#8A8078" stroke-linecap="round" stroke-linejoin="round"/>
<path d="M1429.97 17.715H1405.44C1404.69 17.715 1404.08 18.9809 1404.08 20.5425V190.192C1404.08 191.754 1404.69 193.02 1405.44 193.02H1429.97C1430.72 193.02 1431.33 191.754 1431.33 190.192V20.5425C1431.33 18.9809 1430.72 17.715 1429.97 17.715Z" stroke="#8A8078" stroke-linecap="round" stroke-linejoin="round"/>
<path d="M1447.68 40.335H1435.42C1434.67 40.335 1434.06 41.6009 1434.06 43.1625V190.193C1434.06 191.754 1434.67 193.02 1435.42 193.02H1447.68C1448.43 193.02 1449.04 191.754 1449.04 190.193V43.1625C1449.04 41.6009 1448.43 40.335 1447.68 40.335Z" fill="#4E7060" stroke="#3A5448" stroke-width="0.5" stroke-linecap="round" stroke-linejoin="round"/>
<path d="M1459.94 85.575H1453.13C1452.38 85.575 1451.77 86.8409 1451.77 88.4025V190.193C1451.77 191.754 1452.38 193.02 1453.13 193.02H1459.94C1460.7 193.02 1461.31 191.754 1461.31 190.193V88.4025C1461.31 86.8409 1460.7 85.575 1459.94 85.575Z" stroke="#8A8078" stroke-width="0.8" stroke-linecap="round" stroke-linejoin="round"/>
<path d="M1464.03 198.675L1470.84 57.3H1480.38L1473.57 198.675H1464.03Z" stroke="#8A8078" stroke-linecap="round" stroke-linejoin="round"/>
<path d="M1575.76 198.675L1570.31 62.955H1581.21L1586.66 198.675H1575.76Z" stroke="#8A8078" stroke-linecap="round" stroke-linejoin="round"/>
<path d="M1586.66 198.675L1583.93 79.92H1594.83L1597.56 198.675H1586.66Z" stroke="#8A8078" stroke-width="0.8" stroke-linecap="round" stroke-linejoin="round"/>
<path d="M1680.67 147.78H1661.59C1660.84 147.78 1660.23 149.046 1660.23 150.607V190.193C1660.23 191.754 1660.84 193.02 1661.59 193.02H1680.67C1681.42 193.02 1682.03 191.754 1682.03 190.193V150.607C1682.03 149.046 1681.42 147.78 1680.67 147.78Z" stroke="#8A8078" stroke-linecap="round" stroke-linejoin="round"/>
<path d="M1671.13 147.78L1661.59 85.575" stroke="#4E7060" stroke-width="1.3" stroke-linecap="round" stroke-linejoin="round"/>
<path d="M1671.13 147.78L1680.67 77.0925" stroke="#4E7060" stroke-width="1.3" stroke-linecap="round" stroke-linejoin="round"/>
<path d="M1671.13 147.78V65.7825" stroke="#4E7060" stroke-width="1.3" stroke-linecap="round" stroke-linejoin="round"/>
<path d="M1671.13 113.85L1661.59 94.0575" stroke="#4E7060" stroke-linecap="round" stroke-linejoin="round"/>
<path d="M1671.13 108.195L1680.67 91.23" stroke="#4E7060" stroke-linecap="round" stroke-linejoin="round"/>
<path d="M1207.88 215.64H1202.43C1201.68 215.64 1201.07 216.906 1201.07 218.468V388.118C1201.07 389.679 1201.68 390.945 1202.43 390.945H1207.88C1208.63 390.945 1209.24 389.679 1209.24 388.118V218.468C1209.24 216.906 1208.63 215.64 1207.88 215.64Z" stroke="#8A8078" stroke-width="0.8" stroke-linecap="round" stroke-linejoin="round"/>
<path d="M1233.77 238.26H1213.33C1212.58 238.26 1211.97 239.526 1211.97 241.088V388.118C1211.97 389.679 1212.58 390.945 1213.33 390.945H1233.77C1234.52 390.945 1235.13 389.679 1235.13 388.118V241.088C1235.13 239.526 1234.52 238.26 1233.77 238.26Z" stroke="#8A8078" stroke-linecap="round" stroke-linejoin="round"/>
<path d="M1237.86 396.6L1241.94 226.95H1252.84L1248.76 396.6H1237.86Z" fill="#4E7060" stroke="#3A5448" stroke-width="0.5" stroke-linecap="round" stroke-linejoin="round"/>
<path d="M1265.11 334.395H1255.57C1254.82 334.395 1254.21 335.661 1254.21 337.222V388.117C1254.21 389.679 1254.82 390.945 1255.57 390.945H1265.11C1265.86 390.945 1266.47 389.679 1266.47 388.117V337.222C1266.47 335.661 1265.86 334.395 1265.11 334.395Z" stroke="#8A8078" stroke-width="0.8" stroke-linecap="round" stroke-linejoin="round"/>
<path d="M1282.82 221.295H1270.56C1269.8 221.295 1269.19 222.561 1269.19 224.122V388.117C1269.19 389.679 1269.8 390.945 1270.56 390.945H1282.82C1283.57 390.945 1284.18 389.679 1284.18 388.117V224.122C1284.18 222.561 1283.57 221.295 1282.82 221.295Z" stroke="#8A8078" stroke-linecap="round" stroke-linejoin="round"/>
<path d="M1292.36 354.188H1288.27C1287.52 354.188 1286.91 355.453 1286.91 357.015V388.118C1286.91 389.679 1287.52 390.945 1288.27 390.945H1292.36C1293.11 390.945 1293.72 389.679 1293.72 388.118V357.015C1293.72 355.453 1293.11 354.188 1292.36 354.188Z" stroke="#8A8078" stroke-width="0.7" stroke-linecap="round" stroke-linejoin="round"/>
<path d="M1420.43 345.705H1393.18C1392.43 345.705 1391.82 346.971 1391.82 348.533V388.118C1391.82 389.679 1392.43 390.945 1393.18 390.945H1420.43C1421.18 390.945 1421.79 389.679 1421.79 388.118V348.533C1421.79 346.971 1421.18 345.705 1420.43 345.705Z" stroke="#8A8078" stroke-linecap="round" stroke-linejoin="round"/>
<path d="M1479.02 226.95H1451.77C1451.02 226.95 1450.41 228.216 1450.41 229.778V388.118C1450.41 389.679 1451.02 390.945 1451.77 390.945H1479.02C1479.77 390.945 1480.38 389.679 1480.38 388.118V229.778C1480.38 228.216 1479.77 226.95 1479.02 226.95Z" stroke="#8A8078" stroke-linecap="round" stroke-linejoin="round"/>
<path d="M1483.11 396.6L1487.19 232.605H1495.37L1491.28 396.6H1483.11Z" stroke="#8A8078" stroke-linecap="round" stroke-linejoin="round"/>
<path d="M1510.36 243.915H1499.46C1498.7 243.915 1498.09 245.181 1498.09 246.743V388.118C1498.09 389.679 1498.7 390.945 1499.46 390.945H1510.36C1511.11 390.945 1511.72 389.679 1511.72 388.118V246.743C1511.72 245.181 1511.11 243.915 1510.36 243.915Z" stroke="#8A8078" stroke-width="0.9" stroke-linecap="round" stroke-linejoin="round"/>
<path d="M1593.47 345.705H1577.12C1576.37 345.705 1575.76 346.971 1575.76 348.533V388.118C1575.76 389.679 1576.37 390.945 1577.12 390.945H1593.47C1594.22 390.945 1594.83 389.679 1594.83 388.118V348.533C1594.83 346.971 1594.22 345.705 1593.47 345.705Z" stroke="#8A8078" stroke-linecap="round" stroke-linejoin="round"/>
<path d="M1585.29 345.705L1577.12 277.845" stroke="#4E7060" stroke-width="1.3" stroke-linecap="round" stroke-linejoin="round"/>
<path d="M1585.29 345.705L1593.47 272.19" stroke="#4E7060" stroke-width="1.3" stroke-linecap="round" stroke-linejoin="round"/>
<path d="M1585.29 345.705V260.88" stroke="#4E7060" stroke-width="1.3" stroke-linecap="round" stroke-linejoin="round"/>
<path d="M1585.29 311.775L1575.76 291.983" stroke="#4E7060" stroke-linecap="round" stroke-linejoin="round"/>
<path d="M1585.29 306.12L1594.83 286.328" stroke="#4E7060" stroke-linecap="round" stroke-linejoin="round"/>
<path d="M1667.04 221.295H1658.87C1658.12 221.295 1657.51 222.561 1657.51 224.122V388.117C1657.51 389.679 1658.12 390.945 1658.87 390.945H1667.04C1667.8 390.945 1668.41 389.679 1668.41 388.117V224.122C1668.41 222.561 1667.8 221.295 1667.04 221.295Z" stroke="#8A8078" stroke-linecap="round" stroke-linejoin="round"/>
<path d="M1688.84 249.57H1672.49C1671.74 249.57 1671.13 250.836 1671.13 252.398V388.118C1671.13 389.679 1671.74 390.945 1672.49 390.945H1688.84C1689.6 390.945 1690.21 389.679 1690.21 388.118V252.398C1690.21 250.836 1689.6 249.57 1688.84 249.57Z" stroke="#8A8078" stroke-linecap="round" stroke-linejoin="round"/>
<path d="M1692.93 396.6L1695.66 255.225H1702.47L1699.74 396.6H1692.93Z" stroke="#8A8078" stroke-width="0.8" stroke-linecap="round" stroke-linejoin="round"/>
<path d="M1218.78 413.565H1202.43C1201.68 413.565 1201.07 414.831 1201.07 416.393V586.042C1201.07 587.604 1201.68 588.87 1202.43 588.87H1218.78C1219.53 588.87 1220.14 587.604 1220.14 586.042V416.393C1220.14 414.831 1219.53 413.565 1218.78 413.565Z" stroke="#8A8078" stroke-linecap="round" stroke-linejoin="round"/>
<path d="M1222.87 594.525L1225.59 430.53H1235.13L1232.41 594.525H1222.87Z" stroke="#8A8078" stroke-linecap="round" stroke-linejoin="round"/>
<path d="M1244.67 470.115H1237.86C1237.1 470.115 1236.49 471.381 1236.49 472.942V586.042C1236.49 587.604 1237.1 588.87 1237.86 588.87H1244.67C1245.42 588.87 1246.03 587.604 1246.03 586.042V472.942C1246.03 471.381 1245.42 470.115 1244.67 470.115Z" stroke="#8A8078" stroke-width="0.8" stroke-linecap="round" stroke-linejoin="round"/>
<path d="M1269.19 504.045H1250.12C1249.37 504.045 1248.76 505.311 1248.76 506.873V586.043C1248.76 587.604 1249.37 588.87 1250.12 588.87H1269.19C1269.95 588.87 1270.56 587.604 1270.56 586.043V506.873C1270.56 505.311 1269.95 504.045 1269.19 504.045Z" stroke="#8A8078" stroke-linecap="round" stroke-linejoin="round"/>
<path d="M1273.28 594.525L1281.46 436.185H1289.63L1281.46 594.525H1273.28Z" stroke="#8A8078" stroke-linecap="round" stroke-linejoin="round"/>
<path d="M1375.47 543.63H1356.39C1355.64 543.63 1355.03 544.896 1355.03 546.458V586.043C1355.03 587.604 1355.64 588.87 1356.39 588.87H1375.47C1376.22 588.87 1376.83 587.604 1376.83 586.043V546.458C1376.83 544.896 1376.22 543.63 1375.47 543.63Z" stroke="#8A8078" stroke-linecap="round" stroke-linejoin="round"/>
<path d="M1365.93 543.63L1356.39 475.77" stroke="#4E7060" stroke-width="1.3" stroke-linecap="round" stroke-linejoin="round"/>
<path d="M1365.93 543.63L1375.47 470.115" stroke="#4E7060" stroke-width="1.3" stroke-linecap="round" stroke-linejoin="round"/>
<path d="M1365.93 543.63V458.805" stroke="#4E7060" stroke-width="1.3" stroke-linecap="round" stroke-linejoin="round"/>
<path d="M1365.93 509.7L1355.03 489.907" stroke="#4E7060" stroke-linecap="round" stroke-linejoin="round"/>
<path d="M1365.93 504.045L1376.83 487.08" stroke="#4E7060" stroke-linecap="round" stroke-linejoin="round"/>
<path d="M1532.16 419.22H1519.89C1519.14 419.22 1518.53 420.486 1518.53 422.047V586.042C1518.53 587.604 1519.14 588.87 1519.89 588.87H1532.16C1532.91 588.87 1533.52 587.604 1533.52 586.042V422.047C1533.52 420.486 1532.91 419.22 1532.16 419.22Z" stroke="#8A8078" stroke-linecap="round" stroke-linejoin="round"/>
<path d="M1544.42 439.013H1537.61C1536.85 439.013 1536.24 440.278 1536.24 441.84V586.043C1536.24 587.604 1536.85 588.87 1537.61 588.87H1544.42C1545.17 588.87 1545.78 587.604 1545.78 586.043V441.84C1545.78 440.278 1545.17 439.013 1544.42 439.013Z" stroke="#8A8078" stroke-width="0.8" stroke-linecap="round" stroke-linejoin="round"/>
<path d="M1573.03 413.565H1549.87C1549.12 413.565 1548.51 414.831 1548.51 416.393V586.042C1548.51 587.604 1549.12 588.87 1549.87 588.87H1573.03C1573.78 588.87 1574.39 587.604 1574.39 586.042V416.393C1574.39 414.831 1573.78 413.565 1573.03 413.565Z" fill="#4E7060" stroke="#3A5448" stroke-width="0.5" stroke-linecap="round" stroke-linejoin="round"/>
<path d="M1577.12 594.525L1581.21 436.185H1589.38L1585.29 594.525H1577.12Z" stroke="#8A8078" stroke-linecap="round" stroke-linejoin="round"/>
<path d="M1601.64 549.285H1593.47C1592.72 549.285 1592.11 550.551 1592.11 552.112V586.042C1592.11 587.604 1592.72 588.87 1593.47 588.87H1601.64C1602.4 588.87 1603.01 587.604 1603.01 586.042V552.112C1603.01 550.551 1602.4 549.285 1601.64 549.285Z" stroke="#8A8078" stroke-width="0.7" stroke-linecap="round" stroke-linejoin="round"/>
<path d="M1668.41 419.22H1658.87C1658.12 419.22 1657.51 420.486 1657.51 422.047V586.042C1657.51 587.604 1658.12 588.87 1658.87 588.87H1668.41C1669.16 588.87 1669.77 587.604 1669.77 586.042V422.047C1669.77 420.486 1669.16 419.22 1668.41 419.22Z" stroke="#8A8078" stroke-linecap="round" stroke-linejoin="round"/>
<path d="M1690.21 436.185H1673.86C1673.1 436.185 1672.49 437.451 1672.49 439.012V586.042C1672.49 587.604 1673.1 588.87 1673.86 588.87H1690.21C1690.96 588.87 1691.57 587.604 1691.57 586.042V439.012C1691.57 437.451 1690.96 436.185 1690.21 436.185Z" stroke="#8A8078" stroke-linecap="round" stroke-linejoin="round"/>
<path d="M1694.29 594.525L1697.02 447.495H1705.19L1702.47 594.525H1694.29Z" stroke="#8A8078" stroke-width="0.9" stroke-linecap="round" stroke-linejoin="round"/>
<path d="M1207.88 617.145H1202.43C1201.68 617.145 1201.07 618.411 1201.07 619.973V783.968C1201.07 785.529 1201.68 786.795 1202.43 786.795H1207.88C1208.63 786.795 1209.24 785.529 1209.24 783.968V619.973C1209.24 618.411 1208.63 617.145 1207.88 617.145Z" stroke="#8A8078" stroke-width="0.8" stroke-linecap="round" stroke-linejoin="round"/>
<path d="M1232.41 628.455H1213.33C1212.58 628.455 1211.97 629.721 1211.97 631.283V783.968C1211.97 785.529 1212.58 786.795 1213.33 786.795H1232.41C1233.16 786.795 1233.77 785.529 1233.77 783.968V631.283C1233.77 629.721 1233.16 628.455 1232.41 628.455Z" stroke="#8A8078" stroke-linecap="round" stroke-linejoin="round"/>
<path d="M1236.49 792.45L1240.58 622.8H1248.76L1244.67 792.45H1236.49Z" stroke="#8A8078" stroke-linecap="round" stroke-linejoin="round"/>
<path d="M1261.02 651.075H1252.84C1252.09 651.075 1251.48 652.341 1251.48 653.903V783.968C1251.48 785.529 1252.09 786.795 1252.84 786.795H1261.02C1261.77 786.795 1262.38 785.529 1262.38 783.968V653.903C1262.38 652.341 1261.77 651.075 1261.02 651.075Z" stroke="#8A8078" stroke-width="0.8" stroke-linecap="round" stroke-linejoin="round"/>
<path d="M1281.46 617.145H1266.47C1265.72 617.145 1265.11 618.411 1265.11 619.973V783.968C1265.11 785.529 1265.72 786.795 1266.47 786.795H1281.46C1282.21 786.795 1282.82 785.529 1282.82 783.968V619.973C1282.82 618.411 1282.21 617.145 1281.46 617.145Z" stroke="#8A8078" stroke-linecap="round" stroke-linejoin="round"/>
<path d="M1285.54 792.45L1289.63 673.695H1296.44L1292.36 792.45H1285.54Z" stroke="#8A8078" stroke-width="0.8" stroke-linecap="round" stroke-linejoin="round"/>
<path d="M1435.42 741.555H1413.62C1412.87 741.555 1412.26 742.821 1412.26 744.382V783.967C1412.26 785.529 1412.87 786.795 1413.62 786.795H1435.42C1436.17 786.795 1436.78 785.529 1436.78 783.967V744.382C1436.78 742.821 1436.17 741.555 1435.42 741.555Z" stroke="#8A8078" stroke-linecap="round" stroke-linejoin="round"/>
<path d="M1424.52 741.555L1414.98 668.04" stroke="#4E7060" stroke-width="1.3" stroke-linecap="round" stroke-linejoin="round"/>
<path d="M1424.52 741.555L1434.06 662.385" stroke="#4E7060" stroke-width="1.3" stroke-linecap="round" stroke-linejoin="round"/>
<path d="M1424.52 741.555V651.075" stroke="#4E7060" stroke-width="1.3" stroke-linecap="round" stroke-linejoin="round"/>
<path d="M1424.52 704.798L1413.62 685.005" stroke="#4E7060" stroke-linecap="round" stroke-linejoin="round"/>
<path d="M1424.52 699.142L1435.42 679.35" stroke="#4E7060" stroke-linecap="round" stroke-linejoin="round"/>
<path d="M1634.34 741.555H1617.99C1617.24 741.555 1616.63 742.821 1616.63 744.382V783.967C1616.63 785.529 1617.24 786.795 1617.99 786.795H1634.34C1635.1 786.795 1635.71 785.529 1635.71 783.967V744.382C1635.71 742.821 1635.1 741.555 1634.34 741.555Z" stroke="#8A8078" stroke-linecap="round" stroke-linejoin="round"/>
<path d="M1626.17 741.555L1617.99 679.35" stroke="#4E7060" stroke-width="1.3" stroke-linecap="round" stroke-linejoin="round"/>
<path d="M1626.17 741.555L1634.34 673.695" stroke="#4E7060" stroke-width="1.3" stroke-linecap="round" stroke-linejoin="round"/>
<path d="M1626.17 741.555V665.213" stroke="#4E7060" stroke-width="1.3" stroke-linecap="round" stroke-linejoin="round"/>
<path d="M1626.17 707.625L1616.63 690.66" stroke="#4E7060" stroke-linecap="round" stroke-linejoin="round"/>
<path d="M1626.17 701.97L1635.71 687.833" stroke="#4E7060" stroke-linecap="round" stroke-linejoin="round"/>
<path d="M1559.41 622.8H1549.87C1549.12 622.8 1548.51 624.066 1548.51 625.627V783.967C1548.51 785.529 1549.12 786.795 1549.87 786.795H1559.41C1560.16 786.795 1560.77 785.529 1560.77 783.967V625.627C1560.77 624.066 1560.16 622.8 1559.41 622.8Z" stroke="#8A8078" stroke-linecap="round" stroke-linejoin="round"/>
<path d="M1583.93 639.765H1564.86C1564.1 639.765 1563.49 641.031 1563.49 642.593V783.968C1563.49 785.529 1564.1 786.795 1564.86 786.795H1583.93C1584.68 786.795 1585.29 785.529 1585.29 783.968V642.593C1585.29 641.031 1584.68 639.765 1583.93 639.765Z" stroke="#8A8078" stroke-linecap="round" stroke-linejoin="round"/>
<path d="M1588.02 792.45L1592.11 634.11H1598.92L1594.83 792.45H1588.02Z" stroke="#8A8078" stroke-width="0.9" stroke-linecap="round" stroke-linejoin="round"/>
<path d="M1665.68 617.145H1658.87C1658.12 617.145 1657.51 618.411 1657.51 619.973V783.968C1657.51 785.529 1658.12 786.795 1658.87 786.795H1665.68C1666.43 786.795 1667.04 785.529 1667.04 783.968V619.973C1667.04 618.411 1666.43 617.145 1665.68 617.145Z" stroke="#8A8078" stroke-width="0.8" stroke-linecap="round" stroke-linejoin="round"/>
<path d="M1686.12 628.455H1671.13C1670.38 628.455 1669.77 629.721 1669.77 631.283V783.968C1669.77 785.529 1670.38 786.795 1671.13 786.795H1686.12C1686.87 786.795 1687.48 785.529 1687.48 783.968V631.283C1687.48 629.721 1686.87 628.455 1686.12 628.455Z" stroke="#8A8078" stroke-linecap="round" stroke-linejoin="round"/>
<path d="M1701.11 611.49H1691.57C1690.82 611.49 1690.21 612.756 1690.21 614.317V783.967C1690.21 785.529 1690.82 786.795 1691.57 786.795H1701.11C1701.86 786.795 1702.47 785.529 1702.47 783.967V614.317C1702.47 612.756 1701.86 611.49 1701.11 611.49Z" stroke="#8A8078" stroke-linecap="round" stroke-linejoin="round"/>
<path d="M1211.97 809.415H1202.43C1201.68 809.415 1201.07 810.681 1201.07 812.242V953.617C1201.07 955.179 1201.68 956.445 1202.43 956.445H1211.97C1212.72 956.445 1213.33 955.179 1213.33 953.617V812.242C1213.33 810.681 1212.72 809.415 1211.97 809.415Z" stroke="#8A8078" stroke-linecap="round" stroke-linejoin="round"/>
<path d="M1241.94 820.725H1217.42C1216.67 820.725 1216.06 821.991 1216.06 823.552V953.617C1216.06 955.179 1216.67 956.445 1217.42 956.445H1241.94C1242.7 956.445 1243.31 955.179 1243.31 953.617V823.552C1243.31 821.991 1242.7 820.725 1241.94 820.725Z" stroke="#8A8078" stroke-linecap="round" stroke-linejoin="round"/>
<path d="M1261.02 803.76H1247.39C1246.64 803.76 1246.03 805.026 1246.03 806.588V953.618C1246.03 955.179 1246.64 956.445 1247.39 956.445H1261.02C1261.77 956.445 1262.38 955.179 1262.38 953.618V806.588C1262.38 805.026 1261.77 803.76 1261.02 803.76Z" fill="#4E7060" stroke="#3A5448" stroke-width="0.5" stroke-linecap="round" stroke-linejoin="round"/>
<path d="M1265.11 956.445L1270.56 815.07H1278.73L1273.28 956.445H1265.11Z" stroke="#8A8078" stroke-linecap="round" stroke-linejoin="round"/>
<path d="M1288.27 877.275H1282.82C1282.07 877.275 1281.46 878.541 1281.46 880.103V953.618C1281.46 955.179 1282.07 956.445 1282.82 956.445H1288.27C1289.02 956.445 1289.63 955.179 1289.63 953.618V880.103C1289.63 878.541 1289.02 877.275 1288.27 877.275Z" stroke="#8A8078" stroke-width="0.7" stroke-linecap="round" stroke-linejoin="round"/>
<path d="M1337.32 741.555H1318.24C1317.49 741.555 1316.88 742.821 1316.88 744.382V783.967C1316.88 785.529 1317.49 786.795 1318.24 786.795H1337.32C1338.07 786.795 1338.68 785.529 1338.68 783.967V744.382C1338.68 742.821 1338.07 741.555 1337.32 741.555Z" stroke="#8A8078" stroke-linecap="round" stroke-linejoin="round"/>
<path d="M1327.78 741.555L1318.24 679.35" stroke="#4E7060" stroke-width="1.3" stroke-linecap="round" stroke-linejoin="round"/>
<path d="M1327.78 741.555L1337.32 673.695" stroke="#4E7060" stroke-width="1.3" stroke-linecap="round" stroke-linejoin="round"/>
<path d="M1327.78 741.555V665.213" stroke="#4E7060" stroke-width="1.3" stroke-linecap="round" stroke-linejoin="round"/>
<path d="M1327.78 707.625L1318.24 690.66" stroke="#4E7060" stroke-linecap="round" stroke-linejoin="round"/>
<path d="M1327.78 701.97L1337.32 687.833" stroke="#4E7060" stroke-linecap="round" stroke-linejoin="round"/>
<path d="M1499.46 815.07H1492.64C1491.89 815.07 1491.28 816.336 1491.28 817.898V953.618C1491.28 955.179 1491.89 956.445 1492.64 956.445H1499.46C1500.21 956.445 1500.82 955.179 1500.82 953.618V817.898C1500.82 816.336 1500.21 815.07 1499.46 815.07Z" stroke="#8A8078" stroke-width="0.8" stroke-linecap="round" stroke-linejoin="round"/>
<path d="M1526.71 803.76H1504.91C1504.15 803.76 1503.54 805.026 1503.54 806.588V953.618C1503.54 955.179 1504.15 956.445 1504.91 956.445H1526.71C1527.46 956.445 1528.07 955.179 1528.07 953.618V806.588C1528.07 805.026 1527.46 803.76 1526.71 803.76Z" stroke="#8A8078" stroke-linecap="round" stroke-linejoin="round"/>
<path d="M1530.79 956.445L1534.88 820.725H1543.06L1538.97 956.445H1530.79Z" stroke="#8A8078" stroke-linecap="round" stroke-linejoin="round"/>
<path d="M1555.32 837.69H1547.14C1546.39 837.69 1545.78 838.956 1545.78 840.518V953.618C1545.78 955.179 1546.39 956.445 1547.14 956.445H1555.32C1556.07 956.445 1556.68 955.179 1556.68 953.618V840.518C1556.68 838.956 1556.07 837.69 1555.32 837.69Z" stroke="#8A8078" stroke-width="0.8" stroke-linecap="round" stroke-linejoin="round"/>
<path d="M1675.22 809.415H1658.87C1658.12 809.415 1657.51 810.681 1657.51 812.242V953.617C1657.51 955.179 1658.12 956.445 1658.87 956.445H1675.22C1675.97 956.445 1676.58 955.179 1676.58 953.617V812.242C1676.58 810.681 1675.97 809.415 1675.22 809.415Z" stroke="#8A8078" stroke-linecap="round" stroke-linejoin="round"/>
<path d="M1679.31 956.445L1683.39 826.38H1690.21L1686.12 956.445H1679.31Z" stroke="#8A8078" stroke-width="0.9" stroke-linecap="round" stroke-linejoin="round"/>
<path d="M1703.83 820.725H1694.29C1693.54 820.725 1692.93 821.991 1692.93 823.552V953.617C1692.93 955.179 1693.54 956.445 1694.29 956.445H1703.83C1704.58 956.445 1705.19 955.179 1705.19 953.617V823.552C1705.19 821.991 1704.58 820.725 1703.83 820.725Z" stroke="#8A8078" stroke-linecap="round" stroke-linejoin="round"/>
<path d="M1175.55 174.875H536.712C534.93 174.875 533.485 177.147 533.485 179.95V1032.55C533.485 1035.35 534.93 1037.62 536.712 1037.62H1175.55C1177.33 1037.62 1178.78 1035.35 1178.78 1032.55V179.95C1178.78 177.147 1177.33 174.875 1175.55 174.875Z" stroke="#8A8078" stroke-width="1.5" stroke-linecap="round" stroke-linejoin="round"/>
<path d="M533.485 352.5H1178.78" stroke="#8A8078" stroke-width="1.2" stroke-linecap="round" stroke-linejoin="round"/>
<path d="M533.485 530.125H1178.78" stroke="#8A8078" stroke-width="1.2" stroke-linecap="round" stroke-linejoin="round"/>
<path d="M533.485 707.75H1178.78" stroke="#8A8078" stroke-width="1.2" stroke-linecap="round" stroke-linejoin="round"/>
<path d="M533.485 885.375H1178.78" stroke="#8A8078" stroke-width="1.2" stroke-linecap="round" stroke-linejoin="round"/>
<path d="M567.363 185.025H559.297C558.406 185.025 557.684 186.161 557.684 187.562V344.887C557.684 346.289 558.406 347.425 559.297 347.425H567.363C568.254 347.425 568.976 346.289 568.976 344.887V187.562C568.976 186.161 568.254 185.025 567.363 185.025Z" stroke="#8A8078" stroke-linecap="round" stroke-linejoin="round"/>
<path d="M599.628 225.625H573.816C572.925 225.625 572.203 226.761 572.203 228.163V344.888C572.203 346.289 572.925 347.425 573.816 347.425H599.628C600.519 347.425 601.241 346.289 601.241 344.888V228.163C601.241 226.761 600.519 225.625 599.628 225.625Z" stroke="#8A8078" stroke-linecap="round" stroke-linejoin="round"/>
<path d="M618.987 200.25H606.081C605.19 200.25 604.468 201.386 604.468 202.788V344.888C604.468 346.289 605.19 347.425 606.081 347.425H618.987C619.878 347.425 620.6 346.289 620.6 344.888V202.788C620.6 201.386 619.878 200.25 618.987 200.25Z" fill="#4E7060" stroke="#3A5448" stroke-width="0.5" stroke-linecap="round" stroke-linejoin="round"/>
<path d="M635.119 245.925H625.44C624.549 245.925 623.826 247.061 623.826 248.462V344.887C623.826 346.289 624.549 347.425 625.44 347.425H635.119C636.01 347.425 636.732 346.289 636.732 344.887V248.462C636.732 247.061 636.01 245.925 635.119 245.925Z" stroke="#8A8078" stroke-width="0.8" stroke-linecap="round" stroke-linejoin="round"/>
<path d="M641.572 352.5L646.412 215.475H659.318L654.478 352.5H641.572Z" stroke="#8A8078" stroke-linecap="round" stroke-linejoin="round"/>
<path d="M668.997 256.075H664.157C663.266 256.075 662.544 257.211 662.544 258.613V344.888C662.544 346.289 663.266 347.425 664.157 347.425H668.997C669.888 347.425 670.61 346.289 670.61 344.888V258.613C670.61 257.211 669.888 256.075 668.997 256.075Z" stroke="#8A8078" stroke-width="0.8" stroke-linecap="round" stroke-linejoin="round"/>
<path d="M775.471 352.5L780.31 205.325H796.443L791.603 352.5H775.471Z" stroke="#8A8078" stroke-linecap="round" stroke-linejoin="round"/>
<path d="M828.707 190.1H799.669C798.778 190.1 798.056 191.236 798.056 192.638V344.887C798.056 346.289 798.778 347.425 799.669 347.425H828.707C829.598 347.425 830.32 346.289 830.32 344.887V192.638C830.32 191.236 829.598 190.1 828.707 190.1Z" stroke="#8A8078" stroke-linecap="round" stroke-linejoin="round"/>
<path d="M849.679 210.4H835.16C834.269 210.4 833.547 211.536 833.547 212.937V344.887C833.547 346.289 834.269 347.425 835.16 347.425H849.679C850.57 347.425 851.293 346.289 851.293 344.887V212.937C851.293 211.536 850.57 210.4 849.679 210.4Z" fill="#4E7060" stroke="#3A5448" stroke-width="0.5" stroke-linecap="round" stroke-linejoin="round"/>
<path d="M864.198 251H856.132C855.241 251 854.519 252.136 854.519 253.537V344.887C854.519 346.289 855.241 347.425 856.132 347.425H864.198C865.089 347.425 865.812 346.289 865.812 344.887V253.537C865.812 252.136 865.089 251 864.198 251Z" stroke="#8A8078" stroke-width="0.8" stroke-linecap="round" stroke-linejoin="round"/>
<path d="M869.038 352.5L877.104 225.625H888.397L880.331 352.5H869.038Z" stroke="#8A8078" stroke-linecap="round" stroke-linejoin="round"/>
<path d="M1001.32 352.5L994.87 230.7H1007.78L1014.23 352.5H1001.32Z" stroke="#8A8078" stroke-linecap="round" stroke-linejoin="round"/>
<path d="M1014.23 352.5L1011 245.925H1023.91L1027.14 352.5H1014.23Z" stroke="#8A8078" stroke-width="0.8" stroke-linecap="round" stroke-linejoin="round"/>
<path d="M1125.54 306.825H1102.96C1102.07 306.825 1101.34 307.961 1101.34 309.363V344.888C1101.34 346.289 1102.07 347.425 1102.96 347.425H1125.54C1126.43 347.425 1127.16 346.289 1127.16 344.888V309.363C1127.16 307.961 1126.43 306.825 1125.54 306.825Z" stroke="#8A8078" stroke-linecap="round" stroke-linejoin="round"/>
<path d="M1114.25 306.825L1102.96 251" stroke="#4E7060" stroke-width="1.3" stroke-linecap="round" stroke-linejoin="round"/>
<path d="M1114.25 306.825L1125.54 243.388" stroke="#4E7060" stroke-width="1.3" stroke-linecap="round" stroke-linejoin="round"/>
<path d="M1114.25 306.825V233.238" stroke="#4E7060" stroke-width="1.3" stroke-linecap="round" stroke-linejoin="round"/>
<path d="M1114.25 276.375L1102.96 258.612" stroke="#4E7060" stroke-linecap="round" stroke-linejoin="round"/>
<path d="M1114.25 271.3L1125.54 256.075" stroke="#4E7060" stroke-linecap="round" stroke-linejoin="round"/>
<path d="M565.75 367.725H559.297C558.406 367.725 557.684 368.861 557.684 370.263V522.512C557.684 523.914 558.406 525.05 559.297 525.05H565.75C566.641 525.05 567.363 523.914 567.363 522.512V370.263C567.363 368.861 566.641 367.725 565.75 367.725Z" stroke="#8A8078" stroke-width="0.8" stroke-linecap="round" stroke-linejoin="round"/>
<path d="M596.401 388.025H572.203C571.312 388.025 570.59 389.161 570.59 390.563V522.513C570.59 523.914 571.312 525.05 572.203 525.05H596.401C597.292 525.05 598.015 523.914 598.015 522.513V390.563C598.015 389.161 597.292 388.025 596.401 388.025Z" stroke="#8A8078" stroke-linecap="round" stroke-linejoin="round"/>
<path d="M601.241 530.125L606.081 377.875H618.987L614.147 530.125H601.241Z" fill="#4E7060" stroke="#3A5448" stroke-width="0.5" stroke-linecap="round" stroke-linejoin="round"/>
<path d="M633.506 474.3H622.213C621.322 474.3 620.6 475.436 620.6 476.838V522.513C620.6 523.914 621.322 525.05 622.213 525.05H633.506C634.397 525.05 635.119 523.914 635.119 522.513V476.838C635.119 475.436 634.397 474.3 633.506 474.3Z" stroke="#8A8078" stroke-width="0.8" stroke-linecap="round" stroke-linejoin="round"/>
<path d="M654.478 372.8H639.959C639.068 372.8 638.346 373.936 638.346 375.338V522.512C638.346 523.914 639.068 525.05 639.959 525.05H654.478C655.369 525.05 656.091 523.914 656.091 522.512V375.338C656.091 373.936 655.369 372.8 654.478 372.8Z" stroke="#8A8078" stroke-linecap="round" stroke-linejoin="round"/>
<path d="M665.771 492.062H660.931C660.04 492.062 659.318 493.199 659.318 494.6V522.512C659.318 523.914 660.04 525.05 660.931 525.05H665.771C666.662 525.05 667.384 523.914 667.384 522.512V494.6C667.384 493.199 666.662 492.062 665.771 492.062Z" stroke="#8A8078" stroke-width="0.7" stroke-linecap="round" stroke-linejoin="round"/>
<path d="M817.415 484.45H785.15C784.259 484.45 783.537 485.586 783.537 486.987V522.512C783.537 523.914 784.259 525.05 785.15 525.05H817.415C818.306 525.05 819.028 523.914 819.028 522.512V486.987C819.028 485.586 818.306 484.45 817.415 484.45Z" stroke="#8A8078" stroke-linecap="round" stroke-linejoin="round"/>
<path d="M886.784 377.875H854.519C853.628 377.875 852.906 379.011 852.906 380.413V522.513C852.906 523.914 853.628 525.05 854.519 525.05H886.784C887.675 525.05 888.397 523.914 888.397 522.513V380.413C888.397 379.011 887.675 377.875 886.784 377.875Z" stroke="#8A8078" stroke-linecap="round" stroke-linejoin="round"/>
<path d="M891.623 530.125L896.463 382.95H906.143L901.303 530.125H891.623Z" stroke="#8A8078" stroke-linecap="round" stroke-linejoin="round"/>
<path d="M923.888 393.1H910.982C910.091 393.1 909.369 394.236 909.369 395.637V522.512C909.369 523.914 910.091 525.05 910.982 525.05H923.888C924.779 525.05 925.501 523.914 925.501 522.512V395.637C925.501 394.236 924.779 393.1 923.888 393.1Z" stroke="#8A8078" stroke-width="0.9" stroke-linecap="round" stroke-linejoin="round"/>
<path d="M1022.3 484.45H1002.94C1002.05 484.45 1001.32 485.586 1001.32 486.987V522.512C1001.32 523.914 1002.05 525.05 1002.94 525.05H1022.3C1023.19 525.05 1023.91 523.914 1023.91 522.512V486.987C1023.91 485.586 1023.19 484.45 1022.3 484.45Z" stroke="#8A8078" stroke-linecap="round" stroke-linejoin="round"/>
<path d="M1012.62 484.45L1002.94 423.55" stroke="#4E7060" stroke-width="1.3" stroke-linecap="round" stroke-linejoin="round"/>
<path d="M1012.62 484.45L1022.3 418.475" stroke="#4E7060" stroke-width="1.3" stroke-linecap="round" stroke-linejoin="round"/>
<path d="M1012.62 484.45V408.325" stroke="#4E7060" stroke-width="1.3" stroke-linecap="round" stroke-linejoin="round"/>
<path d="M1012.62 454L1001.32 436.238" stroke="#4E7060" stroke-linecap="round" stroke-linejoin="round"/>
<path d="M1012.62 448.925L1023.91 431.162" stroke="#4E7060" stroke-linecap="round" stroke-linejoin="round"/>
<path d="M1109.41 372.8H1099.73C1098.84 372.8 1098.12 373.936 1098.12 375.338V522.512C1098.12 523.914 1098.84 525.05 1099.73 525.05H1109.41C1110.3 525.05 1111.02 523.914 1111.02 522.512V375.338C1111.02 373.936 1110.3 372.8 1109.41 372.8Z" stroke="#8A8078" stroke-linecap="round" stroke-linejoin="round"/>
<path d="M1135.22 398.175H1115.86C1114.97 398.175 1114.25 399.311 1114.25 400.712V522.512C1114.25 523.914 1114.97 525.05 1115.86 525.05H1135.22C1136.11 525.05 1136.84 523.914 1136.84 522.512V400.712C1136.84 399.311 1136.11 398.175 1135.22 398.175Z" stroke="#8A8078" stroke-linecap="round" stroke-linejoin="round"/>
<path d="M1140.06 530.125L1143.29 403.25H1151.35L1148.13 530.125H1140.06Z" stroke="#8A8078" stroke-width="0.8" stroke-linecap="round" stroke-linejoin="round"/>
<path d="M578.656 545.35H559.297C558.406 545.35 557.684 546.486 557.684 547.887V700.137C557.684 701.539 558.406 702.675 559.297 702.675H578.656C579.547 702.675 580.269 701.539 580.269 700.137V547.887C580.269 546.486 579.547 545.35 578.656 545.35Z" stroke="#8A8078" stroke-linecap="round" stroke-linejoin="round"/>
<path d="M583.496 707.75L586.722 560.575H598.015L594.788 707.75H583.496Z" stroke="#8A8078" stroke-linecap="round" stroke-linejoin="round"/>
<path d="M609.307 596.1H601.241C600.35 596.1 599.628 597.236 599.628 598.638V700.138C599.628 701.539 600.35 702.675 601.241 702.675H609.307C610.198 702.675 610.921 701.539 610.921 700.138V598.638C610.921 597.236 610.198 596.1 609.307 596.1Z" stroke="#8A8078" stroke-width="0.8" stroke-linecap="round" stroke-linejoin="round"/>
<path d="M638.346 626.55H615.76C614.869 626.55 614.147 627.686 614.147 629.087V700.137C614.147 701.539 614.869 702.675 615.76 702.675H638.346C639.236 702.675 639.959 701.539 639.959 700.137V629.087C639.959 627.686 639.236 626.55 638.346 626.55Z" stroke="#8A8078" stroke-linecap="round" stroke-linejoin="round"/>
<path d="M643.185 707.75L652.865 565.65H662.544L652.865 707.75H643.185Z" stroke="#8A8078" stroke-linecap="round" stroke-linejoin="round"/>
<path d="M764.178 662.075H741.593C740.702 662.075 739.979 663.211 739.979 664.613V700.138C739.979 701.539 740.702 702.675 741.593 702.675H764.178C765.069 702.675 765.791 701.539 765.791 700.138V664.613C765.791 663.211 765.069 662.075 764.178 662.075Z" stroke="#8A8078" stroke-linecap="round" stroke-linejoin="round"/>
<path d="M752.885 662.075L741.593 601.175" stroke="#4E7060" stroke-width="1.3" stroke-linecap="round" stroke-linejoin="round"/>
<path d="M752.885 662.075L764.178 596.1" stroke="#4E7060" stroke-width="1.3" stroke-linecap="round" stroke-linejoin="round"/>
<path d="M752.885 662.075V585.95" stroke="#4E7060" stroke-width="1.3" stroke-linecap="round" stroke-linejoin="round"/>
<path d="M752.885 631.625L739.979 613.863" stroke="#4E7060" stroke-linecap="round" stroke-linejoin="round"/>
<path d="M752.885 626.55L765.791 611.325" stroke="#4E7060" stroke-linecap="round" stroke-linejoin="round"/>
<path d="M949.7 550.425H935.181C934.29 550.425 933.568 551.561 933.568 552.963V700.138C933.568 701.539 934.29 702.675 935.181 702.675H949.7C950.591 702.675 951.313 701.539 951.313 700.138V552.963C951.313 551.561 950.591 550.425 949.7 550.425Z" stroke="#8A8078" stroke-linecap="round" stroke-linejoin="round"/>
<path d="M964.219 568.188H956.153C955.262 568.188 954.54 569.324 954.54 570.725V700.137C954.54 701.539 955.262 702.675 956.153 702.675H964.219C965.11 702.675 965.832 701.539 965.832 700.137V570.725C965.832 569.324 965.11 568.188 964.219 568.188Z" stroke="#8A8078" stroke-width="0.8" stroke-linecap="round" stroke-linejoin="round"/>
<path d="M998.097 545.35H970.672C969.781 545.35 969.059 546.486 969.059 547.887V700.137C969.059 701.539 969.781 702.675 970.672 702.675H998.097C998.988 702.675 999.71 701.539 999.71 700.137V547.887C999.71 546.486 998.988 545.35 998.097 545.35Z" fill="#4E7060" stroke="#3A5448" stroke-width="0.5" stroke-linecap="round" stroke-linejoin="round"/>
<path d="M1002.94 707.75L1007.78 565.65H1017.46L1012.62 707.75H1002.94Z" stroke="#8A8078" stroke-linecap="round" stroke-linejoin="round"/>
<path d="M1031.97 667.15H1022.3C1021.4 667.15 1020.68 668.286 1020.68 669.687V700.137C1020.68 701.539 1021.4 702.675 1022.3 702.675H1031.97C1032.87 702.675 1033.59 701.539 1033.59 700.137V669.687C1033.59 668.286 1032.87 667.15 1031.97 667.15Z" stroke="#8A8078" stroke-width="0.7" stroke-linecap="round" stroke-linejoin="round"/>
<path d="M1111.02 550.425H1099.73C1098.84 550.425 1098.12 551.561 1098.12 552.963V700.138C1098.12 701.539 1098.84 702.675 1099.73 702.675H1111.02C1111.91 702.675 1112.64 701.539 1112.64 700.138V552.963C1112.64 551.561 1111.91 550.425 1111.02 550.425Z" stroke="#8A8078" stroke-linecap="round" stroke-linejoin="round"/>
<path d="M1136.84 565.65H1117.48C1116.59 565.65 1115.86 566.786 1115.86 568.188V700.138C1115.86 701.539 1116.59 702.675 1117.48 702.675H1136.84C1137.73 702.675 1138.45 701.539 1138.45 700.138V568.188C1138.45 566.786 1137.73 565.65 1136.84 565.65Z" stroke="#8A8078" stroke-linecap="round" stroke-linejoin="round"/>
<path d="M1141.67 707.75L1144.9 575.8H1154.58L1151.35 707.75H1141.67Z" stroke="#8A8078" stroke-width="0.9" stroke-linecap="round" stroke-linejoin="round"/>
<path d="M565.75 728.05H559.297C558.406 728.05 557.684 729.186 557.684 730.587V877.762C557.684 879.164 558.406 880.3 559.297 880.3H565.75C566.641 880.3 567.363 879.164 567.363 877.762V730.587C567.363 729.186 566.641 728.05 565.75 728.05Z" stroke="#8A8078" stroke-width="0.8" stroke-linecap="round" stroke-linejoin="round"/>
<path d="M594.788 738.2H572.203C571.312 738.2 570.59 739.336 570.59 740.737V877.762C570.59 879.164 571.312 880.3 572.203 880.3H594.788C595.679 880.3 596.401 879.164 596.401 877.762V740.737C596.401 739.336 595.679 738.2 594.788 738.2Z" stroke="#8A8078" stroke-linecap="round" stroke-linejoin="round"/>
<path d="M599.628 885.375L604.468 733.125H614.147L609.307 885.375H599.628Z" stroke="#8A8078" stroke-linecap="round" stroke-linejoin="round"/>
<path d="M628.666 758.5H618.987C618.096 758.5 617.373 759.636 617.373 761.038V877.763C617.373 879.164 618.096 880.3 618.987 880.3H628.666C629.557 880.3 630.279 879.164 630.279 877.763V761.038C630.279 759.636 629.557 758.5 628.666 758.5Z" stroke="#8A8078" stroke-width="0.8" stroke-linecap="round" stroke-linejoin="round"/>
<path d="M652.865 728.05H635.119C634.228 728.05 633.506 729.186 633.506 730.587V877.762C633.506 879.164 634.228 880.3 635.119 880.3H652.865C653.756 880.3 654.478 879.164 654.478 877.762V730.587C654.478 729.186 653.756 728.05 652.865 728.05Z" stroke="#8A8078" stroke-linecap="round" stroke-linejoin="round"/>
<path d="M657.704 885.375L662.544 778.8H670.61L665.771 885.375H657.704Z" stroke="#8A8078" stroke-width="0.8" stroke-linecap="round" stroke-linejoin="round"/>
<path d="M835.16 839.7H809.348C808.457 839.7 807.735 840.836 807.735 842.238V877.763C807.735 879.164 808.457 880.3 809.348 880.3H835.16C836.051 880.3 836.773 879.164 836.773 877.763V842.238C836.773 840.836 836.051 839.7 835.16 839.7Z" stroke="#8A8078" stroke-linecap="round" stroke-linejoin="round"/>
<path d="M822.254 839.7L810.962 773.725" stroke="#4E7060" stroke-width="1.3" stroke-linecap="round" stroke-linejoin="round"/>
<path d="M822.254 839.7L833.547 768.65" stroke="#4E7060" stroke-width="1.3" stroke-linecap="round" stroke-linejoin="round"/>
<path d="M822.254 839.7V758.5" stroke="#4E7060" stroke-width="1.3" stroke-linecap="round" stroke-linejoin="round"/>
<path d="M822.254 806.713L809.349 788.95" stroke="#4E7060" stroke-linecap="round" stroke-linejoin="round"/>
<path d="M822.254 801.637L835.16 783.875" stroke="#4E7060" stroke-linecap="round" stroke-linejoin="round"/>
<path d="M1070.69 839.7H1051.33C1050.44 839.7 1049.72 840.836 1049.72 842.238V877.763C1049.72 879.164 1050.44 880.3 1051.33 880.3H1070.69C1071.58 880.3 1072.31 879.164 1072.31 877.763V842.238C1072.31 840.836 1071.58 839.7 1070.69 839.7Z" stroke="#8A8078" stroke-linecap="round" stroke-linejoin="round"/>
<path d="M1061.01 839.7L1051.33 783.875" stroke="#4E7060" stroke-width="1.3" stroke-linecap="round" stroke-linejoin="round"/>
<path d="M1061.01 839.7L1070.69 778.8" stroke="#4E7060" stroke-width="1.3" stroke-linecap="round" stroke-linejoin="round"/>
<path d="M1061.01 839.7V771.188" stroke="#4E7060" stroke-width="1.3" stroke-linecap="round" stroke-linejoin="round"/>
<path d="M1061.01 809.25L1049.72 794.025" stroke="#4E7060" stroke-linecap="round" stroke-linejoin="round"/>
<path d="M1061.01 804.175L1072.31 791.487" stroke="#4E7060" stroke-linecap="round" stroke-linejoin="round"/>
<path d="M981.965 733.125H970.672C969.781 733.125 969.059 734.261 969.059 735.663V877.763C969.059 879.164 969.781 880.3 970.672 880.3H981.965C982.856 880.3 983.578 879.164 983.578 877.763V735.663C983.578 734.261 982.856 733.125 981.965 733.125Z" stroke="#8A8078" stroke-linecap="round" stroke-linejoin="round"/>
<path d="M1011 748.35H988.418C987.527 748.35 986.804 749.486 986.804 750.887V877.762C986.804 879.164 987.527 880.3 988.418 880.3H1011C1011.89 880.3 1012.62 879.164 1012.62 877.762V750.887C1012.62 749.486 1011.89 748.35 1011 748.35Z" stroke="#8A8078" stroke-linecap="round" stroke-linejoin="round"/>
<path d="M1015.84 885.375L1020.68 743.275H1028.75L1023.91 885.375H1015.84Z" stroke="#8A8078" stroke-width="0.9" stroke-linecap="round" stroke-linejoin="round"/>
<path d="M1107.8 728.05H1099.73C1098.84 728.05 1098.12 729.186 1098.12 730.587V877.762C1098.12 879.164 1098.84 880.3 1099.73 880.3H1107.8C1108.69 880.3 1109.41 879.164 1109.41 877.762V730.587C1109.41 729.186 1108.69 728.05 1107.8 728.05Z" stroke="#8A8078" stroke-width="0.8" stroke-linecap="round" stroke-linejoin="round"/>
<path d="M1132 738.2H1114.25C1113.36 738.2 1112.64 739.336 1112.64 740.737V877.762C1112.64 879.164 1113.36 880.3 1114.25 880.3H1132C1132.89 880.3 1133.61 879.164 1133.61 877.762V740.737C1133.61 739.336 1132.89 738.2 1132 738.2Z" stroke="#8A8078" stroke-linecap="round" stroke-linejoin="round"/>
<path d="M1149.74 722.975H1138.45C1137.56 722.975 1136.84 724.111 1136.84 725.512V877.762C1136.84 879.164 1137.56 880.3 1138.45 880.3H1149.74C1150.63 880.3 1151.35 879.164 1151.35 877.762V725.512C1151.35 724.111 1150.63 722.975 1149.74 722.975Z" stroke="#8A8078" stroke-linecap="round" stroke-linejoin="round"/>
<path d="M570.59 900.6H559.297C558.406 900.6 557.684 901.736 557.684 903.138V1030.01C557.684 1031.41 558.406 1032.55 559.297 1032.55H570.59C571.481 1032.55 572.203 1031.41 572.203 1030.01V903.138C572.203 901.736 571.481 900.6 570.59 900.6Z" stroke="#8A8078" stroke-linecap="round" stroke-linejoin="round"/>
<path d="M606.081 910.75H577.043C576.152 910.75 575.429 911.886 575.429 913.287V1030.01C575.429 1031.41 576.152 1032.55 577.043 1032.55H606.081C606.972 1032.55 607.694 1031.41 607.694 1030.01V913.287C607.694 911.886 606.972 910.75 606.081 910.75Z" stroke="#8A8078" stroke-linecap="round" stroke-linejoin="round"/>
<path d="M628.666 895.525H612.534C611.643 895.525 610.921 896.661 610.921 898.063V1030.01C610.921 1031.41 611.643 1032.55 612.534 1032.55H628.666C629.557 1032.55 630.279 1031.41 630.279 1030.01V898.063C630.279 896.661 629.557 895.525 628.666 895.525Z" fill="#4E7060" stroke="#3A5448" stroke-width="0.5" stroke-linecap="round" stroke-linejoin="round"/>
<path d="M633.506 1032.55L639.959 905.675H649.638L643.185 1032.55H633.506Z" stroke="#8A8078" stroke-linecap="round" stroke-linejoin="round"/>
<path d="M719.007 839.7H696.422C695.531 839.7 694.809 840.836 694.809 842.238V877.763C694.809 879.164 695.531 880.3 696.422 880.3H719.007C719.898 880.3 720.621 879.164 720.621 877.763V842.238C720.621 840.836 719.898 839.7 719.007 839.7Z" stroke="#8A8078" stroke-linecap="round" stroke-linejoin="round"/>
<path d="M707.715 839.7L696.422 783.875" stroke="#4E7060" stroke-width="1.3" stroke-linecap="round" stroke-linejoin="round"/>
<path d="M707.715 839.7L719.007 778.8" stroke="#4E7060" stroke-width="1.3" stroke-linecap="round" stroke-linejoin="round"/>
<path d="M707.715 839.7V771.188" stroke="#4E7060" stroke-width="1.3" stroke-linecap="round" stroke-linejoin="round"/>
<path d="M707.715 809.25L696.422 794.025" stroke="#4E7060" stroke-linecap="round" stroke-linejoin="round"/>
<path d="M707.715 804.175L719.007 791.487" stroke="#4E7060" stroke-linecap="round" stroke-linejoin="round"/>
<path d="M910.982 905.675H902.916C902.025 905.675 901.303 906.811 901.303 908.213V1030.01C901.303 1031.41 902.025 1032.55 902.916 1032.55H910.982C911.873 1032.55 912.596 1031.41 912.596 1030.01V908.213C912.596 906.811 911.873 905.675 910.982 905.675Z" stroke="#8A8078" stroke-width="0.8" stroke-linecap="round" stroke-linejoin="round"/>
<path d="M943.247 895.525H917.435C916.544 895.525 915.822 896.661 915.822 898.063V1030.01C915.822 1031.41 916.544 1032.55 917.435 1032.55H943.247C944.138 1032.55 944.86 1031.41 944.86 1030.01V898.063C944.86 896.661 944.138 895.525 943.247 895.525Z" stroke="#8A8078" stroke-linecap="round" stroke-linejoin="round"/>
<path d="M948.087 1032.55L952.926 910.75H962.606L957.766 1032.55H948.087Z" stroke="#8A8078" stroke-linecap="round" stroke-linejoin="round"/>
<path d="M977.125 925.975H967.446C966.555 925.975 965.832 927.111 965.832 928.513V1030.01C965.832 1031.41 966.555 1032.55 967.446 1032.55H977.125C978.016 1032.55 978.738 1031.41 978.738 1030.01V928.513C978.738 927.111 978.016 925.975 977.125 925.975Z" stroke="#8A8078" stroke-width="0.8" stroke-linecap="round" stroke-linejoin="round"/>
<path d="M1119.09 900.6H1099.73C1098.84 900.6 1098.12 901.736 1098.12 903.138V1030.01C1098.12 1031.41 1098.84 1032.55 1099.73 1032.55H1119.09C1119.98 1032.55 1120.7 1031.41 1120.7 1030.01V903.138C1120.7 901.736 1119.98 900.6 1119.09 900.6Z" stroke="#8A8078" stroke-linecap="round" stroke-linejoin="round"/>
<path d="M1123.93 1032.55L1128.77 915.825H1136.84L1132 1032.55H1123.93Z" stroke="#8A8078" stroke-width="0.9" stroke-linecap="round" stroke-linejoin="round"/>
<path d="M1152.97 910.75H1141.68C1140.78 910.75 1140.06 911.886 1140.06 913.287V1030.01C1140.06 1031.41 1140.78 1032.55 1141.68 1032.55H1152.97C1153.86 1032.55 1154.58 1031.41 1154.58 1030.01V913.287C1154.58 911.886 1153.86 910.75 1152.97 910.75Z" stroke="#8A8078" stroke-linecap="round" stroke-linejoin="round"/>
</svg>
