<?xml version="1.0" encoding="UTF-8"?>
<svg version="1.1" xmlns="http://www.w3.org/2000/svg" width="1386" height="326">
<path d="M0 0 C18.84309319 15.72381608 31.30580634 38.19696459 33.67382812 62.73828125 C36.90162564 105.97449331 16.0969176 144.09443436 -10.15185547 177.07324219 C-10.69422852 177.75837891 -11.23660156 178.44351563 -11.79541016 179.14941406 C-22.14863337 192.16113948 -33.29186018 204.3604562 -45.15185547 216.01074219 C-49.59940576 220.39845997 -53.49168457 225.01396159 -57.15185547 230.07324219 C-51.79488249 230.71509148 -47.7932483 229.77966432 -43.51123047 226.51074219 C-38.9739363 222.74522533 -34.53282564 218.98177399 -31.06591797 214.19042969 C-29.15185547 212.07324219 -29.15185547 212.07324219 -26.69873047 211.62792969 C-14.00439075 213.08175072 -0.73586307 216.65227134 9.84814453 224.07324219 C12.40895104 227.91445195 12.60707162 229.51967967 11.84814453 234.07324219 C4.31205546 244.74180201 -12.29753444 247.0284529 -24.34716797 249.29199219 C-31.94552849 250.59612081 -39.45284404 250.96216192 -47.15185547 251.07324219 C-48.3787207 251.09370605 -49.60558594 251.11416992 -50.86962891 251.13525391 C-66.72151827 251.37620004 -82.44678416 251.52875822 -98.15185547 249.07324219 C-99.24626953 248.92886719 -100.34068359 248.78449219 -101.46826172 248.63574219 C-112.71157026 247.02750393 -125.17038919 244.06297385 -132.86669922 235.06933594 C-134.72491008 232.18317865 -134.70135521 230.4389281 -134.15185547 227.07324219 C-127.17596583 217.10768557 -112.59850675 214.43846159 -101.40185547 212.38574219 C-100.32935547 212.28261719 -99.25685547 212.17949219 -98.15185547 212.07324219 C-96.26466797 211.67105469 -96.26466797 211.67105469 -94.33935547 211.26074219 C-92.34326172 211.24511719 -92.34326172 211.24511719 -90.15185547 212.07324219 C-87.21549033 214.98804811 -84.7281331 218.0452041 -82.25341797 221.35058594 C-80.43685346 224.11190047 -80.43685346 224.11190047 -78.15185547 225.07324219 C-78.15185547 225.73324219 -78.15185547 226.39324219 -78.15185547 227.07324219 C-73.35313446 229.31264532 -68.323297 230.12932859 -63.15185547 231.07324219 C-72.64474527 220.40001953 -82.26707877 209.82960796 -92.46435547 199.82324219 C-97.79853328 194.56213531 -102.53492477 188.96870754 -107.15185547 183.07324219 C-108.06901982 181.92286082 -108.98702936 180.77315293 -109.90576172 179.62402344 C-136.69392717 146.00517279 -160.24392981 105.38824151 -155.52685547 60.88574219 C-152.64089502 41.53985557 -144.22024135 23.63593415 -131.15185547 9.07324219 C-130.36101562 8.16058594 -130.36101562 8.16058594 -129.55419922 7.22949219 C-118.45209848 -4.77277889 -102.4118477 -12.78539842 -87.15185547 -17.92675781 C-85.76546875 -18.41015625 -85.76546875 -18.41015625 -84.35107422 -18.90332031 C-55.67922726 -27.2061285 -22.87873478 -18.30034518 0 0 Z M-97.15185547 30.07324219 C-102.09011679 35.72963487 -105.52168436 42.06826385 -108.15185547 49.07324219 C-108.56435547 50.16636719 -108.97685547 51.25949219 -109.40185547 52.38574219 C-112.31456152 66.70654692 -108.32455131 79.67045563 -101.15185547 92.07324219 C-99.69433247 94.36656206 -99.69433247 94.36656206 -98.15185547 96.07324219 C-97.49185547 96.07324219 -96.83185547 96.07324219 -96.15185547 96.07324219 C-95.82185547 97.06324219 -95.49185547 98.05324219 -95.15185547 99.07324219 C-81.25095785 109.77196875 -68.21511623 112.0893605 -51.15185547 111.07324219 C-39.58939128 109.36350438 -28.19342837 101.74472119 -21.20654297 92.49902344 C-13.17730557 80.45516734 -10.49862111 67.53500994 -12.77685547 53.19824219 C-14.41905718 45.73154089 -18.11311033 37.86711262 -23.15185547 32.07324219 C-23.81185547 32.07324219 -24.47185547 32.07324219 -25.15185547 32.07324219 C-25.41095703 31.47382812 -25.67005859 30.87441406 -25.93701172 30.25683594 C-29.79176833 23.32818982 -39.03677827 19.64203709 -46.15185547 17.07324219 C-65.14814159 12.07830592 -82.63193706 17.00736356 -97.15185547 30.07324219 Z " fill="#222222" transform="translate(536.15185546875,74.9267578125)"/>
<path d="M0 0 C1.15764107 0.00371613 1.15764107 0.00371613 2.33866882 0.00750732 C3.15218307 0.00239639 3.96569733 -0.00271454 4.80386353 -0.00798035 C7.51182815 -0.02194803 10.21953945 -0.02091066 12.92753601 -0.01861572 C14.82253615 -0.02250597 16.71753542 -0.02684132 18.61253357 -0.03160095 C22.6041189 -0.0390837 26.5956159 -0.03876232 30.58720398 -0.0335083 C35.63860533 -0.0277878 40.68963107 -0.04445158 45.74097061 -0.06785297 C49.6690524 -0.08280226 53.5970489 -0.08343244 57.52515411 -0.08034325 C59.38258848 -0.08084849 61.24002869 -0.08593178 63.097435 -0.09615517 C80.24937592 -0.17878623 97.84755254 0.9359468 114.34941101 5.96966553 C115.20325378 6.22240234 116.05709656 6.47513916 116.93681335 6.73553467 C125.28028874 9.32641973 132.90484416 12.95607764 140.47441101 17.28216553 C141.9632782 18.11361084 141.9632782 18.11361084 143.48222351 18.96185303 C151.01398023 23.44657426 157.26631742 29.16126427 163.47441101 35.28216553 C164.20659851 36.0014624 164.93878601 36.72075928 165.69316101 37.46185303 C185.02920931 57.79539588 190.82842786 84.81319944 190.84941101 111.96966553 C190.85240204 112.99989334 190.85240204 112.99989334 190.85545349 114.05093384 C190.85282517 122.03540569 190.41724099 129.53027389 188.47441101 137.28216553 C188.2514032 138.30825928 188.02839539 139.33435303 187.79862976 140.39154053 C187.07982112 143.37261193 186.2957174 146.327643 185.47441101 149.28216553 C185.03741882 150.869646 185.03741882 150.869646 184.59159851 152.48919678 C176.7065565 177.57531192 157.94548785 196.61589246 134.97782898 208.60418701 C112.28492176 220.0496854 87.66581413 221.44463319 62.74784851 221.41497803 C60.74814339 221.4156525 58.74843836 221.41662372 56.74873352 221.4178772 C52.58160106 221.41934401 48.41449017 221.41723016 44.24736023 221.41253662 C38.89496866 221.40680272 33.54262684 221.4101477 28.19023705 221.41610909 C24.07260254 221.41971064 19.95497998 221.41857864 15.83734512 221.41598129 C13.8620821 221.41531281 11.88681801 221.41613771 9.91155624 221.41846085 C7.16603937 221.42098469 4.42060526 221.41715232 1.6750946 221.41156006 C0.44406006 221.41459641 0.44406006 221.41459641 -0.81184387 221.41769409 C-6.41131858 221.39643593 -6.41131858 221.39643593 -7.52558899 220.28216553 C-7.62793536 217.47989258 -7.66444487 214.70211718 -7.65930176 211.89924622 C-7.66156731 211.00958851 -7.66383287 210.1199308 -7.66616708 209.20331377 C-7.67253756 206.19841616 -7.67167578 203.19356331 -7.67085266 200.18865967 C-7.67384225 198.04400066 -7.67724431 195.8993422 -7.68103027 193.75468445 C-7.6898947 187.91181764 -7.6922094 182.06896546 -7.69284606 176.22609258 C-7.69379307 171.35747129 -7.69746894 166.48885345 -7.70101815 161.62023348 C-7.70917194 150.1391342 -7.71160154 138.65804276 -7.71089172 127.17694092 C-7.71029063 115.31234721 -7.72084673 103.44779893 -7.73663539 91.58321673 C-7.749687 81.41509443 -7.75507663 71.24698702 -7.75443631 61.07885641 C-7.75418063 54.99781191 -7.75707029 48.91680775 -7.76761436 42.83577156 C-7.77725548 37.11902293 -7.77740209 31.40235352 -7.77009773 25.68560219 C-7.76904691 23.58205297 -7.77144397 21.47849892 -7.77745819 19.37495804 C-7.78511124 16.51389994 -7.78057808 13.65312007 -7.77282715 10.79206848 C-7.77797071 9.95034956 -7.78311427 9.10863063 -7.7884137 8.24140507 C-7.74780719 1.50650293 -6.82744608 0.068808 0 0 Z M42.47441101 46.28216553 C42.31929575 59.68827587 42.17114354 73.09444441 42.03144741 86.50072479 C41.96634455 92.72836977 41.89900276 98.95597241 41.82621765 105.18353271 C41.75582884 111.21357779 41.69174737 117.24366221 41.63171577 123.27381897 C41.60797106 125.55386208 41.5820994 127.83388426 41.55387688 130.11387634 C41.36483037 145.5381816 41.67141142 160.8768238 42.47441101 176.28216553 C48.32359662 176.35475831 54.17248218 176.41119659 60.02201843 176.44696045 C62.00514115 176.4618953 63.98823174 176.4822506 65.97123718 176.50848389 C87.08593599 176.7804843 105.4015493 174.92159555 122.16191101 160.55950928 C130.51982668 152.32865652 135.36079957 143.54868724 138.47441101 132.28216553 C138.65987488 131.62587158 138.84533875 130.96957764 139.03642273 130.293396 C140.69906941 123.79154915 140.77243534 117.46555154 140.72441101 110.78216553 C140.73214539 109.70579834 140.73987976 108.62943115 140.74784851 107.52044678 C140.70744114 90.93322144 135.35641574 75.52853817 124.09941101 63.15716553 C110.25968922 49.9019267 91.3864474 46.06900518 72.84550476 46.18450928 C71.53284386 46.1866317 71.53284386 46.1866317 70.19366455 46.188797 C67.43304339 46.19433834 64.67250714 46.20687941 61.91191101 46.21966553 C60.02584448 46.22468813 58.13977667 46.22924969 56.25370789 46.2333374 C51.66057684 46.24428846 47.06750826 46.26151168 42.47441101 46.28216553 Z " fill="#82A28B" transform="translate(718.5255889892578,2.71783447265625)"/>
<path d="M0 0 C0.68669769 0.00215515 1.37339539 0.0043103 2.0809021 0.00653076 C12.30542618 0.0580487 21.92256863 0.48067583 31.8125 3.3125 C32.85905762 3.60253906 32.85905762 3.60253906 33.92675781 3.8984375 C50.13813994 8.48376077 64.56812541 15.91460733 77.8125 26.3125 C79.14392564 27.31503855 80.47660321 28.31592711 81.8125 29.3125 C80.23733983 37.90609535 72.8795569 45.71770021 67.8125 52.5859375 C64.73866127 56.77644421 61.77583001 61.04345271 58.8125 65.3125 C54.14906198 64.7885182 50.96118293 62.65860194 47.1875 60.0625 C38.22553021 54.11372793 29.19079408 50.14780715 18.8125 47.3125 C17.61625 46.94125 16.42 46.57 15.1875 46.1875 C2.01775528 42.77312174 -11.91097835 43.31398942 -24.1875 49.3125 C-29.28063003 52.34670513 -30.57328546 55.86589855 -32.1875 61.3125 C-32.496875 62.116875 -32.80625 62.92125 -33.125 63.75 C-33.23263533 68.16304848 -31.58585825 71.66166577 -29.1875 75.3125 C-26.77967793 77.60229158 -24.19506243 78.93261675 -21.1875 80.3125 C-20.31738281 80.71984375 -19.44726562 81.1271875 -18.55078125 81.546875 C-10.88349481 84.79419632 -3.09803922 86.54803672 5.01416016 88.296875 C15.81183328 90.66589216 26.30064185 93.91406752 36.8125 97.3125 C37.52970215 97.539375 38.2469043 97.76625 38.98583984 98 C55.657631 103.30711084 73.68333691 113.69813908 82.8125 129.3125 C90.31944853 145.07316156 91.55454124 164.617137 86 181.2421875 C81.34887453 193.26779481 74.2474083 203.53791997 63.8125 211.3125 C62.88630859 212.04533203 62.88630859 212.04533203 61.94140625 212.79296875 C39.85570917 229.03367984 6.89885478 230.13103829 -19.2890625 226.62890625 C-24.32817485 225.7942602 -29.25838113 224.64409173 -34.1875 223.3125 C-34.99960937 223.09819336 -35.81171875 222.88388672 -36.6484375 222.66308594 C-57.38119333 217.046602 -74.68946777 207.03652681 -91.1875 193.3125 C-87.01177445 184.77949562 -80.82816838 177.71836633 -74.80859375 170.43359375 C-70.05051659 164.75267616 -70.05051659 164.75267616 -65.8125 158.6875 C-64.1875 156.3125 -64.1875 156.3125 -61.1875 155.3125 C-60.81882812 155.76238281 -60.45015625 156.21226562 -60.0703125 156.67578125 C-50.24057805 167.57586457 -36.02595782 174.89318194 -22.1875 179.3125 C-21.30707031 179.61671875 -20.42664063 179.9209375 -19.51953125 180.234375 C-14.42141703 181.91003425 -9.57278246 182.74575655 -4.21875 183.1015625 C-2.1875 183.3125 -2.1875 183.3125 -0.1875 184.3125 C1.33095202 184.40722912 2.85360384 184.4423841 4.375 184.4375 C5.18066406 184.44007813 5.98632812 184.44265625 6.81640625 184.4453125 C8.81192021 184.53261391 8.81192021 184.53261391 9.8125 183.3125 C11.82934039 183.01337977 13.85131183 182.74860463 15.875 182.5 C24.90582049 181.12810487 30.62999001 178.64196438 36.4609375 171.453125 C39.35714555 166.86606717 39.17487539 162.40140179 38.3125 157.1875 C36.8407134 152.36645542 34.12730183 149.79720644 29.8125 147.3125 C25.22134606 145.3875214 20.55610074 143.8156387 15.8125 142.3125 C14.35263672 141.80396484 14.35263672 141.80396484 12.86328125 141.28515625 C9.30385715 140.15033346 5.70434464 139.31571882 2.0625 138.5 C-7.1056065 136.39201939 -16.14958839 133.9174065 -25.1875 131.3125 C-26.38761719 130.9721875 -27.58773437 130.631875 -28.82421875 130.28125 C-35.93217168 128.1951289 -42.55707687 125.61323466 -49.1875 122.3125 C-50.10402344 121.87164062 -51.02054688 121.43078125 -51.96484375 120.9765625 C-66.69992704 113.49535612 -76.12379562 102.28973396 -81.375 86.8125 C-85.60979715 68.57029691 -83.39252974 49.64386291 -74.1875 33.3125 C-71.782313 29.72422101 -69.31650236 26.30483329 -66.1875 23.3125 C-65.5275 23.3125 -64.8675 23.3125 -64.1875 23.3125 C-63.8575 22.3225 -63.5275 21.3325 -63.1875 20.3125 C-45.28380399 5.32136698 -22.90389013 -0.12918779 0 0 Z " fill="#242424" transform="translate(91.1875,-0.3125)"/>
<path d="M0 0 C18.47321028 13.72605639 29.5666963 32.55452047 33.00830078 55.27490234 C35.83221697 78.80753721 31.46946828 101.49257366 17.66015625 120.9765625 C17.00273437 121.90597656 16.3453125 122.83539063 15.66796875 123.79296875 C5.66031395 136.97154714 -9.87266649 146.14748641 -26.0546875 149.546875 C-30.10955774 150.07723853 -34.0678999 150.12711156 -38.15234375 150.1015625 C-39.35600586 150.09431152 -39.35600586 150.09431152 -40.58398438 150.08691406 C-50.1924549 149.98918755 -57.50583305 148.9763263 -66.33984375 144.9765625 C-67.00757813 144.70070312 -67.6753125 144.42484375 -68.36328125 144.140625 C-72.82517805 142.15553622 -76.33858409 139.44968575 -80.09375 136.33203125 C-81.57016968 135.11036255 -81.57016968 135.11036255 -83.07641602 133.86401367 C-83.82334717 133.24115479 -84.57027832 132.6182959 -85.33984375 131.9765625 C-85.35015121 132.81372299 -85.36045868 133.65088348 -85.37107849 134.51341248 C-85.46888157 142.38630986 -85.571371 150.25912908 -85.67918301 158.13189602 C-85.73444904 162.17978067 -85.78787477 166.2276725 -85.8371582 170.27563477 C-85.88474768 174.17898612 -85.93708825 178.08224699 -85.9927845 181.9854908 C-86.01323269 183.47787295 -86.03194162 184.97027993 -86.04891777 186.46270561 C-86.07290755 188.54611099 -86.10296894 190.6293439 -86.13452148 192.71264648 C-86.15006577 193.90067368 -86.16561005 195.08870087 -86.18162537 196.31272888 C-86.33984375 198.9765625 -86.33984375 198.9765625 -87.33984375 199.9765625 C-88.71043968 200.07968287 -90.08624034 200.11505203 -91.46069336 200.12182617 C-92.33507553 200.12820602 -93.2094577 200.13458588 -94.1103363 200.14115906 C-95.53685265 200.14282829 -95.53685265 200.14282829 -96.9921875 200.14453125 C-97.96265518 200.14785965 -98.93312286 200.15118805 -99.93299866 200.15461731 C-101.99007695 200.1596908 -104.0471635 200.16202551 -106.10424805 200.16186523 C-109.26039119 200.16405076 -112.41618446 200.18219941 -115.57226562 200.20117188 C-117.56640505 200.20410583 -119.56054614 200.20609061 -121.5546875 200.20703125 C-122.50367416 200.21421677 -123.45266083 200.22140228 -124.43040466 200.22880554 C-125.307939 200.22572891 -126.18547333 200.22265228 -127.08959961 200.21948242 C-127.86379745 200.22090744 -128.6379953 200.22233246 -129.43565369 200.22380066 C-131.33984375 199.9765625 -131.33984375 199.9765625 -133.33984375 197.9765625 C-133.53534638 195.27061756 -133.60468128 192.66716614 -133.58708191 189.96018982 C-133.59070353 188.70299254 -133.59070353 188.70299254 -133.59439832 187.42039734 C-133.60005987 184.59586083 -133.59135377 181.77154803 -133.58276367 178.94702148 C-133.58383594 176.92866962 -133.58577379 174.91031806 -133.58851624 172.89196777 C-133.59337629 167.39836239 -133.58569469 161.90483785 -133.57556319 156.41124225 C-133.5668027 150.67415119 -133.56853974 144.93706281 -133.56892395 139.19996643 C-133.56798647 129.56501913 -133.5592908 119.93010327 -133.5456543 110.29516602 C-133.52992344 99.1388849 -133.5246563 87.98263822 -133.52538985 76.82634681 C-133.52599918 66.11451769 -133.52090274 55.40269984 -133.51259804 44.6908741 C-133.50905785 40.12269058 -133.50723374 35.55451104 -133.50670433 30.98632622 C-133.50570332 25.61266433 -133.49962666 20.23903161 -133.48953819 14.86537933 C-133.48660549 12.88719168 -133.48538937 10.90900067 -133.48596573 8.93081093 C-133.48645278 6.24249296 -133.48083684 3.554258 -133.47355652 0.86595154 C-133.47510512 0.07258422 -133.47665372 -0.7207831 -133.47824925 -1.53819185 C-133.45402231 -6.90925894 -133.45402231 -6.90925894 -132.33984375 -8.0234375 C-130.93309155 -8.12148601 -129.52149239 -8.15141936 -128.11132812 -8.15283203 C-126.7648822 -8.15756027 -126.7648822 -8.15756027 -125.39123535 -8.16238403 C-123.92720276 -8.15934769 -123.92720276 -8.15934769 -122.43359375 -8.15625 C-121.43855835 -8.15720673 -120.44352295 -8.15816345 -119.41833496 -8.15914917 C-117.30997657 -8.1598311 -115.2016161 -8.15797594 -113.09326172 -8.15380859 C-109.85379348 -8.14846053 -106.6144639 -8.15375317 -103.375 -8.16015625 C-101.33203094 -8.15949547 -99.28906197 -8.15821431 -97.24609375 -8.15625 C-96.27007202 -8.15827423 -95.29405029 -8.16029846 -94.28845215 -8.16238403 C-93.39082153 -8.15923187 -92.49319092 -8.15607971 -91.56835938 -8.15283203 C-90.37708435 -8.15163864 -90.37708435 -8.15163864 -89.16174316 -8.15042114 C-87.33984375 -8.0234375 -87.33984375 -8.0234375 -86.33984375 -7.0234375 C-86.26659207 -4.16076183 -86.2474617 -1.3227185 -86.27734375 1.5390625 C-86.28185547 2.34537109 -86.28636719 3.15167969 -86.29101562 3.98242188 C-86.30283857 5.98050006 -86.32077461 7.97854033 -86.33984375 9.9765625 C-85.95054687 9.48027344 -85.56125 8.98398438 -85.16015625 8.47265625 C-64.38228548 -16.7576154 -26.08815162 -17.64234714 0 0 Z M-78.875 41.08203125 C-81.24687235 44.14965282 -82.84552316 47.41434371 -84.33984375 50.9765625 C-84.73171875 51.8428125 -85.12359375 52.7090625 -85.52734375 53.6015625 C-89.41688705 64.97099676 -88.68796705 80.10506599 -83.43359375 90.9140625 C-78.41153485 100.38423071 -71.31872 106.3024826 -61.18359375 109.69921875 C-51.70527833 112.21898218 -40.68615933 110.64893318 -32.1796875 105.7265625 C-21.27732508 97.99617836 -15.93169928 88.39289637 -13.65234375 75.34765625 C-12.24288123 64.65335937 -14.58103137 52.55958629 -20.98046875 43.70703125 C-27.31806842 36.28101773 -35.27387753 29.95860799 -45.33984375 28.9765625 C-58.08066974 28.28846911 -69.94236098 31.43478111 -78.875 41.08203125 Z " fill="#222222" transform="translate(332.33984375,77.0234375)"/>
<path d="M0 0 C0.95390625 0.52980469 1.9078125 1.05960938 2.890625 1.60546875 C18.69944402 11.11102788 29.18680052 28.5519579 33.81787109 46.09887695 C35.82519233 54.79365333 36.5096223 63.02638922 36.4375 71.9375 C36.42614014 73.91363281 36.42614014 73.91363281 36.41455078 75.9296875 C36.25629155 85.254275 35.46202139 93.26968519 32 102 C31.56429688 103.19109375 31.12859375 104.3821875 30.6796875 105.609375 C27.51867372 113.65873248 23.39377993 120.27190973 18 127 C16.824375 128.5778125 16.824375 128.5778125 15.625 130.1875 C3.79081333 142.86698572 -13.23067777 151.5604807 -30.6875 152.23828125 C-47.19440971 152.58608934 -63.99003368 150.37247957 -76.62072754 138.47311401 C-77.14098511 137.94170807 -77.66124268 137.41030212 -78.19726562 136.86279297 C-78.7256604 136.32572723 -79.25405518 135.7886615 -79.79846191 135.23532104 C-80.19496948 134.8276651 -80.59147705 134.42000916 -81 134 C-81.01030746 134.83716049 -81.02061493 135.67432098 -81.03123474 136.53684998 C-81.12903782 144.40974736 -81.23152725 152.28256658 -81.33933926 160.15533352 C-81.39460529 164.20321817 -81.44803102 168.25111 -81.49731445 172.29907227 C-81.54490393 176.20242362 -81.5972445 180.10568449 -81.65294075 184.0089283 C-81.67338894 185.50131045 -81.69209787 186.99371743 -81.70907402 188.48614311 C-81.7330638 190.56954849 -81.76312519 192.6527814 -81.79467773 194.73608398 C-81.81022202 195.92411118 -81.8257663 197.11213837 -81.84178162 198.33616638 C-82 201 -82 201 -83 202 C-84.37079883 202.09794531 -85.7465568 202.12798081 -87.12084961 202.12939453 C-87.99523178 202.13254669 -88.86961395 202.13569885 -89.77049255 202.13894653 C-91.1970089 202.13591019 -91.1970089 202.13591019 -92.65234375 202.1328125 C-93.62281143 202.13376923 -94.59327911 202.13472595 -95.59315491 202.13571167 C-97.65023869 202.13639365 -99.70732462 202.13453814 -101.7644043 202.13037109 C-104.92045922 202.12502884 -108.07637145 202.13031253 -111.23242188 202.13671875 C-113.22656282 202.13605786 -115.22070367 202.13477647 -117.21484375 202.1328125 C-118.16383041 202.13483673 -119.11281708 202.13686096 -120.09056091 202.13894653 C-121.40686241 202.13421829 -121.40686241 202.13421829 -122.74975586 202.12939453 C-123.5239537 202.12859894 -124.29815155 202.12780334 -125.09580994 202.12698364 C-127 202 -127 202 -129 201 C-129.02332561 174.15820818 -129.04097751 147.31641786 -129.05181217 120.47461796 C-129.05697585 108.01245345 -129.06401991 95.55029524 -129.07543945 83.08813477 C-129.08538411 72.23038222 -129.0918529 61.37263423 -129.09408849 50.51487726 C-129.09539597 44.7619425 -129.09848417 39.00902076 -129.10573006 33.25609016 C-129.11248683 27.84799024 -129.11461767 22.43990878 -129.11310768 17.03180504 C-129.11338416 15.04071579 -129.11539131 13.04962596 -129.11920547 11.05854034 C-129.12413737 8.35260747 -129.12300016 5.64674547 -129.12025452 2.94081116 C-129.12316736 2.14218865 -129.1260802 1.34356614 -129.12908131 0.52074295 C-129.11412121 -4.88587879 -129.11412121 -4.88587879 -128 -6 C-126.61839885 -6.0927833 -125.23211962 -6.11747043 -123.84741211 -6.11352539 C-122.52615578 -6.11341209 -122.52615578 -6.11341209 -121.1782074 -6.11329651 C-120.22092239 -6.10813522 -119.26363739 -6.10297394 -118.27734375 -6.09765625 C-116.81452721 -6.09553383 -116.81452721 -6.09553383 -115.32215881 -6.09336853 C-112.19390857 -6.08775133 -109.06572877 -6.07519593 -105.9375 -6.0625 C-103.82226666 -6.05748722 -101.70703219 -6.05292393 -99.59179688 -6.04882812 C-94.39450393 -6.03777631 -89.19726392 -6.02050016 -84 -6 C-84 -0.06 -84 5.88 -84 12 C-83.34 12 -82.68 12 -82 12 C-81.62101562 11.12794922 -81.62101562 11.12794922 -81.234375 10.23828125 C-75.89159123 0.55025879 -63.37125796 -4.9880238 -53.2890625 -8.171875 C-35.55430495 -12.2407503 -15.56000659 -9.19229689 0 0 Z M-77.0859375 45.23828125 C-84.30666919 55.65676554 -85.10103355 68.37834746 -83.5390625 80.609375 C-81.47279963 91.74288551 -77.64148151 99.93076445 -68.29296875 106.6015625 C-64.97764095 108.6235171 -61.7287829 109.95151055 -58 111 C-56.97712891 111.30550781 -56.97712891 111.30550781 -55.93359375 111.6171875 C-47.73234771 113.88925946 -40.85691524 113.11567328 -33 110 C-21.49198519 103.36076069 -15.04992834 94.8049036 -11.46508789 82.10498047 C-8.90728674 70.52841272 -10.48773694 57.45034019 -16.625 47.375 C-23.40200315 38.01312523 -30.59693263 33.2409013 -42 31 C-55.71109918 29.33933892 -68.27691835 34.82620738 -77.0859375 45.23828125 Z " fill="#82A38C" transform="translate(1350,75)"/>
<path d="M0 0 C1.62035156 0.57814453 1.62035156 0.57814453 3.2734375 1.16796875 C25.18786938 9.69638116 39.94534165 26.01387924 49.28564453 47.21728516 C50.70349047 50.75560063 51.40733337 54.24644468 52 58 C52.33 58.33 52.66 58.66 53 59 C56.96458007 81.71631488 52.91998357 103.55002475 40.171875 122.75390625 C36.99153878 126.98719162 33.41775996 130.78823052 29.6015625 134.453125 C28.26208328 135.7468659 26.99577868 137.11580147 25.75 138.5 C17.08239075 146.37964477 6.95507108 150.42548454 -4 154 C-5.485 154.51433594 -5.485 154.51433594 -7 155.0390625 C-22.25142467 159.47358 -41.90227127 158.78094743 -57 154 C-57.81339844 153.74476563 -58.62679688 153.48953125 -59.46484375 153.2265625 C-79.84951334 146.38292881 -95.28876703 132.39415924 -106 114 C-106.38929687 113.38125 -106.77859375 112.7625 -107.1796875 112.125 C-116.62105998 95.7306788 -116.74644789 71.39727269 -112.375 53.5625 C-109.18601971 43.77098306 -104.65320507 34.86987915 -98 27 C-97.319375 26.18660156 -96.63875 25.37320313 -95.9375 24.53515625 C-72.60891878 -2.39801478 -33.64235257 -12.09391363 0 0 Z M-59.46875 48.03125 C-67.79930359 58.74196176 -68.9116348 71.64853394 -67.7578125 84.75 C-66.30676883 95.17382393 -61.33437439 104.47225891 -53 111 C-43.81591494 117.31932458 -34.06974041 119.20280684 -23.1171875 117.5703125 C-12.64802318 115.40150864 -4.709671 110.21373876 1.53125 101.5 C8.10987536 90.30233981 9.40704382 76.54249941 6.83984375 63.94140625 C3.90782234 53.67251264 -1.19570478 46.11121668 -10 40 C-26.95168761 31.02557715 -46.33385957 33.90504708 -59.46875 48.03125 Z " fill="#83A48C" transform="translate(1149,70)"/>
<path d="M0 0 C1.34644592 -0.00472824 1.34644592 -0.00472824 2.72009277 -0.009552 C4.18412537 -0.00651566 4.18412537 -0.00651566 5.67773438 -0.00341797 C6.67276978 -0.00437469 7.66780518 -0.00533142 8.69299316 -0.00631714 C10.80135155 -0.00699907 12.90971203 -0.0051439 15.01806641 -0.00097656 C18.25753465 0.0043715 21.49686423 -0.00092114 24.73632812 -0.00732422 C26.77929718 -0.00666344 28.82226615 -0.00538228 30.86523438 -0.00341797 C31.8412561 -0.0054422 32.81727783 -0.00746643 33.82287598 -0.009552 C34.72050659 -0.00639984 35.61813721 -0.00324768 36.54296875 0 C37.3371521 0.00079559 38.13133545 0.00159119 38.94958496 0.00241089 C40.77148438 0.12939453 40.77148438 0.12939453 41.77148438 1.12939453 C41.86426768 2.51099568 41.8889548 3.89727491 41.88500977 5.28198242 C41.88489647 6.60323875 41.88489647 6.60323875 41.88478088 7.95118713 C41.8796196 8.90847214 41.87445831 9.86575714 41.86914062 10.85205078 C41.86772568 11.82726181 41.86631073 12.80247284 41.86485291 13.80723572 C41.8592357 16.93548596 41.8466803 20.06366576 41.83398438 23.19189453 C41.82897159 25.30712788 41.8244083 27.42236234 41.8203125 29.53759766 C41.81010968 34.73491254 41.79053769 39.93207429 41.77148438 45.12939453 C54.97148438 45.12939453 68.17148437 45.12939453 81.77148438 45.12939453 C84.72781868 56.95473175 82.43107437 71.09187711 81.77148438 83.12939453 C68.57148437 83.12939453 55.37148438 83.12939453 41.77148438 83.12939453 C41.83331294 94.84252155 41.83331294 94.84252155 41.93164062 106.55517578 C41.97987122 111.33691701 42.02395477 116.11843001 42.04248047 120.90039062 C42.05769751 124.75861035 42.09223093 128.61623038 42.1397934 132.47418213 C42.15455553 133.94121061 42.16252241 135.40832474 42.16336823 136.87542725 C42.17254174 144.81338613 42.23555155 151.34543577 46.77148438 158.12939453 C50.98550846 161.56715102 55.47780703 162.33074789 60.84179688 161.85986328 C61.84984375 161.68068359 62.85789062 161.50150391 63.89648438 161.31689453 C64.9096875 161.14544922 65.92289063 160.97400391 66.96679688 160.79736328 C69.73773288 160.26390733 69.73773288 160.26390733 71.88867188 158.99267578 C74.27440912 157.89880041 75.31713248 158.40709564 77.77148438 159.12939453 C78.89836296 163.12886769 80.02264627 167.12906604 81.14648438 171.12939453 C81.46359375 172.25474609 81.78070312 173.38009766 82.10742188 174.53955078 C83.74808911 180.38442779 85.33993699 186.22968408 86.77148438 192.12939453 C82.1546521 196.5870257 76.74261596 198.18791389 70.77148438 200.12939453 C69.57523438 200.52126953 68.37898437 200.91314453 67.14648438 201.31689453 C49.80524315 205.49163779 30.60126158 204.69883435 15.10351562 195.58642578 C5.27360861 189.44479208 -0.21530305 180.21116211 -3.22851562 169.12939453 C-3.48152184 168.20636032 -3.48152184 168.20636032 -3.73963928 167.26467896 C-5.75875407 158.76042294 -5.48057569 150.20594604 -5.42382812 141.52783203 C-5.42009119 139.83818734 -5.41724744 138.14854047 -5.41525269 136.45889282 C-5.40766974 132.0432115 -5.38806802 127.6276648 -5.36584473 123.21203613 C-5.34527037 118.69362203 -5.33622634 114.17518587 -5.32617188 109.65673828 C-5.30481632 100.81422214 -5.26967863 91.97184067 -5.22851562 83.12939453 C-12.48851562 83.12939453 -19.74851562 83.12939453 -27.22851562 83.12939453 C-28.78326827 80.01988925 -28.37051086 76.72492423 -28.36132812 73.31298828 C-28.36228485 72.54132828 -28.36324158 71.76966827 -28.36422729 70.97462463 C-28.36490809 69.34302692 -28.36306082 67.7114265 -28.35888672 66.07983398 C-28.35352976 63.57350632 -28.35883881 61.06735728 -28.36523438 58.56103516 C-28.36457372 56.97835247 -28.36329281 55.39566989 -28.36132812 53.81298828 C-28.36335236 53.0588414 -28.36537659 52.30469452 -28.36746216 51.5276947 C-28.34347187 46.24435077 -28.34347187 46.24435077 -27.22851562 45.12939453 C-25.59378681 45.04239111 -23.95537507 45.02238391 -22.31835938 45.03173828 C-21.32900391 45.03496094 -20.33964844 45.03818359 -19.3203125 45.04150391 C-18.27939453 45.04988281 -17.23847656 45.05826172 -16.16601562 45.06689453 C-14.59883789 45.07366211 -14.59883789 45.07366211 -13 45.08056641 C-10.40944903 45.09239541 -7.81901004 45.10887764 -5.22851562 45.12939453 C-5.23073624 44.58037979 -5.23295685 44.03136505 -5.23524475 43.4657135 C-5.2572992 37.77231494 -5.27242289 32.07892844 -5.28344727 26.38549805 C-5.28848861 24.25821439 -5.29532154 22.13093422 -5.30395508 20.00366211 C-5.31602942 16.95311627 -5.32174577 13.90261608 -5.32617188 10.85205078 C-5.33133316 9.89476578 -5.33649445 8.93748077 -5.34181213 7.95118713 C-5.34192543 6.6299308 -5.34192543 6.6299308 -5.34204102 5.28198242 C-5.34426163 4.50254776 -5.34648224 3.7231131 -5.34877014 2.9200592 C-5.11139077 -0.6146676 -3.03699512 0.00304239 0 0 Z " fill="#212121" transform="translate(596.228515625,23.87060546875)"/>
<path d="M0 0 C1 1 1 1 1.12025452 2.79066467 C1.11803391 3.57009933 1.11581329 4.349534 1.11352539 5.15258789 C1.11341209 6.47384422 1.11341209 6.47384422 1.11329651 7.8217926 C1.10813522 8.77907761 1.10297394 9.73636261 1.09765625 10.72265625 C1.0962413 11.69786728 1.09482635 12.67307831 1.09336853 13.67784119 C1.08775133 16.80609143 1.07519593 19.93427123 1.0625 23.0625 C1.05748722 25.17773334 1.05292393 27.29296781 1.04882812 29.40820312 C1.03777631 34.60549296 1.02102146 39.80274145 1 45 C-2 46 -2 46 -5 45 C-17.00848648 44.55571139 -31.49179984 46.32423073 -40.796875 54.59765625 C-48.07578829 62.50716847 -50.13188377 70.72521641 -50.18945312 81.26269531 C-50.19774643 82.08111908 -50.20603973 82.89954285 -50.21458435 83.74276733 C-50.23193396 85.51333982 -50.24711449 87.28393461 -50.26036072 89.05454254 C-50.28143651 91.8528891 -50.30845156 94.65112257 -50.33703613 97.44940186 C-50.40676518 104.39406691 -50.46639819 111.33881175 -50.52606201 118.28356934 C-50.57690555 124.16127229 -50.63167783 130.038912 -50.69187927 135.91652679 C-50.71852965 138.68027392 -50.73929193 141.44402677 -50.7598877 144.20782471 C-50.77648095 145.89018033 -50.79335192 147.57253324 -50.81054688 149.25488281 C-50.81473129 150.02889435 -50.81891571 150.80290588 -50.82322693 151.60037231 C-50.88614648 156.88614648 -50.88614648 156.88614648 -52 158 C-53.4067522 158.09804851 -54.81835136 158.12798186 -56.22851562 158.12939453 C-57.57496155 158.13412277 -57.57496155 158.13412277 -58.9486084 158.13894653 C-60.41264099 158.13591019 -60.41264099 158.13591019 -61.90625 158.1328125 C-63.3988031 158.13424759 -63.3988031 158.13424759 -64.92150879 158.13571167 C-67.02986718 158.1363936 -69.13822765 158.13453844 -71.24658203 158.13037109 C-74.48605027 158.12502303 -77.72537985 158.13031567 -80.96484375 158.13671875 C-83.00781281 158.13605797 -85.05078178 158.13477681 -87.09375 158.1328125 C-88.06977173 158.13483673 -89.04579346 158.13686096 -90.0513916 158.13894653 C-90.94902222 158.13579437 -91.84665283 158.13264221 -92.77148438 158.12939453 C-93.56566772 158.12859894 -94.35985107 158.12780334 -95.17810059 158.12698364 C-97 158 -97 158 -98 157 C-98.09887812 155.02802462 -98.12632256 153.0524556 -98.12698364 151.07800293 C-98.12980347 149.79070786 -98.13262329 148.50341278 -98.13552856 147.17710876 C-98.13358396 145.737213 -98.13153578 144.29731736 -98.12939453 142.85742188 C-98.13074851 141.35152646 -98.13252843 139.84563139 -98.13470459 138.33973694 C-98.13927928 134.23861193 -98.13748922 130.13751196 -98.1343255 126.03638649 C-98.13180209 121.75403397 -98.13413939 117.47168366 -98.13571167 113.18933105 C-98.13753342 105.99649672 -98.13512692 98.80367263 -98.13037109 91.61083984 C-98.12492846 83.28283666 -98.12669112 74.95485796 -98.1321975 66.62685537 C-98.13672848 59.48972154 -98.13737925 52.3525951 -98.13475883 45.2154603 C-98.13319597 40.94701645 -98.13300253 36.67858412 -98.13629532 32.41014099 C-98.13917381 28.39816066 -98.13719875 24.38621204 -98.13140106 20.37423515 C-98.13007334 18.89755239 -98.13046778 17.42086698 -98.13266373 15.94418526 C-98.13537474 13.93679013 -98.13138084 11.92938921 -98.12698364 9.92199707 C-98.12660662 8.79594307 -98.12622959 7.66988907 -98.12584114 6.50971222 C-98 4 -98 4 -97 3 C-95.62390118 2.90204689 -94.24286118 2.87201912 -92.86328125 2.87060547 C-91.98567139 2.86745331 -91.10806152 2.86430115 -90.20385742 2.86105347 C-89.24970947 2.8630777 -88.29556152 2.86510193 -87.3125 2.8671875 C-86.33966064 2.86623077 -85.36682129 2.86527405 -84.36450195 2.86428833 C-82.303222 2.86360642 -80.24193992 2.86546147 -78.18066406 2.86962891 C-75.01362312 2.874977 -71.846724 2.86968428 -68.6796875 2.86328125 C-66.68229135 2.86394203 -64.68489529 2.86522319 -62.6875 2.8671875 C-61.73335205 2.86516327 -60.7792041 2.86313904 -59.79614258 2.86105347 C-58.47972778 2.86578171 -58.47972778 2.86578171 -57.13671875 2.87060547 C-56.36030029 2.87140106 -55.58388184 2.87219666 -54.78393555 2.87301636 C-53 3 -53 3 -52 4 C-51.91314397 5.56172745 -51.89297781 7.12729344 -51.90234375 8.69140625 C-51.90556641 9.63564453 -51.90878906 10.57988281 -51.91210938 11.55273438 C-51.92467773 13.04256836 -51.92467773 13.04256836 -51.9375 14.5625 C-51.94201172 15.55958984 -51.94652344 16.55667969 -51.95117188 17.58398438 C-51.96299993 20.05604849 -51.97948151 22.52799518 -52 25 C-51.34 25 -50.68 25 -50 25 C-49.7525 24.26652344 -49.505 23.53304687 -49.25 22.77734375 C-45.23234716 13.85062135 -35.46452085 7.72306871 -26.71875 4.0390625 C-18.12580429 0.98312054 -9.13824773 -0.79382758 0 0 Z " fill="#81A28B" transform="translate(1028,66)"/>
<path d="M0 0 C1.99609375 -0.015625 1.99609375 -0.015625 4.1875 0.8125 C7.12386514 3.72730593 9.61122237 6.78446191 12.0859375 10.08984375 C13.90250201 12.85115828 13.90250201 12.85115828 16.1875 13.8125 C16.1875 14.4725 16.1875 15.1325 16.1875 15.8125 C20.98622101 18.05190314 26.01605847 18.8685864 31.1875 19.8125 C30.31738281 18.85150391 30.31738281 18.85150391 29.4296875 17.87109375 C24.94655025 12.90709194 20.51304972 7.91443044 16.1875 2.8125 C19.1875 2.8125 19.1875 2.8125 20.80078125 4.31640625 C21.36152344 4.99574219 21.92226563 5.67507813 22.5 6.375 C23.10972656 7.09816406 23.71945312 7.82132812 24.34765625 8.56640625 C25.52778205 10.00711185 26.70274395 11.45207196 27.87109375 12.90234375 C28.38800781 13.53269531 28.90492188 14.16304688 29.4375 14.8125 C29.89640625 15.39 30.3553125 15.9675 30.828125 16.5625 C32.24776199 18.15093661 32.24776199 18.15093661 35.1875 17.8125 C37.3303352 15.59088385 37.3303352 15.59088385 39.375 12.8125 C40.09042969 11.884375 40.80585938 10.95625 41.54296875 10 C42.35701172 8.9171875 42.35701172 8.9171875 43.1875 7.8125 C44.1775 8.3075 44.1775 8.3075 45.1875 8.8125 C42.5475 12.1125 39.9075 15.4125 37.1875 18.8125 C46.00936428 19.34715844 50.05635843 16.04705782 56.36376953 10.46972656 C58.98436198 8.06683573 61.17906347 5.82415948 63.2734375 2.9296875 C65.1875 0.8125 65.1875 0.8125 67.640625 0.3671875 C80.33496472 1.82100853 93.6034924 5.39152915 104.1875 12.8125 C106.74830651 16.65370976 106.94642709 18.25893748 106.1875 22.8125 C98.65141093 33.48105982 82.04182102 35.76771072 69.9921875 38.03125 C62.39382698 39.33537862 54.88651143 39.70141974 47.1875 39.8125 C45.96063477 39.83296387 44.73376953 39.85342773 43.46972656 39.87451172 C27.6178372 40.11545786 11.89257131 40.26801604 -3.8125 37.8125 C-4.90691406 37.668125 -6.00132812 37.52375 -7.12890625 37.375 C-18.37221479 35.76676174 -30.83103373 32.80223166 -38.52734375 23.80859375 C-40.38555461 20.92243646 -40.36199974 19.17818591 -39.8125 15.8125 C-32.83661037 5.84694338 -18.25915128 3.1777194 -7.0625 1.125 C-3.69800971 0.86373945 -3.69800971 0.86373945 0 0 Z " fill="#87A88F" transform="translate(441.8125,286.1875)"/>
<path d="M0 0 C1.15764107 0.00371613 1.15764107 0.00371613 2.33866882 0.00750732 C3.15218307 0.00239639 3.96569733 -0.00271454 4.80386353 -0.00798035 C7.51182815 -0.02194803 10.21953945 -0.02091066 12.92753601 -0.01861572 C14.82253615 -0.02250597 16.71753542 -0.02684132 18.61253357 -0.03160095 C22.6041189 -0.0390837 26.5956159 -0.03876232 30.58720398 -0.0335083 C35.63860533 -0.0277878 40.68963107 -0.04445158 45.74097061 -0.06785297 C49.6690524 -0.08280226 53.5970489 -0.08343244 57.52515411 -0.08034325 C59.38258848 -0.08084849 61.24002869 -0.08593178 63.097435 -0.09615517 C73.37563939 -0.14567137 83.40924864 0.32120518 93.60624695 1.67987061 C94.54890537 1.80454806 95.4915638 1.92922552 96.46278763 2.05768108 C103.08418744 3.02201648 103.08418744 3.02201648 106.47441101 5.28216553 C102.18441101 4.95216553 97.89441101 4.62216553 93.47441101 4.28216553 C60.80441101 3.62216553 28.13441101 2.96216553 -5.52558899 2.28216553 C-5.52558899 73.89216553 -5.52558899 145.50216553 -5.52558899 219.28216553 C27.47441101 219.28216553 60.47441101 219.28216553 94.47441101 219.28216553 C94.47441101 219.61216553 94.47441101 219.94216553 94.47441101 220.28216553 C83.93233959 221.62746816 73.35296723 221.4275993 62.74784851 221.41497803 C60.74814339 221.4156525 58.74843836 221.41662372 56.74873352 221.4178772 C52.58160106 221.41934401 48.41449017 221.41723016 44.24736023 221.41253662 C38.89496866 221.40680272 33.54262684 221.4101477 28.19023705 221.41610909 C24.07260254 221.41971064 19.95497998 221.41857864 15.83734512 221.41598129 C13.8620821 221.41531281 11.88681801 221.41613771 9.91155624 221.41846085 C7.16603937 221.42098469 4.42060526 221.41715232 1.6750946 221.41156006 C0.44406006 221.41459641 0.44406006 221.41459641 -0.81184387 221.41769409 C-6.41131858 221.39643593 -6.41131858 221.39643593 -7.52558899 220.28216553 C-7.62793536 217.47989258 -7.66444487 214.70211718 -7.65930176 211.89924622 C-7.66156731 211.00958851 -7.66383287 210.1199308 -7.66616708 209.20331377 C-7.67253756 206.19841616 -7.67167578 203.19356331 -7.67085266 200.18865967 C-7.67384225 198.04400066 -7.67724431 195.8993422 -7.68103027 193.75468445 C-7.6898947 187.91181764 -7.6922094 182.06896546 -7.69284606 176.22609258 C-7.69379307 171.35747129 -7.69746894 166.48885345 -7.70101815 161.62023348 C-7.70917194 150.1391342 -7.71160154 138.65804276 -7.71089172 127.17694092 C-7.71029063 115.31234721 -7.72084673 103.44779893 -7.73663539 91.58321673 C-7.749687 81.41509443 -7.75507663 71.24698702 -7.75443631 61.07885641 C-7.75418063 54.99781191 -7.75707029 48.91680775 -7.76761436 42.83577156 C-7.77725548 37.11902293 -7.77740209 31.40235352 -7.77009773 25.68560219 C-7.76904691 23.58205297 -7.77144397 21.47849892 -7.77745819 19.37495804 C-7.78511124 16.51389994 -7.78057808 13.65312007 -7.77282715 10.79206848 C-7.77797071 9.95034956 -7.78311427 9.10863063 -7.7884137 8.24140507 C-7.74780719 1.50650293 -6.82744608 0.068808 0 0 Z " fill="#B8D8B7" transform="translate(718.5255889892578,2.71783447265625)"/>
<path d="M0 0 C1.34644592 -0.00472824 1.34644592 -0.00472824 2.72009277 -0.009552 C4.18412537 -0.00651566 4.18412537 -0.00651566 5.67773438 -0.00341797 C6.67276978 -0.00437469 7.66780518 -0.00533142 8.69299316 -0.00631714 C10.80135155 -0.00699907 12.90971203 -0.0051439 15.01806641 -0.00097656 C18.25753465 0.0043715 21.49686423 -0.00092114 24.73632812 -0.00732422 C26.77929718 -0.00666344 28.82226615 -0.00538228 30.86523438 -0.00341797 C31.8412561 -0.0054422 32.81727783 -0.00746643 33.82287598 -0.009552 C34.72050659 -0.00639984 35.61813721 -0.00324768 36.54296875 0 C37.3371521 0.00079559 38.13133545 0.00159119 38.94958496 0.00241089 C40.77148438 0.12939453 40.77148438 0.12939453 41.77148438 1.12939453 C41.86426768 2.51099568 41.8889548 3.89727491 41.88500977 5.28198242 C41.88489647 6.60323875 41.88489647 6.60323875 41.88478088 7.95118713 C41.8796196 8.90847214 41.87445831 9.86575714 41.86914062 10.85205078 C41.86772568 11.82726181 41.86631073 12.80247284 41.86485291 13.80723572 C41.8592357 16.93548596 41.8466803 20.06366576 41.83398438 23.19189453 C41.82897159 25.30712788 41.8244083 27.42236234 41.8203125 29.53759766 C41.81010968 34.73491254 41.79053769 39.93207429 41.77148438 45.12939453 C54.97148438 45.12939453 68.17148437 45.12939453 81.77148438 45.12939453 C84.72781868 56.95473175 82.43107437 71.09187711 81.77148438 83.12939453 C68.57148437 83.12939453 55.37148438 83.12939453 41.77148438 83.12939453 C41.89149143 94.86682346 41.89149143 94.86682346 42.02929688 106.60400391 C42.08948877 111.3945712 42.14764349 116.18509992 42.19335938 120.97583008 C42.23036839 124.84037269 42.27676959 128.70470109 42.32954788 132.56905937 C42.3480092 134.03972026 42.36314731 135.51042693 42.37482834 136.9811573 C42.3918334 139.04910105 42.42090011 141.11656296 42.45263672 143.18432617 C42.46596039 144.35902969 42.47928406 145.53373322 42.49301147 146.74403381 C42.80090289 150.48703175 43.63107546 153.56188367 44.77148438 157.12939453 C43.78148437 156.79939453 42.79148437 156.46939453 41.77148438 156.12939453 C39.61253482 147.80219252 39.50931696 139.70955063 39.57617188 131.15283203 C39.57991063 129.73223064 39.58275352 128.31162664 39.58474731 126.89102173 C39.59231598 123.18553311 39.61190468 119.48020592 39.63415527 115.77478027 C39.65839581 111.31092158 39.66742698 106.84700835 39.67906189 102.38310242 C39.69833437 95.63175482 39.73670344 88.88076012 39.77148438 82.12939453 C53.30148437 82.12939453 66.83148437 82.12939453 80.77148438 82.12939453 C80.77148438 70.24939453 80.77148438 58.36939453 80.77148438 46.12939453 C67.24148438 46.12939453 53.71148438 46.12939453 39.77148438 46.12939453 C39.77148438 31.27939453 39.77148438 16.42939453 39.77148438 1.12939453 C25.58148437 1.12939453 11.39148438 1.12939453 -3.22851562 1.12939453 C-3.22851562 15.97939453 -3.22851562 30.82939453 -3.22851562 46.12939453 C-10.81851563 46.12939453 -18.40851562 46.12939453 -26.22851562 46.12939453 C-26.22851562 58.00939453 -26.22851562 69.88939453 -26.22851562 82.12939453 C-18.63851562 82.12939453 -11.04851563 82.12939453 -3.22851562 82.12939453 C-3.22851562 109.18939453 -3.22851562 136.24939453 -3.22851562 164.12939453 C-2.56851563 164.12939453 -1.90851562 164.12939453 -1.22851562 164.12939453 C-1.05835938 164.98662109 -0.88820313 165.84384766 -0.71289062 166.72705078 C0.6816501 173.30661259 2.23095293 178.43925471 5.77148438 184.12939453 C5.44148437 184.78939453 5.11148438 185.44939453 4.77148438 186.12939453 C-2.52138763 175.0366766 -5.41185079 164.66835525 -5.34204102 151.3581543 C-5.34218704 150.61586075 -5.34233307 149.8735672 -5.34248352 149.10877991 C-5.34179236 146.67942277 -5.33403765 144.25014436 -5.32617188 141.82080078 C-5.32430486 140.12686708 -5.3228823 138.43293284 -5.32188416 136.73899841 C-5.3180813 132.29866015 -5.30827025 127.85835503 -5.29718018 123.41802979 C-5.2869179 118.8797653 -5.28237624 114.34149542 -5.27734375 109.80322266 C-5.26664583 100.91192977 -5.24906727 92.0206701 -5.22851562 83.12939453 C-12.48851562 83.12939453 -19.74851562 83.12939453 -27.22851562 83.12939453 C-28.78326827 80.01988925 -28.37051086 76.72492423 -28.36132812 73.31298828 C-28.36228485 72.54132828 -28.36324158 71.76966827 -28.36422729 70.97462463 C-28.36490809 69.34302692 -28.36306082 67.7114265 -28.35888672 66.07983398 C-28.35352976 63.57350632 -28.35883881 61.06735728 -28.36523438 58.56103516 C-28.36457372 56.97835247 -28.36329281 55.39566989 -28.36132812 53.81298828 C-28.36335236 53.0588414 -28.36537659 52.30469452 -28.36746216 51.5276947 C-28.34347187 46.24435077 -28.34347187 46.24435077 -27.22851562 45.12939453 C-25.59378681 45.04239111 -23.95537507 45.02238391 -22.31835938 45.03173828 C-21.32900391 45.03496094 -20.33964844 45.03818359 -19.3203125 45.04150391 C-18.27939453 45.04988281 -17.23847656 45.05826172 -16.16601562 45.06689453 C-14.59883789 45.07366211 -14.59883789 45.07366211 -13 45.08056641 C-10.40944903 45.09239541 -7.81901004 45.10887764 -5.22851562 45.12939453 C-5.23073624 44.58037979 -5.23295685 44.03136505 -5.23524475 43.4657135 C-5.2572992 37.77231494 -5.27242289 32.07892844 -5.28344727 26.38549805 C-5.28848861 24.25821439 -5.29532154 22.13093422 -5.30395508 20.00366211 C-5.31602942 16.95311627 -5.32174577 13.90261608 -5.32617188 10.85205078 C-5.33133316 9.89476578 -5.33649445 8.93748077 -5.34181213 7.95118713 C-5.34192543 6.6299308 -5.34192543 6.6299308 -5.34204102 5.28198242 C-5.34426163 4.50254776 -5.34648224 3.7231131 -5.34877014 2.9200592 C-5.11139077 -0.6146676 -3.03699512 0.00304239 0 0 Z " fill="#9E9E9E" transform="translate(596.228515625,23.87060546875)"/>
<path d="M0 0 C1.34644592 -0.00472824 1.34644592 -0.00472824 2.72009277 -0.009552 C4.18412537 -0.00651566 4.18412537 -0.00651566 5.67773438 -0.00341797 C6.67276978 -0.00437469 7.66780518 -0.00533142 8.69299316 -0.00631714 C10.80135155 -0.00699907 12.90971203 -0.0051439 15.01806641 -0.00097656 C18.25753465 0.0043715 21.49686423 -0.00092114 24.73632812 -0.00732422 C26.77929718 -0.00666344 28.82226615 -0.00538228 30.86523438 -0.00341797 C31.8412561 -0.0054422 32.81727783 -0.00746643 33.82287598 -0.009552 C34.72050659 -0.00639984 35.61813721 -0.00324768 36.54296875 0 C37.73424377 0.00119339 37.73424377 0.00119339 38.94958496 0.00241089 C40.77148438 0.12939453 40.77148438 0.12939453 41.77148438 1.12939453 C41.84473606 3.9920702 41.86386643 6.83011353 41.83398438 9.69189453 C41.82947266 10.49820313 41.82496094 11.30451172 41.8203125 12.13525391 C41.80848955 14.13333209 41.79055352 16.13137236 41.77148438 18.12939453 C42.19558594 17.60990234 42.6196875 17.09041016 43.05664062 16.55517578 C46.94233303 11.93504481 50.71711427 8.43020766 55.77148438 5.12939453 C56.43148437 5.45939453 57.09148437 5.78939453 57.77148438 6.12939453 C57.10761719 6.63728516 56.44375 7.14517578 55.75976562 7.66845703 C49.86257616 12.19806086 49.86257616 12.19806086 44.83398438 17.62939453 C44.15335938 18.45439453 43.47273438 19.27939453 42.77148438 20.12939453 C41.78148437 20.12939453 40.79148438 20.12939453 39.77148438 20.12939453 C39.77148438 13.85939453 39.77148438 7.58939453 39.77148438 1.12939453 C25.58148438 1.12939453 11.39148438 1.12939453 -3.22851562 1.12939453 C-3.22851562 68.77939453 -3.22851562 136.42939453 -3.22851562 206.12939453 C10.96148437 206.12939453 25.15148437 206.12939453 39.77148438 206.12939453 C39.77148438 183.02939453 39.77148438 159.92939453 39.77148438 136.12939453 C41.09148437 136.12939453 42.41148437 136.12939453 43.77148438 136.12939453 C45.37486164 138.38599957 46.53730655 140.66103888 47.77148438 143.12939453 C43.89648437 141.25439453 43.89648437 141.25439453 42.77148438 140.12939453 C42.76117691 140.96655502 42.75086945 141.80371552 42.74024963 142.66624451 C42.64244656 150.53914189 42.53995713 158.41196111 42.43214512 166.28472805 C42.37687909 170.3326127 42.32345336 174.38050453 42.27416992 178.4284668 C42.22658044 182.33181815 42.17423987 186.23507902 42.11854362 190.13832283 C42.09809543 191.63070498 42.0793865 193.12311196 42.06241035 194.61553764 C42.03842057 196.69894302 42.00835919 198.78217593 41.97680664 200.86547852 C41.96126236 202.05350571 41.94571808 203.2415329 41.92970276 204.46556091 C41.77148438 207.12939453 41.77148438 207.12939453 40.77148438 208.12939453 C39.40088845 208.2325149 38.02508779 208.26788406 36.65063477 208.2746582 C35.77625259 208.28103806 34.90187042 208.28741791 34.00099182 208.29399109 C32.57447548 208.29566032 32.57447548 208.29566032 31.11914062 208.29736328 C30.14867294 208.30069168 29.17820526 208.30402008 28.17832947 208.30744934 C26.12125118 208.31252283 24.06416462 208.31485754 22.00708008 208.31469727 C18.85093694 208.31688279 15.69514367 208.33503145 12.5390625 208.35400391 C10.54492308 208.35693786 8.55078198 208.35892264 6.55664062 208.35986328 C5.60765396 208.3670488 4.6586673 208.37423431 3.68092346 208.38163757 C2.80338913 208.37856094 1.9258548 208.37548431 1.02172852 208.37231445 C0.24753067 208.37373947 -0.52666718 208.37516449 -1.32432556 208.37663269 C-3.22851562 208.12939453 -3.22851562 208.12939453 -5.22851562 206.12939453 C-5.42401826 203.42344959 -5.49335315 200.81999818 -5.47575378 198.11302185 C-5.47937541 196.85582457 -5.47937541 196.85582457 -5.48307019 195.57322937 C-5.48873175 192.74869286 -5.48002565 189.92438006 -5.47143555 187.09985352 C-5.47250781 185.08150165 -5.47444566 183.06315009 -5.47718811 181.0447998 C-5.48204817 175.55119442 -5.47436657 170.05766988 -5.46423507 164.56407428 C-5.45547458 158.82698322 -5.45721161 153.08989484 -5.45759583 147.35279846 C-5.45665834 137.71785116 -5.44796268 128.0829353 -5.43432617 118.44799805 C-5.41859532 107.29171693 -5.41332817 96.13547025 -5.41406173 84.97917885 C-5.41467105 74.26734972 -5.40957462 63.55553187 -5.40126991 52.84370613 C-5.39772973 48.27552261 -5.39590562 43.70734308 -5.39537621 39.13915825 C-5.3943752 33.76549636 -5.38829853 28.39186364 -5.37821007 23.01821136 C-5.37527736 21.04002371 -5.37406125 19.0618327 -5.3746376 17.08364296 C-5.37512466 14.39532499 -5.36950872 11.70709003 -5.36222839 9.01878357 C-5.363777 8.22541625 -5.3653256 7.43204893 -5.36692113 6.61464018 C-5.337109 0.00534658 -5.337109 0.00534658 0 0 Z " fill="#B0B0B0" transform="translate(204.228515625,68.87060546875)"/>
<path d="M0 0 C0.77943466 0.00222061 1.55886932 0.00444122 2.36192322 0.00672913 C3.68317955 0.00684242 3.68317955 0.00684242 5.03112793 0.00695801 C5.98841293 0.01211929 6.94569794 0.01728058 7.93199158 0.02259827 C9.39480812 0.02472069 9.39480812 0.02472069 10.88717651 0.02688599 C14.01542675 0.03250319 17.14360656 0.04505859 20.27183533 0.05775452 C22.38706867 0.0627673 24.50230313 0.06733059 26.61753845 0.07142639 C31.8148314 0.08247821 37.0120714 0.09975436 42.20933533 0.12025452 C42.20933533 6.06025452 42.20933533 12.00025452 42.20933533 18.12025452 C42.86933533 18.12025452 43.52933533 18.12025452 44.20933533 18.12025452 C44.53933533 17.46025452 44.86933533 16.80025452 45.20933533 16.12025452 C45.20933533 17.44025452 45.20933533 18.76025452 45.20933533 20.12025452 C43.88933533 20.12025452 42.56933533 20.12025452 41.20933533 20.12025452 C41.20933533 13.85025452 41.20933533 7.58025452 41.20933533 1.12025452 C27.34933533 1.12025452 13.48933533 1.12025452 -0.79066467 1.12025452 C-0.79066467 68.77025452 -0.79066467 136.42025452 -0.79066467 206.12025452 C13.39933533 206.12025452 27.58933533 206.12025452 42.20933533 206.12025452 C42.20933533 183.35025452 42.20933533 160.58025452 42.20933533 137.12025452 C43.19933533 137.45025452 44.18933533 137.78025452 45.20933533 138.12025452 C45.10199139 147.09954603 44.9893906 156.07875146 44.86999607 165.05789089 C44.81472897 169.22684468 44.76130307 173.39580542 44.71202087 177.56483459 C44.66443298 181.58489345 44.61209247 185.60486441 44.55639458 189.6248188 C44.53594567 191.16185899 44.51723686 192.69892331 44.50026131 194.23600578 C44.47627312 196.38167458 44.44621149 198.52717581 44.41465759 200.67274475 C44.39134117 202.50808022 44.39134117 202.50808022 44.36755371 204.38049316 C44.20933533 207.12025452 44.20933533 207.12025452 43.20933533 208.12025452 C41.8385365 208.21819982 40.46277852 208.24823532 39.08848572 208.24964905 C38.21410355 208.25280121 37.33972137 208.25595337 36.43884277 208.25920105 C35.01232643 208.2561647 35.01232643 208.2561647 33.55699158 208.25306702 C32.5865239 208.25402374 31.61605621 208.25498047 30.61618042 208.25596619 C28.55909663 208.25664816 26.50201071 208.25479266 24.44493103 208.25062561 C21.28887611 208.24528336 18.13296388 208.25056704 14.97691345 208.25697327 C12.98277251 208.25631237 10.98863166 208.25503098 8.99449158 208.25306702 C8.04550491 208.25509125 7.09651825 208.25711548 6.11877441 208.25920105 C4.80247292 208.25447281 4.80247292 208.25447281 3.45957947 208.24964905 C2.68538162 208.24885345 1.91118378 208.24805786 1.11352539 208.24723816 C-0.79066467 208.12025452 -0.79066467 208.12025452 -2.79066467 207.12025452 C-2.81399029 180.27846269 -2.83164218 153.43667238 -2.84247684 126.59487247 C-2.84764052 114.13270797 -2.85468458 101.67054975 -2.86610413 89.20838928 C-2.87604878 78.35063674 -2.88251758 67.49288875 -2.88475317 56.63513178 C-2.88606065 50.88219702 -2.88914884 45.12927528 -2.89639473 39.37634468 C-2.9031515 33.96824476 -2.90528234 28.5601633 -2.90377235 23.15205956 C-2.90404884 21.16097031 -2.90605598 19.16988048 -2.90987015 17.17879486 C-2.91480204 14.47286199 -2.91366484 11.76699999 -2.91091919 9.06106567 C-2.91383203 8.26244317 -2.91674487 7.46382066 -2.91974598 6.64099747 C-2.90190961 0.19488168 -2.90190961 0.19488168 0 0 Z " fill="#C5DFC6" transform="translate(1223.7906646728516,68.87974548339844)"/>
<path d="M0 0 C0.33 0 0.66 0 1 0 C1 50.16 1 100.32 1 152 C15.19 151.67 29.38 151.34 44 151 C44.04898438 145.49699219 44.09796875 139.99398437 44.1484375 134.32421875 C44.18385961 130.81964405 44.21984 127.31509261 44.2578125 123.81054688 C44.3179149 118.25874314 44.37604804 112.70697162 44.421875 107.1550293 C44.45898818 102.67452237 44.5054155 98.19419656 44.55806351 93.71384621 C44.57647016 92.01203428 44.59162767 90.31018374 44.60334396 88.60831261 C44.66791892 79.54539975 44.87882945 70.87014781 47 62 C47.66 62 48.32 62 49 62 C49.185625 60.7934375 49.185625 60.7934375 49.375 59.5625 C49.58125 58.716875 49.7875 57.87125 50 57 C50.66 56.67 51.32 56.34 52 56 C50.14070277 62.64034726 50.14070277 62.64034726 48.97938538 65.60881042 C47.83236541 69.58044634 47.7001867 73.28059827 47.69702148 77.3762207 C47.68436249 78.60407539 47.68436249 78.60407539 47.67144775 79.85673523 C47.6457784 82.54642348 47.63355829 85.23600234 47.62109375 87.92578125 C47.60491349 89.79811974 47.58773294 91.67044983 47.56959534 93.54277039 C47.52399946 98.45944347 47.48913858 103.37612777 47.45739746 108.29290771 C47.40542242 116.18051908 47.3405433 124.06800786 47.26918221 131.95546532 C47.24628865 134.71479052 47.23006175 137.47409986 47.21446228 140.23347473 C47.20106325 141.91256897 47.18744912 143.5916615 47.17358398 145.27075195 C47.16966393 146.42941269 47.16966393 146.42941269 47.16566467 147.61148071 C47.11364307 152.88635693 47.11364307 152.88635693 46 154 C44.5932478 154.09804851 43.18164864 154.12798186 41.77148438 154.12939453 C40.42503845 154.13412277 40.42503845 154.13412277 39.0513916 154.13894653 C37.58735901 154.13591019 37.58735901 154.13591019 36.09375 154.1328125 C34.6011969 154.13424759 34.6011969 154.13424759 33.07849121 154.13571167 C30.97013282 154.1363936 28.86177235 154.13453844 26.75341797 154.13037109 C23.51394973 154.12502303 20.27462015 154.13031567 17.03515625 154.13671875 C14.99218719 154.13605797 12.94921822 154.13477681 10.90625 154.1328125 C9.93022827 154.13483673 8.95420654 154.13686096 7.9486084 154.13894653 C7.05097778 154.13579437 6.15334717 154.13264221 5.22851562 154.12939453 C4.43433228 154.12859894 3.64014893 154.12780334 2.82189941 154.12698364 C1 154 1 154 0 153 C-0.0966888 151.02571766 -0.12187075 149.04792169 -0.12025452 147.0712738 C-0.12162918 145.78253357 -0.12300385 144.49379333 -0.12442017 143.16600037 C-0.12088055 141.72451759 -0.11724573 140.28303505 -0.11352539 138.84155273 C-0.11324353 137.33403526 -0.11340123 135.82651764 -0.1139679 134.31900024 C-0.11425591 130.21380656 -0.10835861 126.10864185 -0.10139394 122.00345492 C-0.09516099 117.7179674 -0.09455665 113.43247928 -0.09336853 109.14698792 C-0.09025504 101.02613348 -0.08204141 92.90529244 -0.07201904 84.78444391 C-0.06085845 75.54155126 -0.05534759 66.29865798 -0.05032361 57.05576026 C-0.03985881 38.0371659 -0.02225903 19.01858403 0 0 Z " fill="#B9DCB5" transform="translate(930,70)"/>
<path d="M0 0 C1.22244667 0.00333092 1.22244667 0.00333092 2.46958923 0.00672913 C3.39046829 0.00680466 4.31134735 0.00688019 5.26013184 0.00695801 C6.2611644 0.01211929 7.26219696 0.01728058 8.29356384 0.02259827 C9.31316696 0.02401321 10.33277008 0.02542816 11.38327026 0.02688599 C14.65417867 0.03250355 17.92501972 0.04505902 21.19590759 0.05775452 C23.40749515 0.06276725 25.61908377 0.06733055 27.83067322 0.07142639 C33.26494116 0.08247868 38.69916957 0.09923389 44.13340759 0.12025452 C44.13340759 0.78025452 44.13340759 1.44025452 44.13340759 2.12025452 C29.28340759 1.79025452 14.43340759 1.46025452 -0.86659241 1.12025452 C-0.86659241 44.02025452 -0.86659241 86.92025452 -0.86659241 131.12025452 C27.23956756 130.82418318 27.23956756 130.82418318 55.13340759 128.12025452 C54.80340759 128.78025452 54.47340759 129.44025452 54.13340759 130.12025452 C52.48340759 130.12025452 50.83340759 130.12025452 49.13340759 130.12025452 C49.13340759 130.78025452 49.13340759 131.44025452 49.13340759 132.12025452 C41.88854208 132.14552191 34.64368785 132.16308632 27.39878845 132.17518616 C24.93198726 132.18022808 22.46518907 132.18706142 19.99839783 132.19569397 C16.4613623 132.20776576 12.92436614 132.21348408 9.38731384 132.21791077 C8.27691238 132.22307205 7.16651093 132.22823334 6.02246094 132.23355103 C4.49098671 132.23366432 4.49098671 132.23366432 2.92857361 132.23377991 C1.57289024 132.23711082 1.57289024 132.23711082 0.18981934 132.24050903 C-1.86659241 132.12025452 -1.86659241 132.12025452 -2.86659241 131.12025452 C-2.96493576 129.43965451 -2.99291243 127.75490118 -2.99357605 126.07142639 C-2.99639587 124.97765686 -2.9992157 123.88388733 -3.00212097 122.75697327 C-3.00009674 121.54654358 -2.99807251 120.33611389 -2.99598694 119.08900452 C-2.99773926 117.82250061 -2.99949158 116.5559967 -3.001297 115.25111389 C-3.00587085 111.76773632 -3.00408197 108.28438824 -3.00091791 104.80101013 C-2.99839406 101.16328347 -3.00073192 97.5255594 -3.00230408 93.88783264 C-3.0041257 87.77780197 -3.00171965 81.66778336 -2.9969635 75.55775452 C-2.99152089 68.48397606 -2.99328355 61.41022643 -2.99878991 54.33644867 C-3.00332124 48.27361554 -3.00397148 42.21079112 -3.00135124 36.14795685 C-2.99978858 32.52226285 -2.9995944 28.89658242 -3.00288773 25.27088928 C-3.00630059 21.23107687 -3.00157637 17.19131449 -2.99598694 13.15150452 C-2.99801117 11.94107483 -3.0000354 10.73064514 -3.00212097 9.48353577 C-2.99930115 8.38976624 -2.99648132 7.2959967 -2.99357605 6.16908264 C-2.99319902 5.21263855 -2.992822 4.25619446 -2.99243355 3.27076721 C-2.83347932 0.55438142 -2.71960126 0.17520929 0 0 Z " fill="#C4E1BF" transform="translate(761.8665924072266,47.87974548339844)"/>
<path d="M0 0 C0.33 0 0.66 0 1 0 C1 14.85 1 29.7 1 45 C-6.26 45 -13.52 45 -21 45 C-21 56.88 -21 68.76 -21 81 C-13.41 81 -5.82 81 2 81 C2 108.06 2 135.12 2 163 C2.66 163 3.32 163 4 163 C4.17015625 163.85722656 4.3403125 164.71445313 4.515625 165.59765625 C5.91016572 172.17721806 7.45946855 177.30986017 11 183 C10.67 183.66 10.34 184.32 10 185 C2.707128 173.90728207 -0.18333516 163.53896072 -0.11352539 150.22875977 C-0.11367142 149.48646622 -0.11381744 148.74417267 -0.1139679 147.97938538 C-0.11327674 145.55002824 -0.10552203 143.12074983 -0.09765625 140.69140625 C-0.09578923 138.99747255 -0.09436667 137.30353831 -0.09336853 135.60960388 C-0.08956568 131.16926562 -0.07975462 126.7289605 -0.06866455 122.28863525 C-0.05840227 117.75037077 -0.05386062 113.21210089 -0.04882812 108.67382812 C-0.0381302 99.78253524 -0.02055165 90.89127557 0 82 C-7.26 82 -14.52 82 -22 82 C-23.55475264 78.89049471 -23.14199524 75.5955297 -23.1328125 72.18359375 C-23.13376923 71.41193375 -23.13472595 70.64027374 -23.13571167 69.8452301 C-23.13639246 68.21363239 -23.1345452 66.58203197 -23.13037109 64.95043945 C-23.12501413 62.44411179 -23.13032319 59.93796275 -23.13671875 57.43164062 C-23.13605809 55.84895794 -23.13477719 54.26627536 -23.1328125 52.68359375 C-23.13483673 51.92944687 -23.13686096 51.17529999 -23.13894653 50.39830017 C-23.11495624 45.11495624 -23.11495624 45.11495624 -22 44 C-14.74 44 -7.48 44 0 44 C0 29.48 0 14.96 0 0 Z " fill="#C0C1C0" transform="translate(591,25)"/>
<path d="M0 0 C1.32 0 2.64 0 4 0 C5.60337726 2.25660504 6.76582217 4.53164435 8 7 C4.125 5.125 4.125 5.125 3 4 C2.98969254 4.83716049 2.97938507 5.67432098 2.96876526 6.53684998 C2.87096218 14.40974736 2.76847275 22.28256658 2.66066074 30.15533352 C2.60539471 34.20321817 2.55196898 38.25111 2.50268555 42.29907227 C2.45509607 46.20242362 2.4027555 50.10568449 2.34705925 54.0089283 C2.32661106 55.50131045 2.30790213 56.99371743 2.29092598 58.48614311 C2.2669362 60.56954849 2.23687481 62.6527814 2.20532227 64.73608398 C2.18977798 65.92411118 2.1742337 67.11213837 2.15821838 68.33616638 C2 71 2 71 1 72 C-0.38160115 72.0927833 -1.76788038 72.11747043 -3.15258789 72.11352539 C-4.03342545 72.11344986 -4.914263 72.11337433 -5.8217926 72.11329651 C-6.77907761 72.10813522 -7.73636261 72.10297394 -8.72265625 72.09765625 C-9.69786728 72.0962413 -10.67307831 72.09482635 -11.67784119 72.09336853 C-14.80609143 72.08775133 -17.93427123 72.07519593 -21.0625 72.0625 C-23.17773334 72.05748722 -25.29296781 72.05292393 -27.40820312 72.04882812 C-32.60549296 72.03777631 -37.80274145 72.02102146 -43 72 C-43 71.34 -43 70.68 -43 70 C-28.81 70 -14.62 70 0 70 C0 46.9 0 23.8 0 0 Z " fill="#908F91" transform="translate(244,205)"/>
<path d="M0 0 C0.99 0.33 1.98 0.66 3 1 C2.89265606 9.97929151 2.78005528 18.95849695 2.66066074 27.93763638 C2.60539364 32.10659016 2.55196774 36.27555091 2.50268555 40.44458008 C2.45509765 44.46463894 2.40275714 48.48460989 2.34705925 52.50456429 C2.32661034 54.04160447 2.30790153 55.57866879 2.29092598 57.11575127 C2.2669378 59.26142006 2.23687617 61.40692129 2.20532227 63.55249023 C2.18977798 64.77604721 2.1742337 65.99960419 2.15821838 67.26023865 C2 70 2 70 1 71 C-0.38160115 71.0927833 -1.76788038 71.11747043 -3.15258789 71.11352539 C-4.03342545 71.11344986 -4.914263 71.11337433 -5.8217926 71.11329651 C-6.77907761 71.10813522 -7.73636261 71.10297394 -8.72265625 71.09765625 C-9.69786728 71.0962413 -10.67307831 71.09482635 -11.67784119 71.09336853 C-14.80609143 71.08775133 -17.93427123 71.07519593 -21.0625 71.0625 C-23.17773334 71.05748722 -25.29296781 71.05292393 -27.40820312 71.04882812 C-32.60549296 71.03777631 -37.80274145 71.02102146 -43 71 C-43 70.34 -43 69.68 -43 69 C-28.81 69 -14.62 69 0 69 C0 46.23 0 23.46 0 0 Z " fill="#B5D7AF" transform="translate(1266,206)"/>
<path d="M0 0 C3.75597878 4.12182087 5.40024354 8.12454209 7.125 13.3125 C7.37636719 14.03373047 7.62773438 14.75496094 7.88671875 15.49804688 C18.31169141 45.92695923 12.43860623 76.59759782 -1.24707031 104.96801758 C-5.6127217 113.80636085 -5.6127217 113.80636085 -8 115 C-7.40058854 111.08619578 -6.18558684 108.16328056 -4.3125 104.6875 C-0.89403917 97.98960665 1.83335835 91.1969076 4.27099609 84.09326172 C4.74520904 82.73160672 5.236889 81.37586781 5.74853516 80.02783203 C13.65142783 59.07342947 12.86581426 32.13035617 3.75 11.75 C3.41484375 11.10546875 3.0796875 10.4609375 2.734375 9.796875 C2 8 2 8 2 4 C1.34 4 0.68 4 0 4 C0 2.68 0 1.36 0 0 Z " fill="#A3A2A3" transform="translate(557,101)"/>
<path d="M0 0 C0.99 0.33 1.98 0.66 3 1 C-12.45530155 14.13700632 -35.82159072 16.238891 -55.1875 16.3125 C-56.2442392 16.31742462 -56.2442392 16.31742462 -57.32232666 16.32244873 C-69.48622063 16.34074341 -81.2575886 15.43008606 -93 12 C-93.66 11.34 -94.32 10.68 -95 10 C-93.29100181 10.11555504 -91.58280131 10.24293003 -89.875 10.375 C-88.92367187 10.44460937 -87.97234375 10.51421875 -86.9921875 10.5859375 C-84 11 -84 11 -81.38867188 12.00488281 C-77.11094995 13.26107839 -73.22338561 13.32415387 -68.7890625 13.3359375 C-67.90326508 13.3425943 -67.01746765 13.3492511 -66.10482788 13.35610962 C-64.23055077 13.36620971 -62.35623789 13.37092746 -60.48193359 13.37060547 C-57.66830824 13.37493338 -54.85631227 13.41115383 -52.04296875 13.44921875 C-42.04642711 13.51039277 -33.12313747 12.81723744 -23.52099609 9.95947266 C-19.64672898 8.90373352 -15.98856973 8.41820513 -12 8 C-12 7.34 -12 6.68 -12 6 C-11.38511719 5.73445312 -10.77023438 5.46890625 -10.13671875 5.1953125 C-9.32847656 4.84210938 -8.52023438 4.48890625 -7.6875 4.125 C-6.48673828 3.60292969 -6.48673828 3.60292969 -5.26171875 3.0703125 C-2.8038166 1.97428106 -2.8038166 1.97428106 0 0 Z " fill="#A1A1A1" transform="translate(150,211)"/>
<path d="M0 0 C1.12687859 3.99947316 2.2511619 7.99967151 3.375 12 C3.69210937 13.12535156 4.00921875 14.25070313 4.3359375 15.41015625 C5.97660473 21.25503326 7.56845261 27.10028955 9 33 C4.38316772 37.45763116 -1.02886841 39.05851935 -7 41 C-8.794375 41.5878125 -8.794375 41.5878125 -10.625 42.1875 C-26.2216602 45.94225153 -45.86690936 46.24430287 -60 38 C-58.02 37.505 -58.02 37.505 -56 37 C-56 37.66 -56 38.32 -56 39 C-54.329375 39.185625 -54.329375 39.185625 -52.625 39.375 C-49.47754504 39.75467551 -46.46065671 40.34217285 -43.375 41.0625 C-36.93190555 42.39281534 -30.54867974 42.23911551 -24 42 C-23.18402344 41.97035156 -22.36804688 41.94070312 -21.52734375 41.91015625 C-12.82761021 41.26280766 -4.69196724 37.94459859 3 34 C3.99 34 4.98 34 6 34 C5.01231647 26.21646411 3.2131383 18.95064381 0.76489258 11.52148438 C-0.38371594 8.03340814 -1.37889068 4.62197455 -2 1 C-3.98 1.33 -5.96 1.66 -8 2 C-6.14210462 -1.71579076 -3.44525918 -1.06921837 0 0 Z " fill="#A7A7A7" transform="translate(674,183)"/>
<path d="M0 0 C0.6700708 0.15686279 1.3401416 0.31372559 2.03051758 0.4753418 C6.77304151 1.72589983 10.45923185 3.75757418 14.625 6.25 C16.6062585 6.97045764 18.60169589 7.65781343 20.625 8.25 C20.625 8.91 20.625 9.57 20.625 10.25 C16.67717386 9.24204439 13.11775373 8.06532158 9.4375 6.3125 C-3.91609008 0.20539737 -21.72823896 -2.38852475 -35.98828125 2.06640625 C-43.9299616 4.94503455 -43.9299616 4.94503455 -49.30078125 11.10546875 C-51.67441095 17.10141485 -52.71652821 21.84047635 -51.375 28.25 C-53.42295423 26.2873772 -54.32476638 24.8222693 -54.57421875 21.98046875 C-54.56358877 19.73045617 -54.50458525 17.49614438 -54.375 15.25 C-53.715 15.25 -53.055 15.25 -52.375 15.25 C-52.375 14.404375 -52.375 13.55875 -52.375 12.6875 C-50.90481462 7.63373777 -47.74709382 5.04628615 -43.375 2.25 C-40.87899774 1.45539254 -39.02333457 1.30517364 -36.375 1.25 C-36.375 0.59 -36.375 -0.07 -36.375 -0.75 C-24.60737805 -3.11893208 -11.65675869 -2.74885254 0 0 Z " fill="#A1A0A1" transform="translate(110.375,43.75)"/>
<path d="M0 0 C0.495 0.99 0.495 0.99 1 2 C0.29418945 3.62548828 0.29418945 3.62548828 -0.88671875 5.5703125 C-1.54281128 6.65517944 -1.54281128 6.65517944 -2.2121582 7.76196289 C-2.94245239 8.93166626 -2.94245239 8.93166626 -3.6875 10.125 C-4.18789795 10.93251709 -4.6882959 11.74003418 -5.20385742 12.57202148 C-10.3459836 20.74391496 -16.00490555 28.43833899 -22 36 C-22.54527344 36.6894873 -23.09054687 37.37897461 -23.65234375 38.08935547 C-34.88595815 52.20596156 -47.08904032 65.40394178 -60 78 C-60 75 -60 75 -57.40234375 72.14453125 C-56.25379056 71.02724264 -55.09841485 69.91693876 -53.9375 68.8125 C-52.72745295 67.63196234 -51.51910387 66.44968164 -50.3125 65.265625 C-49.73242188 64.69779297 -49.15234375 64.12996094 -48.5546875 63.54492188 C-45.51207565 60.5214219 -42.76330119 57.27607873 -40 54 C-38.98419896 52.82324578 -37.96714856 51.6475695 -36.94921875 50.47265625 C-35.84097906 49.19024827 -34.7329074 47.90769507 -33.625 46.625 C-33.0880249 46.0050415 -32.5510498 45.38508301 -31.99780273 44.74633789 C-29.2085647 41.57496278 -29.2085647 41.57496278 -27 38 C-26.34 38 -25.68 38 -25 38 C-24.73316406 37.43152344 -24.46632813 36.86304688 -24.19140625 36.27734375 C-22.9366099 33.87883138 -21.50930424 31.76599862 -19.9375 29.5625 C-19.32132813 28.68980469 -18.70515625 27.81710938 -18.0703125 26.91796875 C-17.00061573 25.41030179 -15.93074659 23.90275494 -14.85839844 22.39697266 C-10.41346584 16.14202815 -6.16830337 10.02536834 -3 3 C-2.34 3 -1.68 3 -1 3 C-0.67 2.01 -0.34 1.02 0 0 Z " fill="#A3A2A4" transform="translate(548,216)"/>
<path d="M0 0 C0.68669769 0.00215515 1.37339539 0.0043103 2.0809021 0.00653076 C21.84971284 0.10613915 40.22551217 4.14270792 57.8125 13.3125 C53.83004349 14.6399855 51.36460457 13.31157829 47.625 11.875 C46.97080078 11.63201172 46.31660156 11.38902344 45.64257812 11.13867188 C44.02946714 10.5381707 42.4205565 9.92640797 40.8125 9.3125 C40.8125 8.6525 40.8125 7.9925 40.8125 7.3125 C39.63880859 7.22162109 39.63880859 7.22162109 38.44140625 7.12890625 C37.42949219 7.04511719 36.41757813 6.96132812 35.375 6.875 C33.86099609 6.75318359 33.86099609 6.75318359 32.31640625 6.62890625 C29.8125 6.3125 29.8125 6.3125 28.8125 5.3125 C26.46526034 4.915007 24.10921452 4.56881277 21.75 4.25 C20.45964844 4.07339844 19.16929688 3.89679688 17.83984375 3.71484375 C16.34130859 3.51568359 16.34130859 3.51568359 14.8125 3.3125 C14.8125 2.6525 14.8125 1.9925 14.8125 1.3125 C3.01874282 1.58886847 -8.69688162 1.98375612 -20.375 3.75 C-21.19258789 3.87221924 -22.01017578 3.99443848 -22.85253906 4.12036133 C-26.89800645 4.77683268 -30.40147075 5.69091027 -34.1875 7.3125 C-37 7.4375 -37 7.4375 -39.1875 7.3125 C-36.50598643 5.52482429 -34.71055515 4.7154905 -31.6875 3.8125 C-30.9140625 3.5753125 -30.140625 3.338125 -29.34375 3.09375 C-19.51288709 0.66036809 -10.1231879 -0.05709913 0 0 Z " fill="#A9AAAA" transform="translate(91.1875,-0.3125)"/>
<path d="M0 0 C1.23690539 3.71071617 0.58944679 4.9215402 -0.6875 8.5625 C-1.05875 9.63113281 -1.43 10.69976562 -1.8125 11.80078125 C-3.15011203 15.40441367 -4.6051871 18.94153595 -6.16796875 22.453125 C-8.93316686 30.91748729 -8.11541665 40.19986071 -8.0625 49 C-8.05747576 50.45702971 -8.05291449 51.9140611 -8.04882812 53.37109375 C-8.03789388 56.9140977 -8.02068 60.45703797 -8 64 C-7.34 64 -6.68 64 -6 64 C-5.89042969 64.76183594 -5.78085937 65.52367187 -5.66796875 66.30859375 C-4.76565884 72.18461195 -3.66550721 77.6190646 -1.48828125 83.16015625 C-1 85 -1 85 -2 88 C-4.92333571 81.81123611 -6.71743095 75.5313741 -8.1875 68.875 C-8.35411133 68.1236377 -8.52072266 67.37227539 -8.69238281 66.59814453 C-13.53456439 43.88363977 -10.90916726 20.61344143 0 0 Z " fill="#ABABAA" transform="translate(391,104)"/>
<path d="M0 0 C-0.66 0.33 -1.32 0.66 -2 1 C-4.35644902 -0.05715382 -6.60108437 -1.16162751 -8.875 -2.375 C-14.20838559 -5.28327614 -14.20838559 -5.28327614 -20 -7 C-20 -7.66 -20 -8.32 -20 -9 C-20.94875 -8.979375 -21.8975 -8.95875 -22.875 -8.9375 C-26 -9 -26 -9 -28 -10 C-42.66850308 -11.04436512 -57.26212983 -10.44330705 -71 -5 C-71.66 -5.33 -72.32 -5.66 -73 -6 C-50.71146395 -20.36372324 -20.60729038 -14.44132948 0 0 Z " fill="#ACACAC" transform="translate(335,79)"/>
<path d="M0 0 C1 1 1 1 1.12025452 2.79066467 C1.1169236 3.95981667 1.1169236 3.95981667 1.11352539 5.15258789 C1.11344986 6.03342545 1.11337433 6.914263 1.11329651 7.8217926 C1.10813522 8.77907761 1.10297394 9.73636261 1.09765625 10.72265625 C1.0962413 11.69786728 1.09482635 12.67307831 1.09336853 13.67784119 C1.08775133 16.80609143 1.07519593 19.93427123 1.0625 23.0625 C1.05748722 25.17773334 1.05292393 27.29296781 1.04882812 29.40820312 C1.03777631 34.60549296 1.02102146 39.80274145 1 45 C-2 46 -2 46 -5 45 C-12.74743992 44.55303231 -20.35395112 45.8849512 -28 47 C-27 45 -27 45 -25.20703125 44.3671875 C-17.2372385 42.72902455 -7.837298 41.38756733 0 44 C0 30.14 0 16.28 0 2 C-0.99 2.495 -0.99 2.495 -2 3 C-4.7328711 3.20954922 -7.45067161 3.37507292 -10.1875 3.5 C-15.52132495 3.7498062 -20.72385471 4.16140737 -26 5 C-25.67 4.34 -25.34 3.68 -25 3 C-17.03070307 0.7583139 -8.29715677 -0.95878256 0 0 Z " fill="#A8CFA5" transform="translate(1028,66)"/>
<path d="M0 0 C0.33 0 0.66 0 1 0 C1 27.06 1 54.12 1 82 C1.66 82 2.32 82 3 82 C3.25523437 83.28583984 3.25523437 83.28583984 3.515625 84.59765625 C4.91016572 91.17721806 6.45946855 96.30986017 10 102 C9.505 102.99 9.505 102.99 9 104 C8.04759441 102.5513572 7.11403558 101.09032391 6.1875 99.625 C5.66542969 98.81289062 5.14335938 98.00078125 4.60546875 97.1640625 C-0.77016871 86.56974051 -0.39558115 76.24695978 -0.29296875 64.6484375 C-0.28736474 62.7794326 -0.28309845 60.91042326 -0.28010559 59.04141235 C-0.26872014 54.1521969 -0.23930802 49.26325415 -0.20599365 44.37414551 C-0.17515608 39.37316577 -0.16157115 34.37214142 -0.14648438 29.37109375 C-0.1144316 19.58061018 -0.06331253 9.79032788 0 0 Z " fill="#828382" transform="translate(592,106)"/>
<path d="M0 0 C-0.66 0.33 -1.32 0.66 -2 1 C-4.05497835 0.1626774 -6.07080993 -0.77162593 -8.0625 -1.75 C-22.11399401 -8.38500208 -36.16049515 -11.25102673 -51.6875 -11.3125 C-52.52450439 -11.31789795 -53.36150879 -11.3232959 -54.22387695 -11.32885742 C-58.91224823 -11.27430286 -62.55964482 -10.62543156 -67 -9 C-68.95079406 -8.73004677 -70.9108672 -8.51871703 -72.875 -8.375 C-73.84179688 -8.30023438 -74.80859375 -8.22546875 -75.8046875 -8.1484375 C-76.89136719 -8.07496094 -76.89136719 -8.07496094 -78 -8 C-56.83465406 -22.11023063 -19.80284093 -12.1517433 0 0 Z " fill="#A3A4A4" transform="translate(524,67)"/>
<path d="M0 0 C4.03180626 1.05177555 7.78655006 2.29984693 11.62109375 3.93359375 C16.73316956 5.99732996 21.79776083 7.21857742 27.1875 8.3125 C41.0586582 11.28814124 54.56792414 15.455481 68 20 C68 20.33 68 20.66 68 21 C60.59948097 20.24740484 60.59948097 20.24740484 57.78515625 19.0859375 C53.98503037 17.60426149 50.10943197 16.8374504 46.125 16 C40.68311093 14.84483947 35.33774709 13.58454658 30 12 C28.87980469 11.68160156 27.75960937 11.36320312 26.60546875 11.03515625 C24.23977909 10.36194856 21.87526859 9.68458851 19.51171875 9.00390625 C17.37275389 8.39243354 15.23027204 7.79288445 13.08203125 7.21484375 C8.02562732 5.81496188 4.13763786 4.2665562 0 1 C0 0.67 0 0.34 0 0 Z " fill="#9C9C9C" transform="translate(66,79)"/>
<path d="M0 0 C0.99 0.33 1.98 0.66 3 1 C-2.33819087 5.18158285 -7.87555463 7.95567297 -14.1875 10.3125 C-15.20263672 10.69365967 -15.20263672 10.69365967 -16.23828125 11.08251953 C-23.19857001 13.59197658 -29.50444457 14.16922655 -36.8125 14.125 C-37.60914063 14.12161621 -38.40578125 14.11823242 -39.2265625 14.11474609 C-54.01535168 13.98464832 -54.01535168 13.98464832 -57 11 C-45.6496798 10.78448759 -34.33226969 11.4312689 -23 12 C-23 11.34 -23 10.68 -23 10 C-21.1746875 9.7215625 -21.1746875 9.7215625 -19.3125 9.4375 C-13.09952662 8.08986941 -4.57355853 4.57355853 0 0 Z " fill="#99999A" transform="translate(331,213)"/>
<path d="M0 0 C6.24795675 -0.02527124 12.49590041 -0.04283344 18.74389648 -0.05493164 C20.87118014 -0.05997298 22.99846031 -0.06680591 25.12573242 -0.07543945 C28.17627826 -0.08751379 31.22677845 -0.09323014 34.27734375 -0.09765625 C35.71327126 -0.10539818 35.71327126 -0.10539818 37.1782074 -0.11329651 C38.49946373 -0.11340981 38.49946373 -0.11340981 39.84741211 -0.11352539 C40.62684677 -0.115746 41.40628143 -0.11796661 42.20933533 -0.12025452 C44 0 44 0 45 1 C45.08685603 2.56172745 45.10702219 4.12729344 45.09765625 5.69140625 C45.09443359 6.63564453 45.09121094 7.57988281 45.08789062 8.55273438 C45.07532227 10.04256836 45.07532227 10.04256836 45.0625 11.5625 C45.05798828 12.55958984 45.05347656 13.55667969 45.04882812 14.58398438 C45.03700007 17.05604849 45.02051849 19.52799518 45 22 C45.66 22.33 46.32 22.66 47 23 C46.67 23.66 46.34 24.32 46 25 C45.01 25 44.02 25 43 25 C43 17.08 43 9.16 43 1 C28.81 1 14.62 1 0 1 C0 0.67 0 0.34 0 0 Z " fill="#BCD7BD" transform="translate(931,69)"/>
<path d="M0 0 C0.33 0 0.66 0 1 0 C1 7.92 1 15.84 1 24 C6.88615948 23.90236837 12.77172503 23.79921392 18.6574707 23.68261719 C20.65415831 23.64464939 22.65090685 23.6097444 24.64770508 23.578125 C35.58575224 23.40280944 46.24139666 23.17085274 57 21 C56.67 21.66 56.34 22.32 56 23 C54.35 23 52.7 23 51 23 C51 23.66 51 24.32 51 25 C34.17 25 17.34 25 0 25 C0 16.75 0 8.5 0 0 Z " fill="#C8E6C4" transform="translate(760,155)"/>
<path d="M0 0 C0 0.66 0 1.32 0 2 C-0.59167969 1.79503906 -1.18335938 1.59007813 -1.79296875 1.37890625 C-14.2499757 -2.86826251 -24.91373608 -3.31720646 -37.0625 2.125 C-42.28112911 4.82262982 -45.41345038 8.45259756 -49 13 C-49.98510274 14.01467857 -50.98041267 15.01997874 -52 16 C-50.72978596 10.21346937 -47.62187747 6.53953907 -43 3 C-40.7734375 2.30078125 -40.7734375 2.30078125 -39 2 C-39 1.34 -39 0.68 -39 0 C-26.83701319 -6.54930059 -12.3958557 -5.42318687 0 0 Z " fill="#A6A6A6" transform="translate(301,109)"/>
<path d="M0 0 C3.75597878 4.12182087 5.40024354 8.12454209 7.125 13.3125 C7.37636719 14.03373047 7.62773438 14.75496094 7.88671875 15.49804688 C8.62592864 17.6556883 9.31924342 19.8232846 10 22 C10.38671875 23.21042969 10.7734375 24.42085937 11.171875 25.66796875 C12.61241006 31.66328912 12.20904863 37.87738025 12.125 44 C12.11597656 45.25167969 12.10695313 46.50335938 12.09765625 47.79296875 C12.07422716 50.8621801 12.04142147 53.93098756 12 57 C11.67 57 11.34 57 11 57 C10.9906543 56.35675781 10.98130859 55.71351563 10.97167969 55.05078125 C10.68442261 39.25727448 10.18116245 24.1176201 2.734375 9.796875 C2 8 2 8 2 4 C1.34 4 0.68 4 0 4 C0 2.68 0 1.36 0 0 Z " fill="#919192" transform="translate(557,101)"/>
<path d="M0 0 C0.33 0 0.66 0 1 0 C1.01213028 1.23575523 1.01213028 1.23575523 1.02450562 2.49647522 C1.10260744 10.27927201 1.18994459 18.06188552 1.28752708 25.84446049 C1.33736694 29.84508391 1.38369753 33.84568249 1.421875 37.84643555 C1.45888402 41.71097816 1.50528522 45.57530655 1.55806351 49.43966484 C1.57652482 50.91032573 1.59166294 52.3810324 1.60334396 53.85176277 C1.62034903 55.91970652 1.64941574 57.98716843 1.68115234 60.05493164 C1.69447601 61.22963516 1.70779968 62.40433868 1.7215271 63.61463928 C2.02941851 67.35763722 2.85959109 70.43248914 4 74 C3.01 73.67 2.02 73.34 1 73 C-0.15190466 69.54428603 -0.12007093 66.87950974 -0.11352539 63.23364258 C-0.11367142 62.55045456 -0.11381744 61.86726654 -0.1139679 61.16337585 C-0.11327169 58.90706193 -0.10549296 56.65083074 -0.09765625 54.39453125 C-0.09579103 52.82940211 -0.09436762 51.26427239 -0.09336853 49.69914246 C-0.08955152 45.58096707 -0.07972818 41.46282698 -0.06866455 37.34466553 C-0.05843291 33.14189125 -0.05386715 28.93911127 -0.04882812 24.73632812 C-0.03810519 16.49086922 -0.02103854 8.245439 0 0 Z " fill="#D0D0D0" transform="translate(637,107)"/>
<path d="M0 0 C1.24153433 3.724603 0.47452539 4.47752269 -1 8 C-3.33238094 19.49993381 -3.19233727 32.35076043 2.0625 42.95703125 C2.98229662 44.96142139 3.53600094 46.84917104 4 49 C3.34 48.67 2.68 48.34 2 48 C2 47.34 2 46.68 2 46 C1.34 46 0.68 46 0 46 C-3.66862811 37.74922421 -4.57112118 30.66262449 -4.375 21.6875 C-4.37306641 19.97723633 -4.37306641 19.97723633 -4.37109375 18.23242188 C-4.29848282 11.32228158 -3.93348873 5.90023309 0 0 Z " fill="#ABAAAB" transform="translate(248,125)"/>
<path d="M0 0 C1.03898437 0.00322266 2.07796875 0.00644531 3.1484375 0.00976562 C11.69129709 0.1634523 19.21035803 1.55147468 27.25 4.4375 C23.34313353 5.73978882 20.35178498 4.80786014 16.4375 4 C2.49753584 1.37666636 -9.98131514 2.63708952 -23.75 5.4375 C-22.75 3.4375 -22.75 3.4375 -20.65917969 2.60131836 C-13.67641431 0.65882414 -7.23619056 -0.07048238 0 0 Z " fill="#B9D8B7" transform="translate(1312.75,65.5625)"/>
<path d="M0 0 C5.66945058 0.42576902 10.61055893 1.13019391 16 3 C17.82928958 3.35485467 19.66324867 3.68604654 21.5 4 C25.50580073 4.69548896 29.16917383 5.61438202 33 7 C34.68563886 7.50623894 36.37333049 8.00566951 38.0625 8.5 C45.16708982 10.62923701 45.16708982 10.62923701 48 12 C48.495 12.99 48.495 12.99 49 14 C45.30034784 13.33163218 41.82353603 12.3493621 38.25 11.1875 C32.35058052 9.34101503 26.42892114 7.87998641 20.4074707 6.50952148 C13.52610744 4.92848822 6.76608087 3.01588463 0 1 C0 0.67 0 0.34 0 0 Z " fill="#A3A3A3" transform="translate(70,131)"/>
<path d="M0 0 C0.66 0 1.32 0 2 0 C7.02663188 8.71282859 6.0873182 22.3380581 4.24609375 31.92578125 C2.65532396 37.43421155 1.35975269 41.1348411 -3 45 C-1 39 -1 39 -0.234375 36.84375 C3.15991825 27.12675365 3.95413505 18.11594627 1.51171875 8.12109375 C0.86374456 5.43521601 0.41995909 2.72973408 0 0 Z " fill="#9E9E9E" transform="translate(315,127)"/>
<path d="M0 0 C2.49361571 1.20381448 4.68143083 2.45428722 7 4 C5.41858556 12.62771673 -1.98014368 20.44909816 -7.06640625 27.33984375 C-9.83337138 31.146517 -12.43054348 35.05822011 -15 39 C-15.33 38.34 -15.66 37.68 -16 37 C-14.80414991 34.82349135 -13.56373448 32.80934116 -12.1875 30.75 C-11.7853125 30.13463379 -11.383125 29.51926758 -10.96875 28.88525391 C-7.53633869 23.68251046 -3.91984576 18.61226992 -0.18823242 13.62011719 C2.81890984 9.68086714 2.81890984 9.68086714 4 5 C2.14835964 2.24743206 2.14835964 2.24743206 0 0 Z " fill="#A5A4A5" transform="translate(166,25)"/>
<path d="M0 0 C15.52746018 -1.18429781 29.25306663 4.49214324 43 11 C39.01754349 12.3274855 36.55210457 10.99907829 32.8125 9.5625 C32.15830078 9.31951172 31.50410156 9.07652344 30.83007812 8.82617188 C29.21696714 8.2256707 27.6080565 7.61390797 26 7 C26 6.34 26 5.68 26 5 C24.82630859 4.90912109 24.82630859 4.90912109 23.62890625 4.81640625 C22.61699219 4.73261719 21.60507813 4.64882812 20.5625 4.5625 C19.04849609 4.44068359 19.04849609 4.44068359 17.50390625 4.31640625 C15 4 15 4 14 3 C11.65276034 2.602507 9.29671452 2.25631277 6.9375 1.9375 C5.64714844 1.76089844 4.35679688 1.58429687 3.02734375 1.40234375 C1.52880859 1.20318359 1.52880859 1.20318359 0 1 C0 0.67 0 0.34 0 0 Z " fill="#A4A4A4" transform="translate(106,2)"/>
<path d="M0 0 C4.85215844 4.85215844 3.29807817 16.10251669 3.32128906 22.67700195 C3.16848189 33.294003 0.18705106 42.73740881 -5 52 C-6.4025848 47.79224559 -4.70691865 44.98917364 -3.125 41.0625 C-2.56319671 39.63746927 -2.00324116 38.21170843 -1.4453125 36.78515625 C-1.19281738 36.15488525 -0.94032227 35.52461426 -0.68017578 34.87524414 C1.00338116 30.23367886 1.15534054 25.90595674 1.125 21 C1.12306641 20.25049072 1.12113281 19.50098145 1.11914062 18.72875977 C1.07091769 12.4537507 0.67330219 6.24006849 0 0 Z " fill="#B7B6B7" transform="translate(177,140)"/>
<path d="M0 0 C0.66 0 1.32 0 2 0 C2.80710015 1.30306627 3.59470177 2.61820965 4.375 3.9375 C4.81585937 4.66839844 5.25671875 5.39929688 5.7109375 6.15234375 C8.85028955 13.08745782 9.32238962 20.16501177 9.25 27.6875 C9.25773438 28.50283203 9.26546875 29.31816406 9.2734375 30.15820312 C9.25831818 34.83385381 8.7895396 38.60426582 7 43 C5.61317755 39.14771542 6.42106792 35.98819876 7 32 C7.62601835 21.65330775 6.01249959 13.1442189 1.0234375 4.03125 C0 2 0 2 0 0 Z " fill="#A9A9A9" transform="translate(516,111)"/>
<path d="M0 0 C0.92619141 0.50660156 0.92619141 0.50660156 1.87109375 1.0234375 C12.47361637 6.60710999 21.05134353 7.30593999 33 7 C33 7.66 33 8.32 33 9 C25.42236256 10.87280013 19.53677855 11.12533885 12 9 C12 8.34 12 7.68 12 7 C9.69 6.67 7.38 6.34 5 6 C5 5.34 5 4.68 5 4 C2.525 3.01 2.525 3.01 0 2 C0 1.34 0 0.68 0 0 Z " fill="#A9CCA8" transform="translate(1095,180)"/>
<path d="M0 0 C0.64582031 0.2165625 1.29164063 0.433125 1.95703125 0.65625 C13.61709122 4.10163024 26.0539997 3.977709 38 2 C37.67 2.66 37.34 3.32 37 4 C26.07508978 7.4365737 13.5322753 7.48726078 3 3 C2.01 2.67 1.02 2.34 0 2 C0 1.34 0 0.68 0 0 Z " fill="#A6A6A7" transform="translate(454,182)"/>
<path d="M0 0 C0.77986564 2.33959693 1.04651372 3.77891988 0.53344727 6.2175293 C-0.0916875 9.47824368 -0.11228198 12.5119909 -0.09765625 15.83203125 C-0.09443359 17.12431641 -0.09121094 18.41660156 -0.08789062 19.74804688 C-0.07953665 21.10286526 -0.07107172 22.45768297 -0.0625 23.8125 C-0.05748 25.18684735 -0.05291797 26.56119645 -0.04882812 27.93554688 C-0.03705668 31.29040924 -0.02061283 34.64518221 0 38 C0.66 38 1.32 38 2 38 C2.66 42.62 3.32 47.24 4 52 C2 51 2 51 0.9296875 48.1328125 C-1.6969005 38.72026583 -2.37368235 29.63484182 -2.375 19.875 C-2.37717529 18.13307373 -2.37717529 18.13307373 -2.37939453 16.35595703 C-2.3042967 10.54304765 -1.98581306 5.48084405 0 0 Z " fill="#B5D7B2" transform="translate(1037,125)"/>
<path d="M0 0 C1.25586914 -0.00128906 2.51173828 -0.00257812 3.80566406 -0.00390625 C13.3367257 0.10420582 21.74160706 1.24164594 30.75 4.375 C27.76668694 5.36943769 26.54161241 5.39952065 23.51953125 5.03515625 C22.71708984 4.94169922 21.91464844 4.84824219 21.08789062 4.75195312 C20.25451172 4.64818359 19.42113281 4.54441406 18.5625 4.4375 C17.71751953 4.33759766 16.87253906 4.23769531 16.00195312 4.13476562 C13.91725803 3.88742892 11.83352716 3.63198959 9.75 3.375 C9.75 2.715 9.75 2.055 9.75 1.375 C-3.615 1.87 -3.615 1.87 -17.25 2.375 C-11.53993708 -0.48003146 -6.30371698 -0.00656466 0 0 Z " fill="#B9D6BA" transform="translate(1118.25,65.625)"/>
<path d="M0 0 C0.33 0.66 0.66 1.32 1 2 C0.36959957 3.35085807 -0.30251417 4.68252676 -1 6 C-1.09796875 6.64710938 -1.1959375 7.29421875 -1.296875 7.9609375 C-2.28332034 10.82162898 -3.73599792 11.36644551 -6.375 12.75 C-7.16648437 13.17796875 -7.95796875 13.6059375 -8.7734375 14.046875 C-11 15 -11 15 -14 15 C-14 15.66 -14 16.32 -14 17 C-16.97 17.33 -19.94 17.66 -23 18 C-20 16 -20 16 -16.8125 14.75 C-9.33268668 11.58728824 -4.33096869 6.76713857 0 0 Z " fill="#A1C7A0" transform="translate(1151,169)"/>
<path d="M0 0 C0.66 0 1.32 0 2 0 C0.48404335 3.91622135 -1.22872164 7.71795665 -3 11.5234375 C-5.54017177 17.81433165 -6.27403009 23.24834174 -6.125 29.9375 C-6.11597656 30.71673828 -6.10695313 31.49597656 -6.09765625 32.29882812 C-6.07433691 34.19935447 -6.03847586 36.09972008 -6 38 C-6.66 38 -7.32 38 -8 38 C-8.84233716 9.92209451 -8.84233716 9.92209451 0 0 Z " fill="#A1A1A2" transform="translate(433,110)"/>
<path d="M0 0 C10.68324652 0.59925367 19.81874837 2.4192392 29 8 C30.9812585 8.72045764 32.97669589 9.40781343 35 10 C35 10.66 35 11.32 35 12 C31.18681094 11.02641981 27.77649474 9.93307956 24.25 8.1875 C16.61320483 4.64327807 8.13885027 3.02022326 0 1 C0 0.67 0 0.34 0 0 Z " fill="#949595" transform="translate(96,42)"/>
<path d="M0 0 C0 0.33 0 0.66 0 1 C-0.79059814 1.03963867 -1.58119629 1.07927734 -2.39575195 1.12011719 C-6.03582983 1.3126098 -9.67391613 1.53113781 -13.3125 1.75 C-15.17745117 1.8428125 -15.17745117 1.8428125 -17.08007812 1.9375 C-24.26571199 2.39013835 -30.27973367 3.4170902 -36.91479492 6.26660156 C-37.6029126 6.50862305 -38.29103027 6.75064453 -39 7 C-39.66 6.67 -40.32 6.34 -41 6 C-29.04158791 -2.15346279 -13.83637961 -0.24008667 0 0 Z " fill="#454545" transform="translate(303,67)"/>
<path d="M0 0 C5.52816991 1.38204248 10.60459483 3.46211927 15.84375 5.69140625 C20.50448692 7.62376624 25.24227521 9.3235576 30 11 C24.24981681 13.09599003 18.41588788 10.082134 13 8 C8.53778862 5.90259788 4.25884304 3.48142082 0 1 C0 0.67 0 0.34 0 0 Z " fill="#99999A" transform="translate(25,209)"/>
<path d="M0 0 C4.04778827 1.05594477 7.83147358 2.31161487 11.6875 3.9375 C17.31128105 6.25113566 23.08024959 7.6573762 29 9 C29 9.33 29 9.66 29 10 C18.9190339 9.45355511 9.65457304 7.45326413 1 2 C0.67 1.34 0.34 0.68 0 0 Z " fill="#AAAAAA" transform="translate(66,79)"/>
<path d="M0 0 C0.99 0.33 1.98 0.66 3 1 C-3.17993054 6.14994211 -10.21967051 9.00990354 -18 11 C-20.42578125 10.6328125 -20.42578125 10.6328125 -22 10 C-18.49223216 8.39644899 -15.85645121 7.77963136 -12 8 C-12 7.34 -12 6.68 -12 6 C-11.38511719 5.73445312 -10.77023438 5.46890625 -10.13671875 5.1953125 C-9.32847656 4.84210938 -8.52023438 4.48890625 -7.6875 4.125 C-6.88699219 3.77695313 -6.08648437 3.42890625 -5.26171875 3.0703125 C-2.8038166 1.97428106 -2.8038166 1.97428106 0 0 Z " fill="#979898" transform="translate(150,211)"/>
<path d="M0 0 C0.33 0 0.66 0 1 0 C1 1.65 1 3.3 1 5 C1.66 5 2.32 5 3 5 C3.25523437 6.28583984 3.25523437 6.28583984 3.515625 7.59765625 C4.91016572 14.17721806 6.45946855 19.30986017 10 25 C9.67 25.66 9.34 26.32 9 27 C3.39407202 18.47318398 -0.67785689 10.3938056 0 0 Z " fill="#A6A7A6" transform="translate(592,183)"/>
<path d="M0 0 C3 3 3 3 3.2487793 5.0847168 C3.19117432 5.86500244 3.13356934 6.64528809 3.07421875 7.44921875 C3.01943359 8.29677734 2.96464844 9.14433594 2.90820312 10.01757812 C2.83537109 10.89865234 2.76253906 11.77972656 2.6875 12.6875 C2.62626953 13.58017578 2.56503906 14.47285156 2.50195312 15.39257812 C2.34874168 17.59646586 2.18091866 19.79824206 2 22 C1.34 22 0.68 22 0 22 C0 14.74 0 7.48 0 0 Z " fill="#8CBA87" transform="translate(860,103)"/>
<path d="M0 0 C2.68747787 1.34373894 2.8720595 2.70247361 4.0625 5.4375 C6.60588067 10.73747888 9.97118959 14.64042204 14.01171875 18.87109375 C16 21 16 21 18 24 C9.16793901 20.05501276 3.68876181 11.64902864 0 3 C0 2.01 0 1.02 0 0 Z " fill="#A2A3A3" transform="translate(12,90)"/>
<path d="M0 0 C1.14926266 0.95421808 2.29430541 1.91352045 3.4375 2.875 C4.39462891 3.67550781 4.39462891 3.67550781 5.37109375 4.4921875 C7 6 7 6 8 8 C7.443125 7.71125 6.88625 7.4225 6.3125 7.125 C3.91505355 5.9586747 1.48403061 4.9660119 -1 4 C-1.33 4.99 -1.66 5.98 -2 7 C-3.62890625 8.38671875 -3.62890625 8.38671875 -5.5625 9.6875 C-6.52349609 10.34298828 -6.52349609 10.34298828 -7.50390625 11.01171875 C-7.99761719 11.33785156 -8.49132812 11.66398438 -9 12 C-7.11833565 7.72349011 -4.28426692 2.14213346 0 0 Z " fill="#929192" transform="translate(29,155)"/>
<path d="M0 0 C2.70812656 1.35406328 2.78139646 2.62500056 3.8125 5.4375 C5.59111673 10.12658046 7.73818035 14.47474006 10.14453125 18.87109375 C11 21 11 21 10 24 C8.705826 21.43873936 7.41459216 18.87606642 6.125 16.3125 C5.76019531 15.59126953 5.39539063 14.87003906 5.01953125 14.12695312 C0 4.13352273 0 4.13352273 0 0 Z " fill="#A0A1A1" transform="translate(390,192)"/>
<path d="M0 0 C-0.89138672 0.29390625 -0.89138672 0.29390625 -1.80078125 0.59375 C-9.1394425 3.24160289 -14.88247454 7.20832606 -21 12 C-21 11.01 -21 10.02 -21 9 C-15.60659122 3.86087104 -7.67731908 -2.55910636 0 0 Z " fill="#A9A9AA" transform="translate(461,93)"/>
<path d="M0 0 C1.2475059 3.7425177 0.54732546 5.01644499 -0.75 8.6875 C-1.12125 9.74839844 -1.4925 10.80929688 -1.875 11.90234375 C-3.222665 15.61310191 -4.58276742 19.3151953 -6 23 C-6.33 23 -6.66 23 -7 23 C-6.70645238 14.48711911 -3.53223423 7.59376349 0 0 Z " fill="#9C9C9C" transform="translate(391,104)"/>
<path d="M0 0 C0 4.14418923 -1.73126527 6.04181584 -4.19921875 9.2578125 C-7.02592925 11.99254761 -9.15000108 12 -13 12 C-12.34 11.505 -11.68 11.01 -11 10.5 C-7.08476155 7.23730129 -3.56121854 3.64074947 0 0 Z " fill="#8A8A8A" transform="translate(311,172)"/>
<path d="M0 0 C0.33 0 0.66 0 1 0 C1.01981934 0.56920166 1.03963867 1.13840332 1.06005859 1.72485352 C1.15611758 4.33781712 1.26546407 6.95006802 1.375 9.5625 C1.4059375 10.45775391 1.436875 11.35300781 1.46875 12.27539062 C1.69872217 17.50725745 2.32404444 22.03344876 4 27 C3.01 26.67 2.02 26.34 1 26 C-0.01973129 22.94080612 -0.11533602 20.87581975 -0.09765625 17.67578125 C-0.09443359 16.64775391 -0.09121094 15.61972656 -0.08789062 14.56054688 C-0.07951172 13.48869141 -0.07113281 12.41683594 -0.0625 11.3125 C-0.05798828 10.22904297 -0.05347656 9.14558594 -0.04882812 8.02929688 C-0.03703743 5.35280915 -0.02058063 2.67643223 0 0 Z " fill="#B1B1B1" transform="translate(637,154)"/>
<path d="M0 0 C0.66 0.33 1.32 0.66 2 1 C1.43410156 1.26554687 0.86820312 1.53109375 0.28515625 1.8046875 C-0.44832031 2.15789063 -1.18179687 2.51109375 -1.9375 2.875 C-3.03384766 3.39707031 -3.03384766 3.39707031 -4.15234375 3.9296875 C-6.16332459 4.8684977 -6.16332459 4.8684977 -7 7 C-9.06640625 7.6328125 -9.06640625 7.6328125 -11.5625 8.125 C-12.38878906 8.29257813 -13.21507812 8.46015625 -14.06640625 8.6328125 C-14.70449219 8.75398438 -15.34257812 8.87515625 -16 9 C-13.63053272 6.33434931 -11.19636154 4.92561586 -8 3.375 C-7.13375 2.94960938 -6.2675 2.52421875 -5.375 2.0859375 C-3 1 -3 1 0 0 Z " fill="#959595" transform="translate(443,59)"/>
<path d="M0 0 C0.66 0 1.32 0 2 0 C2.66 2.64 3.32 5.28 4 8 C0.11690718 11.64775386 -2.71201818 12.58525633 -8 13 C-6.01388388 11.01388388 -4.55856751 10.08545288 -2 9 C-1.01 9 -0.02 9 1 9 C0.67 6.03 0.34 3.06 0 0 Z " fill="#979798" transform="translate(679,208)"/>
<path d="M0 0 C0.33 0.66 0.66 1.32 1 2 C-0.19264132 4.75927139 -1.44219409 7.39376548 -2.8125 10.0625 C-3.18181641 10.80822266 -3.55113281 11.55394531 -3.93164062 12.32226562 C-6.73767097 17.86883549 -6.73767097 17.86883549 -9 19 C-8.39443058 14.52551484 -6.67133996 11.18332894 -4.5 7.25 C-3.8709375 6.10015625 -3.241875 4.9503125 -2.59375 3.765625 C-1 1 -1 1 0 0 Z " fill="#A4A3A5" transform="translate(558,197)"/>
<path d="M0 0 C0.67804688 0.144375 1.35609375 0.28875 2.0546875 0.4375 C8.46292384 1.715597 14.47196016 2.25489093 21 2 C16.21568804 4.83015637 11.40420076 4.40551001 6 4 C2.3125 3 2.3125 3 0 2 C0 1.34 0 0.68 0 0 Z " fill="#979797" transform="translate(267,185)"/>
<path d="M0 0 C0.33 0 0.66 0 1 0 C1.8410478 3.6464806 2.11764968 6.99950907 2.09765625 10.73828125 C2.09443359 11.80498047 2.09121094 12.87167969 2.08789062 13.97070312 C2.07951172 15.07349609 2.07113281 16.17628906 2.0625 17.3125 C2.05798828 18.43462891 2.05347656 19.55675781 2.04882812 20.71289062 C2.03707313 23.4753151 2.02064077 26.23762998 2 29 C1.67 29 1.34 29 1 29 C0.97494385 28.37955811 0.9498877 27.75911621 0.92407227 27.11987305 C0.80803279 24.30887603 0.68534241 21.49820759 0.5625 18.6875 C0.52318359 17.71103516 0.48386719 16.73457031 0.44335938 15.72851562 C0.40146484 14.79072266 0.35957031 13.85292969 0.31640625 12.88671875 C0.27974854 12.02264404 0.24309082 11.15856934 0.20532227 10.26831055 C0.07252646 7.8352174 0.07252646 7.8352174 -1 5 C-0.5625 2.3125 -0.5625 2.3125 0 0 Z " fill="#353534" transform="translate(362,129)"/>
<path d="M0 0 C15.89130435 -0.52581522 15.89130435 -0.52581522 21 3.625 C21.33 4.07875 21.66 4.5325 22 5 C15.125 4.125 15.125 4.125 14 3 C11.65276034 2.602507 9.29671452 2.25631277 6.9375 1.9375 C5.64714844 1.76089844 4.35679688 1.58429687 3.02734375 1.40234375 C1.52880859 1.20318359 1.52880859 1.20318359 0 1 C0 0.67 0 0.34 0 0 Z " fill="#89898A" transform="translate(106,2)"/>
<path d="M0 0 C1.53216319 3.06432639 0.62911214 5.48173407 -0.12109375 8.734375 C-1.54234656 12.39804891 -3.7880733 13.8354407 -7 16 C-7 12.63497392 -6.4508149 11.83733775 -4.625 9.125 C-2.69643256 6.16385679 -1.15532729 3.36095213 0 0 Z " fill="#929292" transform="translate(521,154)"/>
<path d="M0 0 C0 0.66 0 1.32 0 2 C-0.99 2 -1.98 2 -3 2 C-3.20625 2.5775 -3.4125 3.155 -3.625 3.75 C-5.5274665 6.863127 -7.86294893 8.20739939 -11 10 C-11.99 10 -12.98 10 -14 10 C-4.49315068 0 -4.49315068 0 0 0 Z " fill="#B1CFAF" transform="translate(1283,74)"/>
<path d="M0 0 C0.66 0.33 1.32 0.66 2 1 C-2.43418038 7.03509225 -6.11355641 11.84371335 -13 15 C-13 14.34 -13 13.68 -13 13 C-11.42578125 11.484375 -11.42578125 11.484375 -9.3125 9.75 C-5.76035397 6.74045531 -2.86029631 3.66475465 0 0 Z " fill="#A0A0A0" transform="translate(347,198)"/>
<path d="M0 0 C0.33 0.66 0.66 1.32 1 2 C-1.01577062 6.50584021 -3.83128248 8.49876949 -8 11 C-8.66 10.67 -9.32 10.34 -10 10 C-8.71034824 8.62437146 -7.37310707 7.29233607 -6 6 C-5.34 6 -4.68 6 -4 6 C-3.71125 5.38125 -3.4225 4.7625 -3.125 4.125 C-2 2 -2 2 0 0 Z " fill="#B2D0AF" transform="translate(847,155)"/>
<path d="M0 0 C0.66 0 1.32 0 2 0 C2 0.66 2 1.32 2 2 C4.31 2 6.62 2 9 2 C9 2.66 9 3.32 9 4 C6.6739143 4.38063221 4.33944736 4.71269945 2 5 C1.67 4.67 1.34 4.34 1 4 C-0.66617115 3.95936168 -2.33388095 3.957279 -4 4 C-2.68 3.67 -1.36 3.34 0 3 C0 2.01 0 1.02 0 0 Z " fill="#7FAE80" transform="translate(475,305)"/>
<path d="M0 0 C0.33 0.66 0.66 1.32 1 2 C-2.33562767 6.51290803 -4.33289301 8.68206814 -10 10 C-3.84965831 2.51708428 -3.84965831 2.51708428 0 0 Z " fill="#ACC9AD" transform="translate(502,293)"/>
<path d="M0 0 C0.33 0 0.66 0 1 0 C0.67 3.3 0.34 6.6 0 10 C-0.66 10 -1.32 10 -2 10 C-2.33 12.31 -2.66 14.62 -3 17 C-3.99 17 -4.98 17 -6 17 C-4.14506608 11.28062041 -2.06896109 5.64444725 0 0 Z " fill="#B2D1B1" transform="translate(856,135)"/>
<path d="M0 0 C1.24752897 3.74258691 0.5279335 4.46162767 -1 8 C-1.68679942 10.32748694 -2.35761043 12.65986656 -3 15 C-3.33 15 -3.66 15 -4 15 C-3.91245449 13.24908981 -3.80426627 11.49920449 -3.6875 9.75 C-3.62949219 8.77546875 -3.57148438 7.8009375 -3.51171875 6.796875 C-2.95363476 3.74658389 -2.03630224 2.29288724 0 0 Z " fill="#999899" transform="translate(248,125)"/>
<path d="M0 0 C-1 1 -1 1 -3.5625 1.0625 C-4.7690625 1.0315625 -4.7690625 1.0315625 -6 1 C-6 1.66 -6 2.32 -6 3 C-9.96 3 -13.92 3 -18 3 C-18 2.67 -18 2.34 -18 2 C-15.37638987 1.47109454 -12.75151775 0.95157912 -10.125 0.4375 C-9.37863281 0.28603516 -8.63226562 0.13457031 -7.86328125 -0.02148438 C-2.2265625 -1.11328125 -2.2265625 -1.11328125 0 0 Z " fill="#B5D3B4" transform="translate(817,177)"/>
<path d="M0 0 C0.66 0.33 1.32 0.66 2 1 C0.6875 3.9375 0.6875 3.9375 -1 7 C-1.99 7.33 -2.98 7.66 -4 8 C-5.37195574 9.29355827 -6.71182656 10.62298702 -8 12 C-6.49087042 7.01987239 -3.44338151 3.75740058 0 0 Z " fill="#8E8F8F" transform="translate(25,23)"/>
<path d="M0 0 C0.33 0 0.66 0 1 0 C0.69343615 6.62177926 -0.74288723 11.22125154 -4 17 C-5.3274855 13.01754349 -3.99907829 10.55210457 -2.5625 6.8125 C-2.19801758 5.83120117 -2.19801758 5.83120117 -1.82617188 4.83007812 C-1.2256707 3.21696714 -0.61390797 1.6080565 0 0 Z " fill="#999899" transform="translate(176,175)"/>
<path d="M0 0 C-4.96284034 2.37113483 -9.45949887 4.43174347 -15 5 C-12.86699672 2.63442627 -11.04050601 1.37032472 -8.0625 0.25 C-7.39347656 -0.01296875 -6.72445313 -0.2759375 -6.03515625 -0.546875 C-3.68352509 -1.07046274 -2.26382477 -0.74954377 0 0 Z " fill="#979798" transform="translate(277,69)"/>
<path d="M0 0 C0 0.66 0 1.32 0 2 C-0.66 2 -1.32 2 -2 2 C-2.185625 2.639375 -2.37125 3.27875 -2.5625 3.9375 C-4 6 -4 6 -7.625 6.75 C-8.73875 6.8325 -9.8525 6.915 -11 7 C-4.36842105 0 -4.36842105 0 0 0 Z " fill="#7D7D7D" transform="translate(45,10)"/>
<path d="M0 0 C0.33 0.99 0.66 1.98 1 3 C-0.43359375 5.69921875 -0.43359375 5.69921875 -2.4375 8.6875 C-3.42556641 10.17830078 -3.42556641 10.17830078 -4.43359375 11.69921875 C-5.20896484 12.83810547 -5.20896484 12.83810547 -6 14 C-6.33 13.01 -6.66 12.02 -7 11 C-5.8125 9.25 -5.8125 9.25 -4 7 C-2.60969582 4.69606735 -1.31098474 2.35073126 0 0 Z " fill="#9F9F9F" transform="translate(356,184)"/>
<path d="M0 0 C2.64 0 5.28 0 8 0 C8 0.66 8 1.32 8 2 C9.98 2 11.96 2 14 2 C14.33 2.66 14.66 3.32 15 4 C9.72684667 3.5547115 4.98229776 2.91626837 0 1 C0 0.67 0 0.34 0 0 Z " fill="#B9D6B7" transform="translate(420,319)"/>
<path d="M0 0 C0.66 0.33 1.32 0.66 2 1 C-0.31 3.64 -2.62 6.28 -5 9 C-5.33 8.01 -5.66 7.02 -6 6 C-4 4 -2 2 0 0 Z " fill="#98BD9A" transform="translate(410,295)"/>
<path d="M0 0 C5.94 1.485 5.94 1.485 12 3 C12 3.66 12 4.32 12 5 C3.42857143 4.14285714 3.42857143 4.14285714 0 2 C0 1.34 0 0.68 0 0 Z " fill="#9D9C9D" transform="translate(454,182)"/>
<path d="M0 0 C0.66 0.33 1.32 0.66 2 1 C1.0625 2.9375 1.0625 2.9375 -1 5 C-3.9858081 5.66174825 -6.94861869 5.87205948 -10 6 C-6.71739341 3.81159561 -3.49181927 1.84114107 0 0 Z " fill="#8C8C8C" transform="translate(502,178)"/>
<path d="M0 0 C1.61725534 3.00950123 2.67582623 5.97103608 3.625 9.25 C3.88539063 10.14203125 4.14578125 11.0340625 4.4140625 11.953125 C4.60742188 12.62859375 4.80078125 13.3040625 5 14 C2.47411298 11.63707344 1.11179163 10.33537489 0 7 C-0.03954234 4.66700175 -0.04401732 2.33291811 0 0 Z " fill="#A6A5A6" transform="translate(427,148)"/>
<path d="M0 0 C4.85077588 1.11940982 7.777893 2.1334716 11 6 C9.53775201 5.57576756 8.08026588 5.13509755 6.625 4.6875 C5.81289062 4.44386719 5.00078125 4.20023437 4.1640625 3.94921875 C2 3 2 3 0 0 Z " fill="#969696" transform="translate(66,79)"/>
<path d="M0 0 C-1.17744585 3.53233755 -1.95605641 3.86308075 -5.0625 5.6875 C-5.79597656 6.12449219 -6.52945312 6.56148438 -7.28515625 7.01171875 C-7.85105469 7.33785156 -8.41695313 7.66398437 -9 8 C-7.70948419 4.12845257 -4.40863591 0 0 0 Z " fill="#9D9D9E" transform="translate(448,97)"/>
<path d="M0 0 C0.66 0 1.32 0 2 0 C1.67 1.32 1.34 2.64 1 4 C-1.31 4.66 -3.62 5.32 -6 6 C-4 4 -2 2 0 0 Z " fill="#868687" transform="translate(420,71)"/>
<path d="M0 0 C0.53625 0.226875 1.0725 0.45375 1.625 0.6875 C-3.79038462 3.76442308 -3.79038462 3.76442308 -6.75 3.375 C-7.554375 3.0346875 -7.554375 3.0346875 -8.375 2.6875 C-2.95961538 -0.38942308 -2.95961538 -0.38942308 0 0 Z " fill="#8D8D8E" transform="translate(270.375,106.3125)"/>
</svg>
